<svg width="24" height="24" viewBox="0 0 24 24" fill="none" xmlns="http://www.w3.org/2000/svg">
<g clip-path="url(#clip0_177_5108)">
<path d="M11.52 5.75C11.52 4.61276 11.1828 3.50106 10.551 2.55547C9.91915 1.60989 9.02113 0.872899 7.97045 0.437695C6.91978 0.00249141 5.76364 -0.111378 4.64825 0.110487C3.53286 0.332352 2.50831 0.879987 1.70416 1.68414C0.900006 2.48829 0.352372 3.51284 0.130507 4.62823C-0.0913583 5.74362 0.0225109 6.89976 0.457715 7.95043C0.892919 9.00111 1.62991 9.89914 2.57549 10.531C3.52108 11.1628 4.63278 11.5 5.77002 11.5C7.29502 11.5 8.75755 10.8942 9.83589 9.81587C10.9142 8.73753 11.52 7.275 11.52 5.75ZM5.77002 9.5C5.02834 9.5 4.30332 9.28007 3.68663 8.86801C3.06995 8.45596 2.5893 7.87029 2.30547 7.18507C2.02165 6.49984 1.94738 5.74584 2.09208 5.01841C2.23677 4.29098 2.59392 3.6228 3.11837 3.09835C3.64282 2.57391 4.311 2.21675 5.03843 2.07206C5.76586 1.92736 6.51986 2.00163 7.20508 2.28545C7.89031 2.56928 8.47598 3.04993 8.88803 3.66661C9.30009 4.2833 9.52002 5.00832 9.52002 5.75C9.51738 6.74375 9.12145 7.69605 8.41876 8.39874C7.71607 9.10143 6.76377 9.49736 5.77002 9.5Z" fill="#4C2399"/>
<path d="M6.71987 3.57001L4.87987 5.62001C4.74955 5.76958 4.68288 5.96417 4.69409 6.16223C4.7053 6.36028 4.7935 6.54611 4.93987 6.68001C5.07752 6.80265 5.25551 6.87028 5.43987 6.87001C5.54576 6.87146 5.65069 6.84984 5.74739 6.80667C5.84409 6.7635 5.93024 6.69981 5.99987 6.62001L7.82987 4.62001C7.90619 4.54917 7.96692 4.46322 8.0082 4.36762C8.04948 4.27202 8.07039 4.16887 8.06962 4.06474C8.06885 3.96061 8.0464 3.85779 8.0037 3.76281C7.96101 3.66783 7.89901 3.58279 7.82164 3.51309C7.74428 3.44339 7.65325 3.39057 7.55435 3.35798C7.45544 3.3254 7.35084 3.31376 7.2472 3.32382C7.14355 3.33388 7.04314 3.36541 6.95235 3.4164C6.86156 3.4674 6.78239 3.53674 6.71987 3.62001V3.57001Z" fill="#4C2399"/>
<path d="M23 13H20.5C20.3674 13 20.2402 12.9473 20.1464 12.8536C20.0527 12.7598 20 12.6326 20 12.5V11C20 10.4696 19.7893 9.96086 19.4142 9.58579C19.0391 9.21071 18.5304 9 18 9H14C13.4696 9 12.9609 9.21071 12.5858 9.58579C12.2107 9.96086 12 10.4696 12 11V12.5C12 12.6326 11.9473 12.7598 11.8536 12.8536C11.7598 12.9473 11.6326 13 11.5 13H9C8.73478 13 8.48043 13.1054 8.29289 13.2929C8.10536 13.4804 8 13.7348 8 14V23C8 23.2652 8.10536 23.5196 8.29289 23.7071C8.48043 23.8946 8.73478 24 9 24H23C23.2652 24 23.5196 23.8946 23.7071 23.7071C23.8946 23.5196 24 23.2652 24 23V14C24 13.7348 23.8946 13.4804 23.7071 13.2929C23.5196 13.1054 23.2652 13 23 13ZM14 11.51C14 11.3774 14.0527 11.2502 14.1464 11.1564C14.2402 11.0627 14.3674 11.01 14.5 11.01H17.5C17.6326 11.01 17.7598 11.0627 17.8536 11.1564C17.9473 11.2502 18 11.3774 18 11.51V12.51C18 12.6426 17.9473 12.7698 17.8536 12.8636C17.7598 12.9573 17.6326 13.01 17.5 13.01H14.5C14.3674 13.01 14.2402 12.9573 14.1464 12.8636C14.0527 12.7698 14 12.6426 14 12.51V11.51ZM19.5 21H12.5C12.3674 21 12.2402 20.9473 12.1464 20.8536C12.0527 20.7598 12 20.6326 12 20.5C12 20.3674 12.0527 20.2402 12.1464 20.1464C12.2402 20.0527 12.3674 20 12.5 20H19.5C19.6326 20 19.7598 20.0527 19.8536 20.1464C19.9473 20.2402 20 20.3674 20 20.5C20 20.6326 19.9473 20.7598 19.8536 20.8536C19.7598 20.9473 19.6326 21 19.5 21ZM19.5 17H12.5C12.3674 17 12.2402 16.9473 12.1464 16.8536C12.0527 16.7598 12 16.6326 12 16.5C12 16.3674 12.0527 16.2402 12.1464 16.1464C12.2402 16.0527 12.3674 16 12.5 16H19.5C19.6326 16 19.7598 16.0527 19.8536 16.1464C19.9473 16.2402 20 16.3674 20 16.5C20 16.6326 19.9473 16.7598 19.8536 16.8536C19.7598 16.9473 19.6326 17 19.5 17Z" fill="#4C2399"/>
</g>
<defs>
<clipPath id="clip0_177_5108">
<rect width="24" height="24" fill="white"/>
</clipPath>
</defs>
</svg>
