<svg width="24" height="24" viewBox="0 0 24 24" fill="none" xmlns="http://www.w3.org/2000/svg">
<path d="M20.15 4C20.0371 3.97695 19.9356 3.91558 19.8627 3.82629C19.7898 3.737 19.75 3.62527 19.75 3.51V2C19.75 1.46957 19.5393 0.960859 19.1642 0.585786C18.7891 0.210714 18.2804 0 17.75 0L5.25 0C4.45435 0 3.69129 0.31607 3.12868 0.87868C2.56607 1.44129 2.25 2.20435 2.25 3V21C2.25 21.7956 2.56607 22.5587 3.12868 23.1213C3.69129 23.6839 4.45435 24 5.25 24H19.75C20.2804 24 20.7891 23.7893 21.1642 23.4142C21.5393 23.0391 21.75 22.5304 21.75 22V6C21.7594 5.53211 21.6045 5.07572 21.3121 4.71028C21.0198 4.34485 20.6086 4.0935 20.15 4ZM17.25 13.25C17.247 13.2984 17.2305 13.345 17.2023 13.3845C17.1742 13.424 17.1356 13.4548 17.0909 13.4736C17.0462 13.4923 16.9971 13.4981 16.9492 13.4904C16.9014 13.4827 16.8566 13.4618 16.82 13.43L14.93 11.53C14.8805 11.4857 14.8164 11.4612 14.75 11.4612C14.6836 11.4612 14.6195 11.4857 14.57 11.53L12.68 13.43C12.6382 13.4567 12.5896 13.4709 12.54 13.4709C12.4904 13.4709 12.4418 13.4567 12.4 13.43C12.3553 13.4105 12.3173 13.3783 12.2906 13.3374C12.2639 13.2966 12.2498 13.2488 12.25 13.2V5.75C12.25 5.6837 12.2763 5.62011 12.3232 5.57322C12.3701 5.52634 12.4337 5.5 12.5 5.5H17C17.0663 5.5 17.1299 5.52634 17.1768 5.57322C17.2237 5.62011 17.25 5.6837 17.25 5.75V13.25ZM17.75 3.71C17.7558 3.74602 17.7537 3.78288 17.7438 3.81799C17.7339 3.8531 17.7164 3.88562 17.6926 3.91326C17.6688 3.94089 17.6392 3.96298 17.6059 3.97796C17.5726 3.99295 17.5365 4.00047 17.5 4H5.25C4.98478 4 4.73043 3.89464 4.54289 3.70711C4.35536 3.51957 4.25 3.26522 4.25 3C4.25 2.73478 4.35536 2.48043 4.54289 2.29289C4.73043 2.10536 4.98478 2 5.25 2H17.5C17.5663 2 17.6299 2.02634 17.6768 2.07322C17.7237 2.12011 17.75 2.1837 17.75 2.25V3.71Z" fill="#4C2399"/>
</svg>
