<svg width="24" height="24" viewBox="0 0 24 24" fill="none" xmlns="http://www.w3.org/2000/svg">
<path d="M1 16.25H2.67C3.09308 16.2398 3.50003 16.0856 3.82365 15.8129C4.14727 15.5401 4.36821 15.1652 4.45 14.75C4.46526 14.6037 4.46526 14.4563 4.45 14.31V14C4.45 13.9337 4.47634 13.8701 4.52322 13.8232C4.57011 13.7763 4.6337 13.75 4.7 13.75H6C6.07036 13.7495 6.13998 13.7644 6.20392 13.7938C6.26786 13.8232 6.32456 13.8663 6.37 13.92L9.96 17.92C10.0426 18.0171 10.1452 18.0951 10.2609 18.1487C10.3766 18.2022 10.5025 18.2299 10.63 18.23C10.8607 18.23 11.082 18.1383 11.2452 17.9752C11.4083 17.812 11.5 17.5907 11.5 17.36C11.5 17.08 11.5 16.96 11.43 16.86L10.65 16.08C10.5572 15.9872 10.505 15.8613 10.505 15.73C10.505 15.5987 10.5572 15.4728 10.65 15.38C10.7428 15.2872 10.8687 15.235 11 15.235C11.1313 15.235 11.2572 15.2872 11.35 15.38L12.28 16.3C12.436 16.3886 12.6101 16.4406 12.7892 16.4518C12.9682 16.463 13.1475 16.4333 13.3133 16.3648C13.4791 16.2964 13.6272 16.191 13.7462 16.0568C13.8652 15.9225 13.952 15.7629 14 15.59C14.0125 15.5467 14.0136 15.5009 14.0031 15.4571C13.9925 15.4132 13.9708 15.3729 13.94 15.34L12.65 14.1C12.5572 14.0072 12.505 13.8813 12.505 13.75C12.505 13.6187 12.5572 13.4928 12.65 13.4C12.7428 13.3072 12.8687 13.255 13 13.255C13.1313 13.255 13.2572 13.3072 13.35 13.4L14.63 14.68C14.73 14.77 14.84 14.75 15 14.75C15.1857 14.75 15.3678 14.6983 15.5257 14.6007C15.6837 14.503 15.8114 14.3633 15.8944 14.1972C15.9775 14.0311 16.0126 13.8452 15.996 13.6602C15.9793 13.4752 15.9114 13.2986 15.8 13.15L12.93 9.47C12.8979 9.42849 12.8539 9.39767 12.8039 9.3816C12.754 9.36554 12.7003 9.36498 12.65 9.38L11.09 9.9C10.6921 10.0372 10.2574 10.0209 9.87083 9.85446C9.48429 9.68801 9.17376 9.38332 9 9C8.85705 8.7042 8.80451 8.3728 8.84898 8.04729C8.89345 7.72178 9.03294 7.41662 9.25 7.17C9.28 7.13665 9.30047 7.09584 9.30926 7.05185C9.31806 7.00787 9.31486 6.96232 9.3 6.92C9.28517 6.87717 9.25852 6.83941 9.22313 6.81109C9.18773 6.78277 9.14504 6.76506 9.1 6.76C8.81609 6.71835 8.5262 6.75286 8.26 6.86L4.84 8.25C4.80403 8.26693 4.76476 8.27571 4.725 8.27571C4.68524 8.27571 4.64597 8.26693 4.61 8.25C4.57028 8.22263 4.53895 8.18476 4.51953 8.14061C4.5001 8.09646 4.49334 8.04777 4.5 8V7.69C4.5103 7.57022 4.5103 7.44978 4.5 7.33C4.43044 6.89845 4.21268 6.50463 3.88417 6.21627C3.55565 5.92791 3.13692 5.76303 2.7 5.75H1C0.734784 5.75 0.48043 5.85536 0.292893 6.04289C0.105357 6.23043 0 6.48478 0 6.75L0 15.25C0 15.5152 0.105357 15.7696 0.292893 15.9571C0.48043 16.1446 0.734784 16.25 1 16.25Z" fill="#4C2399"/>
<path d="M14.6599 8.73L14.1699 8.89C14.1307 8.90082 14.0947 8.92106 14.0651 8.94894C14.0355 8.97682 14.0131 9.01151 13.9999 9.05C13.991 9.08967 13.9909 9.13079 13.9996 9.17051C14.0082 9.21023 14.0254 9.24759 14.0499 9.28L16.5899 12.54C16.8552 12.8877 16.9992 13.3127 16.9999 13.75C17.0102 13.8564 17.0102 13.9636 16.9999 14.07C16.9959 14.1103 17.001 14.151 17.0148 14.1891C17.0287 14.2272 17.0509 14.2617 17.0799 14.29C17.1087 14.3178 17.1435 14.3386 17.1817 14.3508C17.2199 14.3629 17.2603 14.3661 17.2999 14.36L19.1999 14C19.2324 13.9833 19.2684 13.9746 19.3049 13.9746C19.3414 13.9746 19.3774 13.9833 19.4099 14C19.4378 14.0232 19.4603 14.0523 19.4758 14.0851C19.4914 14.1179 19.4996 14.1537 19.4999 14.19C19.4914 14.4274 19.5253 14.6645 19.5999 14.89C19.7104 15.2654 19.9377 15.5958 20.2489 15.8332C20.56 16.0705 20.9386 16.2025 21.3299 16.21H22.9999C23.2651 16.21 23.5195 16.1046 23.707 15.9171C23.8945 15.7296 23.9999 15.4752 23.9999 15.21V6.75C23.9999 6.48478 23.8945 6.23043 23.707 6.04289C23.5195 5.85536 23.2651 5.75 22.9999 5.75H21.3299C21.0478 5.75267 20.7702 5.822 20.52 5.95234C20.2697 6.08268 20.0538 6.27034 19.8899 6.5C19.7435 6.69839 19.635 6.92215 19.5699 7.16C19.5505 7.22348 19.5076 7.27715 19.4499 7.31C19.382 7.33443 19.3078 7.33443 19.2399 7.31L15.2399 5.85C14.9876 5.77285 14.7225 5.74638 14.4599 5.77212C14.1973 5.79787 13.9424 5.87531 13.7099 6L10.2599 7.68C10.099 7.75784 9.97516 7.89592 9.91527 8.06435C9.85538 8.23279 9.86423 8.41804 9.9399 8.58C10.0102 8.73395 10.1346 8.85671 10.2895 8.92493C10.4443 8.99315 10.6189 9.00207 10.7799 8.95L14.3399 7.78C14.4016 7.75809 14.467 7.74875 14.5323 7.75253C14.5977 7.75632 14.6616 7.77316 14.7203 7.80206C14.779 7.83095 14.8314 7.87132 14.8742 7.92077C14.9171 7.97023 14.9496 8.02777 14.9699 8.09C14.992 8.15235 15.0014 8.21846 14.9978 8.2845C14.9941 8.35054 14.9774 8.4152 14.9485 8.47472C14.9197 8.53425 14.8793 8.58746 14.8298 8.63128C14.7802 8.6751 14.7225 8.70865 14.6599 8.73Z" fill="#4C2399"/>
</svg>
