<svg width="24" height="24" viewBox="0 0 24 24" fill="none" xmlns="http://www.w3.org/2000/svg">
<g clip-path="url(#clip0_4015_1230)">
<path d="M16.3748 0.964844C14.9558 0.964844 13.5685 1.38565 12.3886 2.17405C11.2087 2.96245 10.2891 4.08303 9.746 5.39409C9.20294 6.70515 9.06085 8.1478 9.3377 9.53962C9.61455 10.9314 10.2979 12.2099 11.3013 13.2133C12.3048 14.2168 13.5832 14.9001 14.9751 15.177C16.3669 15.4538 17.8095 15.3117 19.1206 14.7687C20.4316 14.2256 21.5522 13.306 22.3406 12.1261C23.129 10.9461 23.5498 9.55892 23.5498 8.13984C23.5498 6.23692 22.7939 4.41193 21.4483 3.06635C20.1027 1.72078 18.2778 0.964844 16.3748 0.964844ZM17.9892 6.77659H18.4795C18.5984 6.77659 18.7125 6.82384 18.7966 6.90794C18.8807 6.99204 18.9279 7.1061 18.9279 7.22503C18.9279 7.34396 18.8807 7.45803 18.7966 7.54212C18.7125 7.62622 18.5984 7.67347 18.4795 7.67347H17.9892C17.8847 8.1799 17.6088 8.63483 17.208 8.96157C16.8072 9.28831 16.306 9.46689 15.7889 9.46722H15.6753L17.8995 11.6915C17.9835 11.7756 18.0307 11.8895 18.0307 12.0084C18.0307 12.1272 17.9835 12.2412 17.8995 12.3253C17.8148 12.4083 17.7013 12.4554 17.5826 12.4568C17.4642 12.4542 17.3511 12.4073 17.2657 12.3253L14.2761 9.33568C14.2141 9.27223 14.1719 9.19199 14.1549 9.10486C14.1379 9.01772 14.1468 8.92752 14.1805 8.84539C14.2131 8.76545 14.2685 8.69682 14.3396 8.64795C14.4108 8.59908 14.4948 8.5721 14.5811 8.57034H15.7769C16.055 8.57018 16.3262 8.48386 16.5532 8.32325C16.7802 8.16264 16.9518 7.93563 17.0445 7.67347H14.5811C14.4621 7.67347 14.3481 7.62622 14.264 7.54212C14.1799 7.45803 14.1326 7.34396 14.1326 7.22503C14.1326 7.1061 14.1799 6.99204 14.264 6.90794C14.3481 6.82384 14.4621 6.77659 14.5811 6.77659H17.0445C16.9526 6.51394 16.7811 6.28644 16.5539 6.12571C16.3268 5.96498 16.0552 5.879 15.7769 5.87972H14.5811C14.4621 5.87972 14.3481 5.83247 14.264 5.74837C14.1799 5.66428 14.1326 5.55021 14.1326 5.43128C14.1326 5.31235 14.1799 5.19829 14.264 5.11419C14.3481 5.03009 14.4621 4.98284 14.5811 4.98284H18.4675C18.5865 4.98284 18.7005 5.03009 18.7846 5.11419C18.8687 5.19829 18.916 5.31235 18.916 5.43128C18.916 5.55021 18.8687 5.66428 18.7846 5.74837C18.7005 5.83247 18.5865 5.87972 18.4675 5.87972H17.5707C17.7754 6.14366 17.9184 6.45013 17.9892 6.77659Z" fill="#4C2399"/>
<path d="M20.44 18L16.92 19.2C16.8858 19.2102 16.8545 19.2281 16.8285 19.2524C16.8024 19.2767 16.7824 19.3067 16.77 19.34C16.6173 19.6852 16.37 19.9801 16.0568 20.1907C15.7436 20.4012 15.3772 20.5189 15 20.53H11C10.8673 20.53 10.7402 20.4774 10.6464 20.3836C10.5526 20.2898 10.5 20.1626 10.5 20.03C10.5 19.8974 10.5526 19.7702 10.6464 19.6765C10.7402 19.5827 10.8673 19.53 11 19.53H15C15.2652 19.53 15.5195 19.4247 15.7071 19.2371C15.8946 19.0496 16 18.7952 16 18.53C16 18.2648 15.8946 18.0105 15.7071 17.8229C15.5195 17.6354 15.2652 17.53 15 17.53H11.5C11.19 17.53 9.98995 16.03 7.49995 16.03H5.38995C4.76877 16.0291 4.15591 16.1729 3.59995 16.45L0.579952 18C0.540499 18.0216 0.507599 18.0534 0.48472 18.0922C0.46184 18.1309 0.449829 18.1751 0.449952 18.22V23.62C0.450684 23.6637 0.461983 23.7065 0.482882 23.7448C0.503782 23.7831 0.533658 23.8158 0.569952 23.84C0.609787 23.8619 0.654502 23.8734 0.699952 23.8734C0.745402 23.8734 0.790117 23.8619 0.829952 23.84L4.04995 21.84C4.1754 21.7615 4.31672 21.7118 4.46371 21.6945C4.6107 21.6772 4.7597 21.6928 4.89995 21.74C14.9 25.1 11.53 25.11 22.77 19.43C22.8462 19.3924 22.9119 19.3363 22.961 19.2668C23.0101 19.1973 23.041 19.1167 23.0509 19.0322C23.0609 18.9477 23.0495 18.8621 23.0179 18.7831C22.9863 18.7041 22.9354 18.6343 22.87 18.58C22.5519 18.2779 22.1597 18.0651 21.733 17.9632C21.3062 17.8614 20.8602 17.8741 20.44 18Z" fill="#4C2399"/>
</g>
<defs>
<clipPath id="clip0_4015_1230">
<rect width="24" height="24" fill="white"/>
</clipPath>
</defs>
</svg>
