<svg width="24" height="24" viewBox="0 0 24 24" fill="none" xmlns="http://www.w3.org/2000/svg">
<path d="M16.7001 4C18.4892 4.06121 20.277 3.84532 22.0001 3.36C22.0486 3.34365 22.0909 3.31284 22.1213 3.27171C22.1517 3.23058 22.1687 3.18112 22.1701 3.13V3C22.1698 2.86487 22.1158 2.73539 22.0201 2.64C21.9101 2.53 20.7601 1.5 16.6701 1.5C12.5801 1.5 11.4301 2.5 11.3201 2.64C11.2353 2.7401 11.1923 2.86903 11.2001 3V3.11C11.2009 3.16249 11.2176 3.21351 11.2479 3.25635C11.2783 3.29919 11.3209 3.33183 11.3701 3.35C13.1049 3.82885 14.9011 4.0479 16.7001 4Z" fill="#4C2399"/>
<path d="M16.7002 9.00001C18.4893 9.06122 20.2771 8.84534 22.0002 8.36001C22.0487 8.34367 22.0909 8.31285 22.1213 8.27172C22.1517 8.2306 22.1688 8.18114 22.1702 8.13001V4.70001C22.1695 4.66134 22.1601 4.62331 22.1428 4.58871C22.1255 4.55411 22.1007 4.52381 22.0702 4.50001C22.0362 4.48247 21.9985 4.47332 21.9602 4.47332C21.9219 4.47332 21.8842 4.48247 21.8502 4.50001C20.1579 4.86071 18.4302 5.02844 16.7002 5.00001C14.9575 5.00774 13.2195 4.8165 11.5202 4.43001C11.4862 4.41247 11.4485 4.40332 11.4102 4.40332C11.3719 4.40332 11.3342 4.41247 11.3002 4.43001C11.2697 4.45381 11.2449 4.48411 11.2276 4.51871C11.2103 4.55331 11.2009 4.59134 11.2002 4.63001V8.14001C11.201 8.1925 11.2177 8.24352 11.248 8.28636C11.2783 8.3292 11.3209 8.36185 11.3702 8.38001C13.1065 8.84875 14.9027 9.05768 16.7002 9.00001Z" fill="#4C2399"/>
<path d="M16.7002 10C14.9575 10.0077 13.2195 9.8165 11.5202 9.43001C11.4862 9.41247 11.4485 9.40332 11.4102 9.40332C11.3719 9.40332 11.3342 9.41247 11.3002 9.43001C11.2697 9.45381 11.2449 9.48411 11.2276 9.51871C11.2103 9.55331 11.2009 9.59134 11.2002 9.63001V12.46C11.2002 13.81 15.0502 13.96 16.7002 13.96C18.3502 13.96 22.2002 13.81 22.2002 12.46V9.70001C22.1995 9.66134 22.1901 9.62331 22.1728 9.58871C22.1555 9.55411 22.1307 9.52381 22.1002 9.50001C22.0662 9.48247 22.0285 9.47332 21.9902 9.47332C21.9519 9.47332 21.9142 9.48247 21.8802 9.50001C20.1781 9.86297 18.4403 10.0307 16.7002 10Z" fill="#4C2399"/>
<path d="M20.7102 16.53L17.1702 17.7C17.1361 17.7101 17.1048 17.7281 17.0787 17.7523C17.0527 17.7766 17.0327 17.8066 17.0202 17.84C16.8596 18.1872 16.6027 18.481 16.2801 18.6866C15.9575 18.8922 15.5828 19.0009 15.2002 19H11.2002C11.0676 19 10.9404 18.9473 10.8467 18.8536C10.7529 18.7598 10.7002 18.6326 10.7002 18.5C10.7002 18.3674 10.7529 18.2402 10.8467 18.1464C10.9404 18.0527 11.0676 18 11.2002 18H15.2002C15.4654 18 15.7198 17.8946 15.9073 17.7071C16.0949 17.5196 16.2002 17.2652 16.2002 17C16.2002 16.7348 16.0949 16.4804 15.9073 16.2929C15.7198 16.1054 15.4654 16 15.2002 16H11.7002C10.5522 15.1018 9.15579 14.5781 7.70022 14.5H5.64022C5.01551 14.5224 4.4052 14.6938 3.86022 15L0.860222 16.51C0.818164 16.5293 0.782574 16.5603 0.757736 16.5993C0.732898 16.6384 0.71987 16.6837 0.720222 16.73V22.13C0.721117 22.1748 0.733554 22.2185 0.756329 22.2571C0.779104 22.2956 0.811446 22.3276 0.850222 22.35C0.888227 22.3719 0.931338 22.3835 0.975222 22.3835C1.01911 22.3835 1.06222 22.3719 1.10022 22.35L4.32022 20.35C4.44692 20.27 4.58998 20.2194 4.73884 20.2021C4.8877 20.1848 5.03854 20.2012 5.18022 20.25C15.1802 23.61 11.8102 23.62 23.0402 17.94C23.1322 17.9039 23.2121 17.8423 23.2703 17.7624C23.3286 17.6825 23.3629 17.5877 23.3692 17.4891C23.3755 17.3904 23.3535 17.292 23.3059 17.2054C23.2582 17.1188 23.1869 17.0475 23.1002 17C22.7769 16.7209 22.3865 16.5308 21.9675 16.4484C21.5484 16.366 21.1151 16.3941 20.7102 16.53Z" fill="#4C2399"/>
</svg>
