<svg width="24" height="24" viewBox="0 0 24 24" fill="none" xmlns="http://www.w3.org/2000/svg">
<g clip-path="url(#clip0_177_5564)">
<path d="M2 19.2803H1C0.801088 19.2803 0.610322 19.3593 0.46967 19.4999C0.329018 19.6406 0.25 19.8314 0.25 20.0303C0.25 20.2292 0.329018 20.4199 0.46967 20.5606C0.610322 20.7013 0.801088 20.7803 1 20.7803H2C2.19891 20.7803 2.38968 20.7013 2.53033 20.5606C2.67098 20.4199 2.75 20.2292 2.75 20.0303C2.75 19.8314 2.67098 19.6406 2.53033 19.4999C2.38968 19.3593 2.19891 19.2803 2 19.2803Z" fill="#4C2399"/>
<path d="M17.45 2.72019H6.7V1.72019C6.70265 1.51628 6.66477 1.31387 6.58856 1.12471C6.51236 0.935555 6.39934 0.763418 6.25608 0.618291C6.11281 0.473164 5.94215 0.357936 5.75399 0.279296C5.56583 0.200657 5.36393 0.16017 5.16 0.160188H1.58C1.37442 0.154846 1.16986 0.190733 0.978376 0.26573C0.786893 0.340727 0.612371 0.453316 0.465105 0.596853C0.317839 0.740391 0.200813 0.91197 0.120931 1.10147C0.0410498 1.29096 -6.92939e-05 1.49454 8.76558e-08 1.70019L8.76558e-08 14.5002C0.0038651 14.7029 0.0479617 14.9027 0.129728 15.0882C0.211495 15.2737 0.329301 15.4411 0.476304 15.5806C0.623308 15.7202 0.796577 15.8291 0.986047 15.9012C1.17552 15.9732 1.37741 16.0068 1.58 16.0002H9V19.2502H5C4.80109 19.2502 4.61032 19.3292 4.46967 19.4699C4.32902 19.6105 4.25 19.8013 4.25 20.0002C4.25 20.1991 4.32902 20.3899 4.46967 20.5305C4.61032 20.6712 4.80109 20.7502 5 20.7502H11.5C11.6989 20.7502 11.8897 20.6712 12.0303 20.5305C12.171 20.3899 12.25 20.1991 12.25 20.0002C12.25 19.8013 12.171 19.6105 12.0303 19.4699C11.8897 19.3292 11.6989 19.2502 11.5 19.2502H10.5V16.0002H13.6C13.8212 15.7184 14.0966 15.4837 14.41 15.3102V15.0002C14.4078 13.7546 14.8819 12.5554 15.7353 11.6481C16.5887 10.7408 17.7567 10.1942 19 10.1202V4.26019C19 4.05711 18.9598 3.85603 18.8818 3.66854C18.8038 3.48104 18.6895 3.31083 18.5454 3.16769C18.4014 3.02456 18.2304 2.91133 18.0424 2.83453C17.8544 2.75773 17.6531 2.71887 17.45 2.72019Z" fill="#4C2399"/>
<path d="M22.9099 16.5401H22.6199V15.0001C22.6199 14.109 22.2659 13.2544 21.6357 12.6243C21.0056 11.9941 20.151 11.6401 19.2599 11.6401C18.3687 11.6401 17.5141 11.9941 16.884 12.6243C16.2539 13.2544 15.8999 14.109 15.8999 15.0001V16.5701H15.6099C15.3446 16.5701 15.0903 16.6755 14.9028 16.863C14.7152 17.0506 14.6099 17.3049 14.6099 17.5701V22.8001C14.6099 23.0654 14.7152 23.3197 14.9028 23.5072C15.0903 23.6948 15.3446 23.8001 15.6099 23.8001H22.9099C23.0453 23.8069 23.1808 23.7861 23.3079 23.7389C23.4351 23.6917 23.5513 23.6191 23.6495 23.5255C23.7477 23.432 23.8259 23.3194 23.8793 23.1947C23.9326 23.07 23.96 22.9358 23.9599 22.8001V17.5801C23.9656 17.4412 23.9423 17.3025 23.8914 17.1731C23.8406 17.0436 23.7632 16.9262 23.6644 16.8284C23.5656 16.7305 23.4475 16.6543 23.3175 16.6047C23.1876 16.555 23.0488 16.5331 22.9099 16.5401ZM17.3999 15.0001C17.3999 14.5068 17.5958 14.0337 17.9446 13.6849C18.2935 13.3361 18.7666 13.1401 19.2599 13.1401C19.7532 13.1401 20.2263 13.3361 20.5751 13.6849C20.9239 14.0337 21.1199 14.5068 21.1199 15.0001V16.5701H17.3999V15.0001ZM19.2599 21.2601C19.0621 21.2601 18.8687 21.2015 18.7043 21.0916C18.5398 20.9817 18.4117 20.8255 18.336 20.6428C18.2603 20.4601 18.2405 20.259 18.2791 20.065C18.3177 19.8711 18.4129 19.6929 18.5528 19.553C18.6926 19.4132 18.8708 19.3179 19.0648 19.2794C19.2588 19.2408 19.4598 19.2606 19.6425 19.3363C19.8253 19.4119 19.9815 19.5401 20.0913 19.7046C20.2012 19.869 20.2599 20.0624 20.2599 20.2601C20.2521 20.5201 20.1433 20.7668 19.9566 20.9479C19.7699 21.129 19.52 21.2303 19.2599 21.2301V21.2601Z" fill="#4C2399"/>
</g>
<defs>
<clipPath id="clip0_177_5564">
<rect width="24" height="24" fill="white"/>
</clipPath>
</defs>
</svg>
