<svg width="48" height="48" viewBox="0 0 48 48" fill="none" xmlns="http://www.w3.org/2000/svg">
<rect width="48" height="48" rx="6" fill="#F2EFFC"/>
<path d="M39.6504 34C40.3314 30.8459 40.0126 27.5621 38.7372 24.5921C37.4618 21.622 35.2911 19.1089 32.5184 17.3922L29.0876 22.762C30.7436 23.7874 32.04 25.2883 32.8018 27.0622C33.5635 28.836 33.7539 30.7973 33.3472 32.6811L39.6504 34Z" fill="#4C2399"/>
<path d="M8.34965 34C7.66891 30.8473 7.98709 27.5648 9.26122 24.5957C10.5354 21.6266 12.7041 19.1138 15.4748 17.3964L18.9083 22.7646C17.2535 23.7903 15.9582 25.2911 15.1973 27.0644C14.4363 28.8377 14.2463 30.7981 14.6528 32.6811L8.34965 34Z" fill="#4C2399"/>
<path d="M31.4273 16.7999C29.153 15.6265 26.6252 15.0092 24.0575 15.0001C21.4898 14.991 18.9576 15.5904 16.6748 16.7477L19.625 22.3875C20.9884 21.6963 22.5008 21.3383 24.0343 21.3437C25.5679 21.3492 27.0776 21.7179 28.4359 22.4187L31.4273 16.7999Z" fill="#4C2399"/>
<path d="M24.842 31.5752L23.3507 29.3198L30.5653 26.3025L24.842 31.5752Z" fill="#4C2399"/>
<path d="M24.7072 31.6616C24.0745 32.067 23.2278 31.8907 22.816 31.2679C22.4042 30.6451 22.5833 29.8115 23.2159 29.4061C23.8486 29.0008 24.6953 29.177 25.1071 29.7998C25.5189 30.4227 25.3399 31.2562 24.7072 31.6616Z" fill="#4C2399"/>
</svg>
