<svg width="24" height="24" viewBox="0 0 24 24" fill="none" xmlns="http://www.w3.org/2000/svg">
<path d="M0.5 18C0.5 18.5304 0.710714 19.0391 1.08579 19.4142C1.46086 19.7893 1.96957 20 2.5 20H21.5C22.0304 20 22.5391 19.7893 22.9142 19.4142C23.2893 19.0391 23.5 18.5304 23.5 18V9.5C23.5 9.4337 23.4737 9.37011 23.4268 9.32322C23.3799 9.27634 23.3163 9.25 23.25 9.25H0.75C0.683696 9.25 0.620107 9.27634 0.573223 9.32322C0.526339 9.37011 0.5 9.4337 0.5 9.5V18ZM17 15.75H20C20.1989 15.75 20.3897 15.829 20.5303 15.9697C20.671 16.1103 20.75 16.3011 20.75 16.5C20.75 16.6989 20.671 16.8897 20.5303 17.0303C20.3897 17.171 20.1989 17.25 20 17.25H17C16.8011 17.25 16.6103 17.171 16.4697 17.0303C16.329 16.8897 16.25 16.6989 16.25 16.5C16.25 16.3011 16.329 16.1103 16.4697 15.9697C16.6103 15.829 16.8011 15.75 17 15.75ZM4.5 11.75H12.5C12.6989 11.75 12.8897 11.829 13.0303 11.9697C13.171 12.1103 13.25 12.3011 13.25 12.5C13.25 12.6989 13.171 12.8897 13.0303 13.0303C12.8897 13.171 12.6989 13.25 12.5 13.25H4.5C4.30109 13.25 4.11032 13.171 3.96967 13.0303C3.82902 12.8897 3.75 12.6989 3.75 12.5C3.75 12.3011 3.82902 12.1103 3.96967 11.9697C4.11032 11.829 4.30109 11.75 4.5 11.75ZM4.5 15.75H7.5C7.69891 15.75 7.88968 15.829 8.03033 15.9697C8.17098 16.1103 8.25 16.3011 8.25 16.5C8.25 16.6989 8.17098 16.8897 8.03033 17.0303C7.88968 17.171 7.69891 17.25 7.5 17.25H4.5C4.30109 17.25 4.11032 17.171 3.96967 17.0303C3.82902 16.8897 3.75 16.6989 3.75 16.5C3.75 16.3011 3.82902 16.1103 3.96967 15.9697C4.11032 15.829 4.30109 15.75 4.5 15.75Z" fill="#4C2399"/>
<path d="M23.5 6C23.5 5.46957 23.2893 4.96086 22.9142 4.58579C22.5391 4.21071 22.0304 4 21.5 4H2.5C1.96957 4 1.46086 4.21071 1.08579 4.58579C0.710714 4.96086 0.5 5.46957 0.5 6V7.5C0.5 7.5663 0.526339 7.62989 0.573223 7.67678C0.620107 7.72366 0.683696 7.75 0.75 7.75H23.25C23.3163 7.75 23.3799 7.72366 23.4268 7.67678C23.4737 7.62989 23.5 7.5663 23.5 7.5V6Z" fill="#4C2399"/>
</svg>
