<svg width="24" height="24" viewBox="0 0 24 24" fill="none" xmlns="http://www.w3.org/2000/svg">
<path d="M9 8H15C15.2652 8 15.5196 7.89464 15.7071 7.70711C15.8946 7.51957 16 7.26522 16 7C16 6.73478 15.8946 6.48043 15.7071 6.29289C15.5196 6.10536 15.2652 6 15 6H9C8.73478 6 8.48043 6.10536 8.29289 6.29289C8.10536 6.48043 8 6.73478 8 7C8 7.26522 8.10536 7.51957 8.29289 7.70711C8.48043 7.89464 8.73478 8 9 8Z" fill="#4C2399"/>
<path d="M9.47003 4.4999C9.48477 4.62186 9.54389 4.73412 9.63611 4.81527C9.72833 4.89642 9.84719 4.94079 9.97003 4.9399H14C14.1223 4.93866 14.24 4.89355 14.3318 4.81279C14.4235 4.73203 14.4833 4.62099 14.5 4.4999C14.7193 3.43676 15.1256 2.42099 15.7 1.4999C15.753 1.41052 15.7749 1.3061 15.7622 1.20297C15.7495 1.09984 15.7031 1.00381 15.63 0.9299C15.5697 0.850455 15.487 0.790864 15.3926 0.758787C15.2981 0.726711 15.1963 0.723616 15.1 0.7499L13.24 1.5499C13.2088 1.56496 13.1747 1.57278 13.14 1.57278C13.1054 1.57278 13.0712 1.56496 13.04 1.5499C12.978 1.52681 12.9276 1.48006 12.9 1.4199L12.46 0.3099C12.4216 0.219705 12.3575 0.142796 12.2757 0.0887385C12.1939 0.0346806 12.0981 0.00585938 12 0.00585938C11.902 0.00585937 11.8061 0.0346806 11.7243 0.0887385C11.6425 0.142796 11.5785 0.219705 11.54 0.3099L11.1 1.4199C11.0724 1.48006 11.0221 1.52681 10.96 1.5499C10.9288 1.56496 10.8947 1.57278 10.86 1.57278C10.8254 1.57278 10.7912 1.56496 10.76 1.5499L8.90003 0.7499C8.80465 0.711321 8.6997 0.703104 8.59948 0.726369C8.49926 0.749634 8.40866 0.803249 8.34003 0.8799C8.267 0.953809 8.22052 1.04984 8.20785 1.15297C8.19519 1.2561 8.21705 1.36052 8.27003 1.4499C8.84995 2.38625 9.25644 3.41942 9.47003 4.4999Z" fill="#4C2399"/>
<path d="M15.44 9.12004C15.3369 9.0408 15.2101 8.99854 15.08 9.00004H8.92003C8.78997 8.99854 8.66318 9.0408 8.56003 9.12004C6.01003 11.12 3.16003 14.52 3.16003 17.52C3.16003 21.75 5.52003 24 12 24C18.48 24 20.84 21.75 20.84 17.52C20.84 14.52 18 11.07 15.44 9.12004ZM14 14.24H14.84C15.0389 14.24 15.2297 14.3191 15.3704 14.4597C15.511 14.6004 15.59 14.7911 15.59 14.99C15.59 15.189 15.511 15.3797 15.3704 15.5204C15.2297 15.661 15.0389 15.74 14.84 15.74H14C13.8421 16.4004 13.4813 16.9946 12.9684 17.4394C12.4554 17.8842 11.8161 18.1572 11.14 18.22L12.87 20C13.0105 20.1407 13.0894 20.3313 13.0894 20.53C13.0894 20.7288 13.0105 20.9194 12.87 21.06C12.7294 21.2005 12.5388 21.2794 12.34 21.2794C12.1413 21.2794 11.9507 21.2005 11.81 21.06L8.81003 18.06C8.70528 17.9552 8.63395 17.8216 8.60507 17.6762C8.57618 17.5308 8.59104 17.3801 8.64775 17.2431C8.70446 17.1062 8.80049 16.9891 8.9237 16.9066C9.04692 16.8242 9.19179 16.7802 9.34003 16.78H10.84C11.171 16.7798 11.4951 16.6858 11.7748 16.5088C12.0545 16.3318 12.2782 16.0791 12.42 15.78H10.84C10.6411 15.78 10.4504 15.701 10.3097 15.5604C10.1691 15.4197 10.09 15.229 10.09 15.03C10.09 14.8311 10.1691 14.6404 10.3097 14.4997C10.4504 14.3591 10.6411 14.28 10.84 14.28H12.42C12.2782 13.981 12.0545 13.7283 11.7748 13.5513C11.4951 13.3743 11.171 13.2803 10.84 13.28H9.34003C9.14112 13.28 8.95036 13.201 8.8097 13.0604C8.66905 12.9197 8.59003 12.729 8.59003 12.53C8.59003 12.3311 8.66905 12.1404 8.8097 11.9997C8.95036 11.8591 9.14112 11.78 9.34003 11.78H14.84C15.0389 11.78 15.2297 11.8591 15.3704 11.9997C15.511 12.1404 15.59 12.3311 15.59 12.53C15.59 12.729 15.511 12.9197 15.3704 13.0604C15.2297 13.201 15.0389 13.28 14.84 13.28H13.58C13.7723 13.5745 13.9143 13.899 14 14.24Z" fill="#4C2399"/>
</svg>
