<svg width="24" height="24" viewBox="0 0 24 24" fill="none" xmlns="http://www.w3.org/2000/svg">
<g clip-path="url(#clip0_177_5592)">
<path d="M23 10H21C20.8905 9.99939 20.7843 9.96285 20.6976 9.89601C20.6108 9.82917 20.5485 9.73572 20.52 9.63C20.3857 9.07499 20.2119 8.53027 20 8C19.9651 7.90721 19.9568 7.80648 19.9763 7.70926C19.9957 7.61203 20.0421 7.52221 20.11 7.45L21.55 6C21.7362 5.81264 21.8408 5.55919 21.8408 5.295C21.8408 5.03081 21.7362 4.77736 21.55 4.59L19.42 2.45C19.2326 2.26375 18.9792 2.15921 18.715 2.15921C18.4508 2.15921 18.1974 2.26375 18.01 2.45L16.57 3.89C16.4974 3.96412 16.404 4.01436 16.3022 4.03401C16.2003 4.05367 16.0949 4.0418 16 4C15.4608 3.77654 14.906 3.59272 14.34 3.45C14.2446 3.41792 14.1612 3.3578 14.1005 3.27752C14.0398 3.19723 14.0048 3.10051 14 3V1C14 0.734784 13.8946 0.48043 13.7071 0.292893C13.5196 0.105357 13.2652 0 13 0L11 0C10.7348 0 10.4804 0.105357 10.2929 0.292893C10.1054 0.48043 10 0.734784 10 1V3C9.99939 3.10948 9.96285 3.21574 9.89601 3.30245C9.82917 3.38916 9.73572 3.45154 9.63 3.48C9.07499 3.61433 8.53027 3.7881 8 4C7.90721 4.03495 7.80648 4.04316 7.70926 4.02372C7.61203 4.00427 7.52221 3.95795 7.45 3.89L6 2.45C5.81264 2.26375 5.55919 2.15921 5.295 2.15921C5.03081 2.15921 4.77736 2.26375 4.59 2.45L2.45 4.58C2.35627 4.67296 2.28188 4.78356 2.23111 4.90542C2.18034 5.02728 2.1542 5.15799 2.1542 5.29C2.1542 5.42201 2.18034 5.55272 2.23111 5.67458C2.28188 5.79644 2.35627 5.90704 2.45 6L3.89 7.42C3.96379 7.49487 4.01364 7.58999 4.03323 7.69327C4.05282 7.79654 4.04125 7.90331 4 8C3.77654 8.53922 3.59272 9.09403 3.45 9.66C3.41792 9.75537 3.3578 9.83885 3.27752 9.89951C3.19723 9.96017 3.10051 9.99519 3 10H1C0.734784 10 0.48043 10.1054 0.292893 10.2929C0.105357 10.4804 0 10.7348 0 11L0 13C0 13.2652 0.105357 13.5196 0.292893 13.7071C0.48043 13.8946 0.734784 14 1 14H3C3.10948 14.0006 3.21574 14.0371 3.30245 14.104C3.38916 14.1708 3.45154 14.2643 3.48 14.37C3.61433 14.925 3.7881 15.4697 4 16C4.03495 16.0928 4.04316 16.1935 4.02372 16.2907C4.00427 16.388 3.95795 16.4778 3.89 16.55L2.45 18C2.26375 18.1874 2.15921 18.4408 2.15921 18.705C2.15921 18.9692 2.26375 19.2226 2.45 19.41L4.58 21.54C4.76736 21.7263 5.02081 21.8308 5.285 21.8308C5.54919 21.8308 5.80264 21.7263 5.99 21.54L7.42 20.1C7.49449 20.0254 7.59026 19.9758 7.69412 19.9579C7.79798 19.94 7.90484 19.9547 8 20C8.53922 20.2235 9.09403 20.4073 9.66 20.55C9.75537 20.5821 9.83885 20.6422 9.89951 20.7225C9.96017 20.8028 9.99519 20.8995 10 21V23C10 23.2652 10.1054 23.5196 10.2929 23.7071C10.4804 23.8946 10.7348 24 11 24H13C13.2652 24 13.5196 23.8946 13.7071 23.7071C13.8946 23.5196 14 23.2652 14 23V21C14.0006 20.8905 14.0371 20.7843 14.104 20.6976C14.1708 20.6108 14.2643 20.5485 14.37 20.52C14.925 20.3857 15.4697 20.2119 16 20C16.0911 19.9647 16.1904 19.9563 16.2861 19.9758C16.3819 19.9953 16.47 20.0419 16.54 20.11L18 21.55C18.1874 21.7362 18.4408 21.8408 18.705 21.8408C18.9692 21.8408 19.2226 21.7362 19.41 21.55L21.54 19.42C21.7263 19.2326 21.8308 18.9792 21.8308 18.715C21.8308 18.4508 21.7263 18.1974 21.54 18.01L20.1 16.58C20.0279 16.504 19.9799 16.4084 19.9621 16.3052C19.9443 16.2019 19.9575 16.0957 20 16C20.2235 15.4608 20.4073 14.906 20.55 14.34C20.5821 14.2446 20.6422 14.1612 20.7225 14.1005C20.8028 14.0398 20.8995 14.0048 21 14H23C23.2652 14 23.5196 13.8946 23.7071 13.7071C23.8946 13.5196 24 13.2652 24 13V11C24 10.7348 23.8946 10.4804 23.7071 10.2929C23.5196 10.1054 23.2652 10 23 10ZM17.48 14.82C17.3606 14.8957 17.2213 14.934 17.08 14.93C16.9548 14.9313 16.8313 14.9007 16.7211 14.8413C16.611 14.7818 16.5177 14.6953 16.45 14.59L16.13 14.09L11.79 15.44C12.03 16.03 12.12 16.06 12.6 16.23C12.7689 16.2875 12.9118 16.4033 13.003 16.5566C13.0943 16.7099 13.1278 16.8908 13.0977 17.0666C13.0676 17.2425 12.9758 17.4019 12.8387 17.5161C12.7017 17.6304 12.5284 17.692 12.35 17.69C12.2673 17.7044 12.1827 17.7044 12.1 17.69C11.02 17.3 10.81 17.09 10.36 15.93L8.3 16.58H8.15C8.06634 16.5799 7.98405 16.5587 7.91068 16.5185C7.8373 16.4784 7.77518 16.4204 7.73 16.35L7.12 15.35C7.05971 15.2653 7.02731 15.164 7.02731 15.06C7.02731 14.956 7.05971 14.8547 7.12 14.77L12.34 8.14L11.89 7.44C11.7839 7.27159 11.7491 7.06793 11.7931 6.87383C11.8372 6.67973 11.9566 6.51109 12.125 6.405C12.2934 6.29891 12.4971 6.26407 12.6912 6.30814C12.8853 6.35222 13.0539 6.47159 13.16 6.64L17.68 13.76C17.7382 13.8422 17.7792 13.9352 17.8006 14.0335C17.8221 14.1319 17.8235 14.2335 17.8049 14.3324C17.7862 14.4313 17.7478 14.5255 17.692 14.6093C17.6362 14.693 17.5641 14.7647 17.48 14.82Z" fill="#4C2399"/>
</g>
<defs>
<clipPath id="clip0_177_5592">
<rect width="24" height="24" fill="white"/>
</clipPath>
</defs>
</svg>
