<svg width="24" height="24" viewBox="0 0 24 24" fill="none" xmlns="http://www.w3.org/2000/svg">
<g clip-path="url(#clip0_4020_1436)">
<path d="M11.9999 1.27609e-05C11.2258 -0.0019647 10.4684 0.225923 9.82391 0.654798C9.17938 1.08367 8.67668 1.69423 8.3795 2.4091C8.08233 3.12396 8.00405 3.91096 8.1546 4.67035C8.30515 5.42975 8.67775 6.12736 9.22517 6.67479C9.7726 7.22221 10.4702 7.59481 11.2296 7.74536C11.989 7.89591 12.776 7.81763 13.4909 7.52046C14.2057 7.22328 14.8163 6.72057 15.2452 6.07605C15.674 5.43152 15.9019 4.67419 15.8999 3.90001C15.8973 2.86648 15.4856 1.87603 14.7547 1.14521C14.0239 0.414392 13.0335 0.0026527 11.9999 1.27609e-05ZM11.9999 6.31001C11.5733 6.30467 11.1558 6.18568 10.7904 5.9653C10.4251 5.74493 10.125 5.43113 9.9213 5.05623C9.71755 4.68134 9.61743 4.25891 9.63126 3.83245C9.64508 3.40599 9.77235 2.99092 9.99994 2.63001C10.5395 3.25029 11.2043 3.74922 11.9507 4.09394C12.697 4.43867 13.5079 4.62137 14.3299 4.63001C14.1733 5.12302 13.8622 5.55254 13.4426 5.85508C13.023 6.15762 12.5172 6.31713 11.9999 6.31001Z" fill="#4C2399"/>
<path d="M17.76 13.0002C17.3965 11.7539 16.6386 10.6591 15.6 9.88018C14.5614 9.10124 13.2982 8.68018 12 8.68018C10.7018 8.68018 9.43857 9.10124 8.39999 9.88018C7.36141 10.6591 6.60349 11.7539 6.23999 13.0002H17.76Z" fill="#4C2399"/>
<path d="M4.12 15.84C3.83321 16.034 3.62848 16.3274 3.54537 16.6636C3.46226 16.9997 3.50666 17.3547 3.67 17.66L5 19.88C5.03424 19.9356 5.05702 19.9975 5.06701 20.062C5.07699 20.1266 5.07398 20.1924 5.05814 20.2558C5.0423 20.3191 5.01396 20.3787 4.97478 20.4309C4.93561 20.4832 4.88638 20.5271 4.83 20.56C4.77362 20.5945 4.71097 20.6174 4.64567 20.6275C4.58037 20.6377 4.51371 20.6347 4.44954 20.6189C4.38538 20.6031 4.32499 20.5747 4.27186 20.5354C4.21872 20.4962 4.17391 20.4467 4.14 20.39L2.79 18.14C2.58974 17.7522 2.49624 17.3182 2.51908 16.8824C2.54193 16.4466 2.6803 16.0247 2.92 15.66C2.9718 15.5758 2.99948 15.4789 3 15.38V12.5C3 12.1022 2.84196 11.7206 2.56066 11.4393C2.27936 11.158 1.89782 11 1.5 11C1.10218 11 0.720644 11.158 0.43934 11.4393C0.158035 11.7206 5.92805e-09 12.1022 0 12.5L0 17.67C0.00420026 18.6931 0.356918 19.6842 1 20.48L3.66 23.81C3.70067 23.8632 3.75183 23.9076 3.81031 23.9402C3.86879 23.9729 3.93335 23.9933 4 24H8C8.13261 24 8.25979 23.9473 8.35355 23.8536C8.44732 23.7598 8.5 23.6326 8.5 23.5V20.5C8.50193 19.6095 8.23724 18.7388 7.74 18C5.86 16 5.27 15.07 4.12 15.84Z" fill="#4C2399"/>
<path d="M22.5 11C22.1022 11 21.7207 11.158 21.4394 11.4393C21.158 11.7206 21 12.1022 21 12.5V15.38C21.0005 15.4789 21.0282 15.5758 21.08 15.66C21.3197 16.0247 21.4581 16.4466 21.4809 16.8824C21.5038 17.3182 21.4103 17.7522 21.21 18.14L19.86 20.39C19.8261 20.4467 19.7813 20.4962 19.7282 20.5354C19.675 20.5747 19.6146 20.6031 19.5505 20.6189C19.4863 20.6347 19.4196 20.6377 19.3543 20.6275C19.289 20.6174 19.2264 20.5945 19.17 20.56C19.1136 20.5271 19.0644 20.4832 19.0252 20.4309C18.986 20.3787 18.9577 20.3191 18.9419 20.2558C18.926 20.1924 18.923 20.1266 18.933 20.062C18.943 19.9975 18.9658 19.9356 19 19.88L20.33 17.66C20.4933 17.3547 20.5377 16.9997 20.4546 16.6636C20.3715 16.3274 20.1668 16.034 19.88 15.84C18.73 15.07 18.14 16.02 16.26 17.99C15.7628 18.7288 15.4981 19.5995 15.5 20.49V23.49C15.5 23.6226 15.5527 23.7498 15.6465 23.8436C15.7402 23.9373 15.8674 23.99 16 23.99H20C20.0752 23.9904 20.1496 23.9735 20.2172 23.9405C20.2848 23.9076 20.344 23.8595 20.39 23.8L23 20.48C23.6431 19.6842 23.9958 18.6931 24 17.67V12.5C24 12.1022 23.842 11.7206 23.5607 11.4393C23.2794 11.158 22.8978 11 22.5 11Z" fill="#4C2399"/>
</g>
<defs>
<clipPath id="clip0_4020_1436">
<rect width="24" height="24" fill="white"/>
</clipPath>
</defs>
</svg>
