<svg width="24" height="24" viewBox="0 0 24 24" fill="none" xmlns="http://www.w3.org/2000/svg">
<path fill-rule="evenodd" clip-rule="evenodd" d="M19.248 3.64281C19.4736 3.50351 19.7452 3.45949 20.0033 3.52043C20.2613 3.58138 20.4846 3.7423 20.624 3.96781L23.709 8.96281C23.8126 9.13101 23.864 9.32613 23.8569 9.52356C23.8497 9.72098 23.7842 9.91186 23.6687 10.0721C23.5532 10.2324 23.3928 10.3548 23.2077 10.424C23.0227 10.4931 22.8213 10.506 22.629 10.4608L19.619 9.74881L18.668 13.5438L18.665 13.5538C18.1496 15.544 16.9878 17.3066 15.3621 18.5649C13.7364 19.8232 11.7388 20.5059 9.68297 20.5058H1.39197C1.06045 20.5058 0.742505 20.3741 0.508084 20.1397C0.273664 19.9053 0.141968 19.5873 0.141968 19.2558C0.141968 18.9243 0.273664 18.6063 0.508084 18.3719C0.742505 18.1375 1.06045 18.0058 1.39197 18.0058H9.68297C11.184 18.0055 12.6424 17.5071 13.8296 16.5886C15.0169 15.6701 15.8657 14.3836 16.243 12.9308L17.185 9.17381L14.549 8.54981C14.3565 8.50426 14.1819 8.40266 14.0472 8.25787C13.9125 8.11308 13.8237 7.93159 13.7921 7.73636C13.7606 7.54113 13.7876 7.34092 13.8698 7.16104C13.952 6.98117 14.0857 6.82971 14.254 6.72581L19.248 3.64281Z" fill="#4C2399"/>
</svg>
