<svg width="25" height="24" viewBox="0 0 25 24" fill="none" xmlns="http://www.w3.org/2000/svg">
<path d="M24.1001 21.7095H14.8816C13.9809 18.7955 13.5306 15.7757 13.5306 12.6499C13.5306 9.47104 14.3518 6.95449 15.9941 5.10018C17.6895 3.1929 20.1796 2.23926 23.4643 2.23926V6.68959C20.8153 6.68959 19.4908 8.30548 19.4908 11.5373V13.0472H24.1001V21.7095ZM10.6696 21.7095H1.45109C0.550429 18.7955 0.100098 15.7757 0.100098 12.6499C0.100098 9.47104 0.921289 6.95449 2.56367 5.10018C4.25904 3.1929 6.7491 2.23926 10.0339 2.23926V6.68959C7.38487 6.68959 6.06036 8.30548 6.06036 11.5373V13.0472H10.6696V21.7095Z" fill="#4C2399"/>
</svg>
