<svg width="39" height="39" viewBox="0 0 39 39" fill="none" xmlns="http://www.w3.org/2000/svg">
<path d="M17.3222 20.3459C17.2497 20.3459 15.7297 20.3464 15.0286 20.3457C14.6677 20.3454 14.5389 20.2158 14.5389 19.8525C14.5384 18.9195 14.5382 17.9865 14.5389 17.0535C14.5391 16.6949 14.6753 16.5581 15.0316 16.5578C15.7327 16.5574 17.2444 16.5576 17.3222 16.5576C17.3222 16.4937 17.322 15.1467 17.3222 14.5264C17.3227 13.6093 17.4863 12.7315 17.9522 11.9277C18.4292 11.105 19.1233 10.5415 20.013 10.2156C20.5827 10.0068 21.1742 9.92346 21.7788 9.92299C22.5353 9.92253 23.2917 9.92322 24.0484 9.92461C24.3736 9.92507 24.5178 10.0688 24.5185 10.3963C24.5199 11.2739 24.5199 12.1515 24.5185 13.0289C24.518 13.3598 24.3798 13.4928 24.0473 13.4965C23.4272 13.5031 22.8067 13.499 22.1873 13.5239C21.5617 13.5239 21.2326 13.8295 21.2326 14.477C21.2176 15.1619 21.2263 15.8475 21.2263 16.5574C21.285 16.5574 23.0653 16.5571 23.8975 16.5574C24.2755 16.5574 24.4047 16.6873 24.4047 17.0674C24.4047 17.9953 24.4045 18.9234 24.4038 19.8514C24.4036 20.2259 24.2822 20.3454 23.9019 20.3457C23.0697 20.3461 21.2963 20.3459 21.2187 20.3459V27.8563C21.2187 28.2567 21.0927 28.3843 20.6977 28.3843C19.7344 28.3843 18.771 28.3845 17.8077 28.3843C17.4586 28.3843 17.3224 28.2486 17.3224 27.8994C17.3222 25.4535 17.3222 20.4318 17.3222 20.3459Z" fill="white"/>
</svg>
