<svg width="20" height="20" viewBox="0 0 20 20" fill="none" xmlns="http://www.w3.org/2000/svg">
<path d="M9.9991 6.66293C9.88942 6.6623 9.78071 6.68332 9.67917 6.72479C9.57764 6.76626 9.4853 6.82736 9.40743 6.9046L4.40743 11.9046C4.25051 12.0615 4.16235 12.2743 4.16235 12.4963C4.16235 12.7182 4.25051 12.931 4.40743 13.0879C4.56435 13.2449 4.77718 13.333 4.9991 13.333C5.22101 13.333 5.43384 13.2449 5.59076 13.0879L9.9991 8.67126L14.4074 13.0796C14.5668 13.2161 14.7719 13.2875 14.9816 13.2794C15.1914 13.2713 15.3903 13.1843 15.5387 13.0359C15.6871 12.8875 15.7741 12.6885 15.7822 12.4788C15.7903 12.2691 15.719 12.064 15.5824 11.9046L10.5824 6.9046C10.4272 6.75064 10.2177 6.66385 9.9991 6.66293Z" fill="#374151"/>
</svg>
