<svg width="24" height="24" viewBox="0 0 24 24" fill="none" xmlns="http://www.w3.org/2000/svg">
<g clip-path="url(#clip0_177_5601)">
<path d="M23.3701 3.31997L15.8701 0.319974H15.7901H15.7301C15.6046 0.295686 15.4756 0.295686 15.3501 0.319974L0.830106 2.75997C0.595312 2.80045 0.382686 2.92343 0.230519 3.10677C0.0783513 3.2901 -0.00335795 3.52174 0.000105768 3.75997V7.25997C0.000105768 7.52519 0.105463 7.77954 0.292999 7.96708C0.480535 8.15462 0.734889 8.25997 1.00011 8.25997H1.07011L15.4701 7.25997L22.8701 8.25997H23.0001C23.2445 8.25687 23.4793 8.16438 23.6601 7.99997C23.7668 7.90626 23.8523 7.79091 23.9109 7.6616C23.9695 7.53228 23.9999 7.39196 24.0001 7.24997V4.24997C24.0003 4.0497 23.9403 3.85397 23.828 3.68816C23.7157 3.52234 23.5562 3.39408 23.3701 3.31997ZM2.00011 4.58997L14.5001 2.43997V5.31997L2.00011 6.17997V4.58997Z" fill="#4C2399"/>
<path d="M23.13 9.75977L15.63 8.75977H15.54H15.43L0.930003 9.75977C0.677102 9.77751 0.440381 9.89065 0.267728 10.0763C0.0950759 10.2619 -0.000618829 10.5062 3.01171e-06 10.7598V13.7598C-0.000618829 14.0133 0.0950759 14.2576 0.267728 14.4432C0.440381 14.6289 0.677102 14.742 0.930003 14.7598L15.43 15.7598H15.63L23.13 14.7598C23.3721 14.728 23.5942 14.6088 23.7545 14.4246C23.9147 14.2404 24.0021 14.0039 24 13.7598V10.7598C24.0021 10.5156 23.9147 10.2791 23.7545 10.0949C23.5942 9.91071 23.3721 9.7915 23.13 9.75977ZM2 11.6798L14.5 10.8198V13.6798L2 12.8198V11.6798Z" fill="#4C2399"/>
<path d="M22.8701 16.2602L15.4701 17.2602L1.07011 16.2602C0.933261 16.2513 0.796063 16.2708 0.66704 16.3172C0.538017 16.3637 0.419926 16.4361 0.320106 16.5302C0.219569 16.6234 0.139281 16.7363 0.0842314 16.8619C0.0291819 16.9875 0.000546863 17.123 0.000105768 17.2602V20.2602C-0.00335795 20.4984 0.0783513 20.73 0.230519 20.9134C0.382686 21.0967 0.595312 21.2197 0.830106 21.2602L15.3301 23.7602H15.5001C15.6086 23.7582 15.7162 23.7413 15.8201 23.7102L23.3001 21.2202C23.4987 21.1531 23.6712 21.0253 23.7933 20.8548C23.9153 20.6843 23.9806 20.4798 23.9801 20.2702V17.2702C23.9799 17.1282 23.9495 16.9879 23.8909 16.8585C23.8323 16.7292 23.7468 16.6139 23.6401 16.5202C23.5371 16.4253 23.4153 16.3532 23.2827 16.3084C23.1501 16.2636 23.0095 16.2472 22.8701 16.2602ZM2.00011 18.3202L14.5001 19.1802V21.5602L2.00011 19.4102V18.3202Z" fill="#4C2399"/>
</g>
<defs>
<clipPath id="clip0_177_5601">
<rect width="24" height="24" fill="white"/>
</clipPath>
</defs>
</svg>
