<svg width="24" height="24" viewBox="0 0 24 24" fill="none" xmlns="http://www.w3.org/2000/svg">
<g clip-path="url(#clip0_4020_1445)">
<path d="M21.11 8.87714C21.0743 8.85621 21.0452 8.82631 21.0258 8.79065C21.0065 8.75499 20.9975 8.71492 21 8.67473C21 6.37405 20.0518 4.1676 18.3639 2.54077C16.6761 0.913942 14.3869 0 12 0C9.61303 0 7.32384 0.913942 5.63602 2.54077C3.94819 4.1676 2.99998 6.37405 2.99998 8.67473C2.99885 8.71906 2.98395 8.76204 2.95721 8.79813C2.93047 8.83421 2.89312 8.86173 2.84998 8.87714C1.89499 9.22941 1.09295 9.88467 0.575945 10.735C0.0589436 11.5853 -0.142186 12.58 0.00568169 13.5552C0.153549 14.5304 0.641596 15.428 1.38944 16.1002C2.13729 16.7723 3.10034 17.179 4.11998 17.2531C4.23176 17.261 4.34404 17.2467 4.44989 17.2112C4.55573 17.1756 4.65288 17.1195 4.73535 17.0464C4.81782 16.9732 4.88385 16.8845 4.92937 16.7858C4.97488 16.6871 4.99891 16.5804 4.99998 16.4724V9.54221C4.99998 7.75279 5.73748 6.03666 7.05023 4.77135C8.36299 3.50604 10.1435 2.79519 12 2.79519C13.8565 2.79519 15.637 3.50604 16.9497 4.77135C18.2625 6.03666 19 7.75279 19 9.54221V16.4724C19.001 16.5804 19.0251 16.6871 19.0706 16.7858C19.1161 16.8845 19.1821 16.9732 19.2646 17.0464C19.3471 17.1195 19.4442 17.1756 19.5501 17.2112C19.6559 17.2467 19.7682 17.261 19.88 17.2531C20.8968 17.1719 21.8548 16.76 22.5969 16.0851C23.339 15.4101 23.821 14.5121 23.964 13.5384C24.107 12.5646 23.9025 11.573 23.3839 10.726C22.8653 9.87909 22.0635 9.22715 21.11 8.87714Z" fill="#4C2399"/>
<path d="M7 12.4336C7 13.7117 7.52678 14.9375 8.46447 15.8413C9.40215 16.7451 10.6739 17.2529 12 17.2529C13.3261 17.2529 14.5979 16.7451 15.5355 15.8413C16.4732 14.9375 17 13.7117 17 12.4336C17 11.1554 16.4732 9.92959 15.5355 9.0258C14.5979 8.122 13.3261 7.61426 12 7.61426C10.6739 7.61426 9.40215 8.122 8.46447 9.0258C7.52678 9.92959 7 11.1554 7 12.4336Z" fill="#4C2399"/>
<path d="M11.9999 18.6987C10.3732 18.7045 8.77823 19.1327 7.38273 19.9384C5.98722 20.7441 4.84282 21.8974 4.06992 23.2771C4.02616 23.3501 4.00306 23.433 4.00293 23.5173C4.0028 23.6017 4.02564 23.6846 4.06916 23.7577C4.11269 23.8309 4.17539 23.8918 4.25098 23.9343C4.32657 23.9768 4.41241 23.9994 4.49992 24H19.4999C19.5874 23.9994 19.6733 23.9768 19.7489 23.9343C19.8245 23.8918 19.8872 23.8309 19.9307 23.7577C19.9742 23.6846 19.997 23.6017 19.9969 23.5173C19.9968 23.433 19.9737 23.3501 19.9299 23.2771C19.157 21.8974 18.0126 20.7441 16.6171 19.9384C15.2216 19.1327 13.6266 18.7045 11.9999 18.6987Z" fill="#4C2399"/>
</g>
<defs>
<clipPath id="clip0_4020_1445">
<rect width="24" height="24" fill="white"/>
</clipPath>
</defs>
</svg>
