<svg width="24" height="24" viewBox="0 0 24 24" fill="none" xmlns="http://www.w3.org/2000/svg">
<g clip-path="url(#clip0_177_5092)">
<path d="M6.59245 10.9747L14.6925 14.4997C14.7891 14.5432 14.8939 14.5657 15 14.5657C15.106 14.5657 15.2108 14.5432 15.3075 14.4997L23.4074 10.9747C23.5442 10.9168 23.6607 10.8196 23.7421 10.6954C23.8236 10.5713 23.8663 10.4257 23.865 10.2772C23.8663 10.1287 23.8236 9.98318 23.7421 9.85901C23.6607 9.73484 23.5442 9.63764 23.4074 9.57973L15.3075 6.04723C15.2101 6.00639 15.1055 5.98535 15 5.98535C14.8944 5.98535 14.7898 6.00639 14.6925 6.04723L6.59245 9.57973C6.45451 9.63812 6.33722 9.73648 6.25568 9.86213C6.17414 9.98778 6.13209 10.135 6.13495 10.2847C6.13507 10.4319 6.17852 10.5759 6.25987 10.6986C6.34122 10.8213 6.45689 10.9173 6.59245 10.9747Z" fill="#4C2399"/>
<path d="M6.44245 13.9072L14.55 17.4322C14.6924 17.4922 14.8454 17.5228 15 17.5222C15.1553 17.5232 15.3089 17.4899 15.45 17.4247L23.5575 13.9072C23.67 13.8878 23.7767 13.8429 23.8693 13.776C23.9619 13.7091 24.0379 13.622 24.0917 13.5212C24.1455 13.4204 24.1755 13.3087 24.1795 13.1945C24.1836 13.0803 24.1614 12.9668 24.1149 12.8625C24.0683 12.7581 23.9986 12.6658 23.9109 12.5926C23.8232 12.5194 23.72 12.4671 23.6091 12.4398C23.4981 12.4126 23.3824 12.411 23.2708 12.4352C23.1592 12.4595 23.0546 12.5089 22.965 12.5797L15 16.0147L7.03495 12.5797C6.86225 12.5351 6.67929 12.5535 6.51892 12.6316C6.35854 12.7097 6.23125 12.8424 6.1599 13.0059C6.08854 13.1693 6.07779 13.3529 6.12958 13.5236C6.18136 13.6943 6.29229 13.8409 6.44245 13.9372V13.9072Z" fill="#4C2399"/>
<path d="M22.965 15.6997L15 19.1647L7.03495 15.6997C6.85195 15.6212 6.64524 15.6185 6.46028 15.6923C6.27532 15.7662 6.12727 15.9105 6.0487 16.0935C5.97013 16.2765 5.96748 16.4832 6.04132 16.6682C6.11516 16.8531 6.25945 17.0012 6.44245 17.0797L14.55 20.5747C14.6913 20.639 14.8447 20.6722 15 20.6722C15.1552 20.6722 15.3086 20.639 15.45 20.5747L23.5575 17.0797C23.6625 17.0526 23.7604 17.003 23.8444 16.9343C23.9285 16.8656 23.9966 16.7795 24.0441 16.682C24.0916 16.5844 24.1174 16.4777 24.1196 16.3692C24.1219 16.2607 24.1006 16.153 24.0572 16.0536C24.0138 15.9541 23.9493 15.8653 23.8682 15.7932C23.7871 15.7211 23.6913 15.6674 23.5875 15.6359C23.4837 15.6044 23.3742 15.5958 23.2668 15.6107C23.1593 15.6256 23.0563 15.6637 22.965 15.7222V15.6997Z" fill="#4C2399"/>
<path d="M22.965 18.6997L15 22.1647L7.03495 18.6997C6.85195 18.6212 6.64524 18.6185 6.46028 18.6923C6.27532 18.7662 6.12727 18.9105 6.0487 19.0935C5.97013 19.2765 5.96748 19.4832 6.04132 19.6682C6.11516 19.8531 6.25945 20.0012 6.44245 20.0797L14.55 23.6047C14.6924 23.6647 14.8454 23.6953 15 23.6947C15.1553 23.6957 15.3089 23.6624 15.45 23.5972L23.5575 20.0797C23.7076 19.9834 23.8185 19.8368 23.8703 19.6661C23.9221 19.4954 23.9114 19.3118 23.84 19.1484C23.7687 18.9849 23.6414 18.8522 23.481 18.7741C23.3206 18.696 23.1377 18.6776 22.965 18.7222V18.6997Z" fill="#4C2399"/>
<path d="M7.13991 6.05994C7.30049 6.06083 7.45804 6.01622 7.59431 5.93127C7.73059 5.84632 7.84001 5.72451 7.90991 5.57994C7.97831 5.43822 8.00699 5.28061 7.9929 5.12388C7.97882 4.96715 7.92248 4.81718 7.82991 4.68994L4.67991 0.499937C4.59743 0.397661 4.49309 0.315154 4.37456 0.258469C4.25602 0.201785 4.1263 0.172363 3.99491 0.172363C3.86352 0.172363 3.73379 0.201785 3.61526 0.258469C3.49673 0.315154 3.39239 0.397661 3.30991 0.499937L0.169907 4.68994C0.0773312 4.81718 0.0209997 4.96715 0.00691188 5.12388C-0.00717594 5.28061 0.0215074 5.43822 0.0899075 5.57994C0.159806 5.72451 0.269228 5.84632 0.405502 5.93127C0.541776 6.01622 0.699326 6.06083 0.859907 6.05994H2.74991V10.8299C2.74991 11.1615 2.8816 11.4794 3.11602 11.7138C3.35044 11.9482 3.66839 12.0799 3.99991 12.0799C4.33143 12.0799 4.64937 11.9482 4.88379 11.7138C5.11821 11.4794 5.24991 11.1615 5.24991 10.8299V6.05994H7.13991Z" fill="#4C2399"/>
</g>
<defs>
<clipPath id="clip0_177_5092">
<rect width="24" height="24" fill="white"/>
</clipPath>
</defs>
</svg>
