<svg width="24" height="24" viewBox="0 0 24 24" fill="none" xmlns="http://www.w3.org/2000/svg">
<path d="M22.7343 11.349L12.6508 1.26554C12.5656 1.17962 12.4642 1.11142 12.3525 1.06488C12.2408 1.01835 12.121 0.994385 12 0.994385C11.879 0.994385 11.7592 1.01835 11.6474 1.06488C11.5357 1.11142 11.4344 1.17962 11.3491 1.26554L1.26564 11.349C1.13844 11.4779 1.05228 11.6416 1.01802 11.8195C0.983758 11.9973 1.00294 12.1813 1.07314 12.3482C1.14191 12.5156 1.25869 12.6589 1.40877 12.7601C1.55885 12.8612 1.73551 12.9157 1.91648 12.9166H3.06234C3.12312 12.9166 3.18141 12.9407 3.22438 12.9837C3.26736 13.0267 3.29151 13.085 3.29151 13.1457V22.0834C3.29151 22.3265 3.38809 22.5597 3.56 22.7316C3.73191 22.9035 3.96507 23.0001 4.20819 23.0001H9.47911C9.53989 23.0001 9.59818 22.9759 9.64116 22.9329C9.68413 22.89 9.70828 22.8317 9.70828 22.7709V18.4167C9.70828 17.8089 9.94973 17.226 10.3795 16.7962C10.8093 16.3664 11.3922 16.1249 12 16.1249C12.6078 16.1249 13.1907 16.3664 13.6205 16.7962C14.0502 17.226 14.2917 17.8089 14.2917 18.4167V22.7709C14.2917 22.8317 14.3158 22.89 14.3588 22.9329C14.4018 22.9759 14.4601 23.0001 14.5209 23.0001H19.7918C20.0349 23.0001 20.2681 22.9035 20.44 22.7316C20.6119 22.5597 20.7085 22.3265 20.7085 22.0834V13.1457C20.7085 13.085 20.7326 13.0267 20.7756 12.9837C20.8186 12.9407 20.8769 12.9166 20.9376 12.9166H22.0835C22.2645 12.9157 22.4411 12.8612 22.5912 12.7601C22.7413 12.6589 22.8581 12.5156 22.9268 12.3482C22.997 12.1813 23.0162 11.9973 22.9819 11.8195C22.9477 11.6416 22.8615 11.4779 22.7343 11.349ZM12 11.9999C11.5467 11.9999 11.1036 11.8655 10.7268 11.6137C10.3499 11.3618 10.0562 11.0039 9.88272 10.5852C9.70927 10.1664 9.66389 9.70563 9.75231 9.26109C9.84074 8.81654 10.059 8.4082 10.3795 8.0877C10.7 7.7672 11.1083 7.54893 11.5529 7.46051C11.9974 7.37208 12.4582 7.41746 12.877 7.59092C13.2957 7.76437 13.6536 8.0581 13.9055 8.43497C14.1573 8.81184 14.2917 9.25492 14.2917 9.70818C14.2917 10.0091 14.2324 10.3071 14.1172 10.5852C14.0021 10.8632 13.8333 11.1159 13.6205 11.3287C13.4077 11.5415 13.155 11.7103 12.877 11.8254C12.5989 11.9406 12.3009 11.9999 12 11.9999Z" fill="#4C2399"/>
</svg>
