<svg width="48" height="48" viewBox="0 0 48 48" fill="none" xmlns="http://www.w3.org/2000/svg">
<rect width="48" height="48" rx="6" fill="#F2EFFC"/>
<path fill-rule="evenodd" clip-rule="evenodd" d="M20.2158 19.4121C20.2158 19.9644 19.7681 20.4121 19.2158 20.4121H13.2803C12.728 20.4121 12.2803 19.9644 12.2803 19.4121C12.2803 18.8598 12.728 18.4121 13.2803 18.4121H19.2158C19.7681 18.4121 20.2158 18.8598 20.2158 19.4121ZM35.7197 24C35.7197 20.9139 33.2179 18.4121 30.1318 18.4121H22.9033C22.351 18.4121 21.9033 18.8598 21.9033 19.4121C21.9033 19.9644 22.351 20.4121 22.9033 20.4121H25.8478C25.2374 21.1402 24.8091 22.0262 24.6332 23H19.9619C19.4096 23 18.9619 23.4477 18.9619 24C18.9619 24.5523 19.4096 25 19.9619 25H24.6332C24.8091 25.9738 25.2374 26.8598 25.8478 27.5879H18.1045C17.5522 27.5879 17.1045 28.0356 17.1045 28.5879C17.1045 29.1402 17.5522 29.5879 18.1045 29.5879H30.1318C33.2179 29.5879 35.7197 27.0861 35.7197 24ZM16.2471 25C16.7994 25 17.2471 24.5523 17.2471 24C17.2471 23.4477 16.7994 23 16.2471 23H13.2803C12.728 23 12.2803 23.4477 12.2803 24C12.2803 24.5523 12.728 25 13.2803 25H16.2471ZM15.4697 28.5879C15.4697 29.1402 15.022 29.5879 14.4697 29.5879H13.2803C12.728 29.5879 12.2803 29.1402 12.2803 28.5879C12.2803 28.0356 12.728 27.5879 13.2803 27.5879H14.4697C15.022 27.5879 15.4697 28.0356 15.4697 28.5879Z" fill="#4C2399"/>
</svg>
