<svg width="37" height="37" viewBox="0 0 37 37" fill="none" xmlns="http://www.w3.org/2000/svg">
<path d="M22.9309 6.78906H14.0162C10.0395 6.78906 6.80969 10.0189 6.80969 13.9955V22.9103C6.80969 26.8869 10.0395 30.1167 14.0162 30.1167H22.9309C26.9075 30.1167 30.1374 26.8869 30.1374 22.9103V13.9955C30.1374 10.0189 26.9075 6.78906 22.9309 6.78906ZM27.533 22.9196C27.533 25.4587 25.47 27.531 22.9216 27.531H14.0068C11.4678 27.531 9.39543 25.468 9.39543 22.9196V14.0049C9.39543 11.4658 11.4584 9.39347 14.0068 9.39347H22.9216C25.4606 9.39347 27.533 11.4565 27.533 14.0049V22.9196Z" fill="white"/>
<path d="M18.4719 12.4912C15.186 12.4912 12.507 15.1703 12.507 18.4561C12.507 21.742 15.186 24.4211 18.4719 24.4211C21.7577 24.4211 24.4368 21.742 24.4368 18.4561C24.4368 15.1703 21.7577 12.4912 18.4719 12.4912ZM18.4719 22.0781C16.4742 22.0781 14.85 20.4538 14.85 18.4561C14.85 16.4585 16.4742 14.8342 18.4719 14.8342C20.4695 14.8342 22.0938 16.4585 22.0938 18.4561C22.0938 20.4538 20.4695 22.0781 18.4719 22.0781Z" fill="white"/>
<path d="M24.8903 13.1462C25.4398 13.0571 25.8131 12.5394 25.724 11.9898C25.635 11.4403 25.1172 11.067 24.5677 11.1561C24.0181 11.2452 23.6449 11.7629 23.7339 12.3124C23.823 12.862 24.3407 13.2353 24.8903 13.1462Z" fill="white"/>
</svg>
