<svg width="24" height="24" viewBox="0 0 24 24" fill="none" xmlns="http://www.w3.org/2000/svg">
<g clip-path="url(#clip0_4020_1680)">
<path fill-rule="evenodd" clip-rule="evenodd" d="M4.98145 1.17784C4.98145 0.527337 5.56771 0 6.29091 0H12.2193C12.9425 0 13.5288 0.527337 13.5288 1.17784V2.39894C13.5288 3.04944 12.9425 3.57678 12.2193 3.57678H6.29091C5.56771 3.57678 4.98145 3.04944 4.98145 2.39894V1.17784ZM1.85097 1.78833H3.48145V2.39894C3.48145 4.02338 4.89271 5.07678 6.29091 5.07678H12.2193C13.6175 5.07678 15.0288 4.02338 15.0288 2.39894V1.78833H16.6587C17.1496 1.78833 17.6204 1.98334 17.9676 2.33047C18.3147 2.67759 18.5097 3.14839 18.5097 3.6393V11.7275H14.5957C13.8519 11.7275 13.1385 12.023 12.6125 12.549C12.0865 13.075 11.791 13.7884 11.791 14.5322V17.1403C11.7878 19.0004 12.4194 20.806 13.5814 22.2585C14.1285 22.9423 14.7777 23.5287 15.501 24H1.85097C1.36006 24 0.889261 23.805 0.542136 23.4578C0.195012 23.1107 0 22.6399 0 22.149V3.6393C0 3.14839 0.195012 2.67759 0.542136 2.33047C0.889261 1.98334 1.36006 1.78833 1.85097 1.78833ZM4.45032 8.50977C4.0361 8.50977 3.70032 8.84555 3.70032 9.25977C3.70032 9.67398 4.0361 10.0098 4.45032 10.0098H14.0592C14.4735 10.0098 14.8092 9.67398 14.8092 9.25977C14.8092 8.84555 14.4735 8.50977 14.0592 8.50977H4.45032ZM3.70032 13.7598C3.70032 13.3456 4.0361 13.0098 4.45032 13.0098H8.52971C8.94392 13.0098 9.27971 13.3456 9.27971 13.7598C9.27971 14.174 8.94392 14.5098 8.52971 14.5098H4.45032C4.0361 14.5098 3.70032 14.174 3.70032 13.7598ZM4.45032 17.5098C4.0361 17.5098 3.70032 17.8456 3.70032 18.2598C3.70032 18.674 4.0361 19.0098 4.45032 19.0098H8.52966C8.94388 19.0098 9.27966 18.674 9.27966 18.2598C9.27966 17.8456 8.94388 17.5098 8.52966 17.5098H4.45032ZM23.7285 17.1416C23.7315 18.6607 23.2158 20.1353 22.2668 21.3215C21.3644 22.4496 20.1215 23.2526 18.7266 23.6129C18.5844 23.6496 18.4351 23.6496 18.293 23.6129C16.8981 23.2526 15.6552 22.4496 14.7527 21.3215C13.8038 20.1353 13.2881 18.6607 13.291 17.1416V14.5322C13.291 14.1862 13.4285 13.8543 13.6732 13.6097C13.9178 13.365 14.2497 13.2275 14.5957 13.2275H22.4238C22.7699 13.2275 23.1017 13.365 23.3464 13.6097C23.5911 13.8543 23.7285 14.1862 23.7285 14.5322V17.1416ZM21.6534 15.2599C21.9846 15.5086 22.0515 15.9788 21.8028 16.31L18.9193 20.15C18.6708 20.481 18.2012 20.5481 17.8699 20.2999L15.9499 18.8617C15.6184 18.6133 15.551 18.1433 15.7993 17.8118C16.0477 17.4802 16.5177 17.4128 16.8492 17.6611L18.1697 18.6503L20.6033 15.4093C20.8521 15.0781 21.3222 15.0112 21.6534 15.2599Z" fill="#4C2399"/>
</g>
<defs>
<clipPath id="clip0_4020_1680">
<rect width="24" height="24" fill="white"/>
</clipPath>
</defs>
</svg>
