<svg width="18" height="18" viewBox="0 0 18 18" fill="none" xmlns="http://www.w3.org/2000/svg">
<g clip-path="url(#clip0_177_5094)">
<path d="M0.592403 5.1449L8.6924 8.6699C8.78909 8.71336 8.89389 8.73583 8.9999 8.73583C9.10591 8.73583 9.21071 8.71336 9.3074 8.6699L17.4074 5.1449C17.5441 5.08699 17.6606 4.98979 17.7421 4.86562C17.8235 4.74144 17.8663 4.59589 17.8649 4.44739C17.8663 4.2989 17.8235 4.15335 17.7421 4.02917C17.6606 3.905 17.5441 3.8078 17.4074 3.7499L9.3074 0.217395C9.21003 0.176553 9.10549 0.155518 8.9999 0.155518C8.89431 0.155518 8.78978 0.176553 8.6924 0.217395L0.592403 3.7499C0.454463 3.80829 0.337167 3.90664 0.255627 4.03229C0.174088 4.15794 0.13204 4.30513 0.134903 4.4549C0.135023 4.60211 0.178467 4.74604 0.259821 4.86874C0.341176 4.99144 0.456841 5.08748 0.592403 5.1449Z" fill="#4C2399"/>
<path d="M0.442343 8.07747L8.54984 11.6025C8.69225 11.6625 8.84531 11.6931 8.99984 11.6925C9.15518 11.6934 9.30883 11.6601 9.44984 11.595L17.5573 8.07747C17.6699 8.05806 17.7766 8.01319 17.8692 7.94629C17.9617 7.87938 18.0378 7.79221 18.0916 7.69143C18.1454 7.59064 18.1754 7.47891 18.1794 7.36475C18.1835 7.25058 18.1613 7.13701 18.1148 7.0327C18.0682 6.92838 17.9984 6.83608 17.9108 6.76284C17.8231 6.68959 17.7199 6.63734 17.609 6.61007C17.498 6.5828 17.3823 6.58122 17.2707 6.60547C17.1591 6.62971 17.0545 6.67914 16.9648 6.74997L8.99984 10.185L1.03484 6.74997C0.862139 6.70534 0.679181 6.72372 0.518807 6.80181C0.358433 6.87991 0.231144 7.01261 0.159789 7.17609C0.0884337 7.33958 0.0776835 7.52314 0.129468 7.69384C0.181253 7.86454 0.292181 8.01119 0.442343 8.10747V8.07747Z" fill="#4C2399"/>
<path d="M16.965 9.86982L8.99995 13.3348L1.03495 9.86982C0.851952 9.79125 0.645236 9.78859 0.460278 9.86244C0.275321 9.93628 0.127272 10.0806 0.0487018 10.2636C-0.0298686 10.4466 -0.0325247 10.6533 0.0413178 10.8382C0.11516 11.0232 0.259452 11.1713 0.442452 11.2498L8.54995 14.7448C8.69127 14.8091 8.84471 14.8423 8.99995 14.8423C9.15519 14.8423 9.30863 14.8091 9.44995 14.7448L17.5575 11.2498C17.6625 11.2227 17.7604 11.173 17.8444 11.1044C17.9285 11.0357 17.9966 10.9496 18.0441 10.852C18.0916 10.7545 18.1174 10.6478 18.1196 10.5393C18.1219 10.4308 18.1006 10.3231 18.0572 10.2237C18.0138 10.1242 17.9493 10.0354 17.8682 9.96325C17.7871 9.89114 17.6913 9.83748 17.5875 9.80598C17.4837 9.77448 17.3742 9.76589 17.2668 9.78079C17.1593 9.7957 17.0563 9.83375 16.965 9.89232V9.86982Z" fill="#4C2399"/>
<path d="M16.965 12.87L8.99995 16.335L1.03495 12.87C0.851952 12.7914 0.645236 12.7888 0.460278 12.8626C0.275321 12.9364 0.127272 13.0807 0.0487018 13.2637C-0.0298686 13.4467 -0.0325247 13.6535 0.0413178 13.8384C0.11516 14.0234 0.259452 14.1714 0.442452 14.25L8.54995 17.775C8.69236 17.835 8.84542 17.8656 8.99995 17.865C9.15529 17.8659 9.30893 17.8326 9.44995 17.7675L17.5575 14.25C17.7076 14.1537 17.8185 14.0071 17.8703 13.8364C17.9221 13.6657 17.9114 13.4821 17.84 13.3186C17.7687 13.1551 17.6414 13.0224 17.481 12.9443C17.3206 12.8662 17.1377 12.8479 16.965 12.8925V12.87Z" fill="#4C2399"/>
</g>
<defs>
<clipPath id="clip0_177_5094">
<rect width="18" height="18" fill="white"/>
</clipPath>
</defs>
</svg>
