<svg width="24" height="24" viewBox="0 0 24 24" fill="none" xmlns="http://www.w3.org/2000/svg">
<g clip-path="url(#clip0_4015_1377)">
<path d="M24 11C24 10.6717 23.9353 10.3466 23.8097 10.0433C23.684 9.73994 23.4999 9.46434 23.2677 9.23219C23.0356 9.00005 22.76 8.8159 22.4567 8.69026C22.1534 8.56462 21.8283 8.49996 21.5 8.49996H15.19C15.1507 8.50269 15.1115 8.49485 15.0763 8.47726C15.0412 8.45968 15.0113 8.43298 14.99 8.39996C14.9732 8.36572 14.9645 8.32809 14.9645 8.28996C14.9645 8.25183 14.9732 8.2142 14.99 8.17996C15.5446 6.78037 15.7238 5.26016 15.51 3.76996C14.92 1.66996 13.68 1.06996 12.7 1.19996C12.209 1.27379 11.763 1.52761 11.4488 1.91206C11.1346 2.29651 10.9746 2.78409 11 3.27996C11 5.99996 8.86998 8.99996 6.99998 10.34C6.93204 10.3869 6.87653 10.4497 6.8382 10.5228C6.79988 10.596 6.7799 10.6774 6.77998 10.76V20.87C6.77801 20.9857 6.8171 21.0985 6.89032 21.1881C6.96354 21.2778 7.06616 21.3387 7.17998 21.36L8.17998 21.56C9.52574 21.8834 10.906 22.0412 12.29 22.03H18.79C20.79 22.03 21.04 20.94 21.04 20.28C21.0425 19.9332 20.9637 19.5908 20.81 19.28C21.1793 19.0921 21.4895 18.806 21.7065 18.4531C21.9236 18.1002 22.039 17.6943 22.04 17.28C22.0425 16.9332 21.9637 16.5908 21.81 16.28C22.0807 16.1465 22.3219 15.9601 22.5194 15.7318C22.7169 15.5036 22.8667 15.2381 22.9599 14.951C23.0531 14.6639 23.0878 14.361 23.0621 14.0603C23.0364 13.7596 22.9506 13.467 22.81 13.2C23.1848 12.9708 23.4923 12.6466 23.7013 12.2602C23.9103 11.8738 24.0133 11.439 24 11Z" fill="#4C2399"/>
<path d="M5.25 10.7798C5.25 10.5146 5.14464 10.2602 4.95711 10.0727C4.76957 9.88514 4.51522 9.77979 4.25 9.77979H1C0.734784 9.77979 0.48043 9.88514 0.292893 10.0727C0.105357 10.2602 0 10.5146 0 10.7798L0 21.7798C0 22.045 0.105357 22.2994 0.292893 22.4869C0.48043 22.6744 0.734784 22.7798 1 22.7798H4.25C4.51522 22.7798 4.76957 22.6744 4.95711 22.4869C5.14464 22.2994 5.25 22.045 5.25 21.7798V10.7798ZM3.75 19.9998C3.75598 20.1493 3.71713 20.2971 3.63844 20.4243C3.55975 20.5515 3.44482 20.6523 3.30841 20.7137C3.172 20.7751 3.02035 20.7943 2.87294 20.7688C2.72554 20.7434 2.58911 20.6744 2.4812 20.5708C2.37329 20.4672 2.29882 20.3337 2.26737 20.1875C2.23591 20.0412 2.24891 19.8889 2.30469 19.7501C2.36046 19.6113 2.45647 19.4924 2.58037 19.4086C2.70428 19.3248 2.85041 19.2799 3 19.2798C3.19382 19.2796 3.38018 19.3545 3.52 19.4887C3.65982 19.623 3.74225 19.8061 3.75 19.9998Z" fill="#4C2399"/>
</g>
<defs>
<clipPath id="clip0_4015_1377">
<rect width="24" height="24" fill="white"/>
</clipPath>
</defs>
</svg>
