<svg width="37" height="37" viewBox="0 0 37 37" fill="none" xmlns="http://www.w3.org/2000/svg">
<path d="M14.332 11.7475C14.3325 12.2464 14.1849 12.7343 13.908 13.1493C13.6312 13.5643 13.2374 13.8879 12.7766 14.079C12.3157 14.2702 11.8085 14.3203 11.3192 14.2231C10.8299 14.1259 10.3804 13.8857 10.0276 13.5329C9.6748 13.1801 9.43461 12.7306 9.33739 12.2413C9.24018 11.7519 9.29032 11.2448 9.48146 10.7839C9.67261 10.3231 9.99617 9.92932 10.4112 9.65245C10.8262 9.37557 11.314 9.22804 11.8129 9.22852C12.4808 9.22916 13.1212 9.49476 13.5935 9.96703C14.0657 10.4393 14.3313 11.0797 14.332 11.7475Z" fill="white"/>
<path d="M13.1374 15.3174H10.4848C10.14 15.3174 9.86047 15.5969 9.86047 15.9417V27.0648C9.86047 27.4095 10.14 27.689 10.4848 27.689H13.1374C13.4822 27.689 13.7617 27.4095 13.7617 27.0648V15.9417C13.7617 15.5969 13.4822 15.3174 13.1374 15.3174Z" fill="white"/>
<path d="M27.633 21.7299V27.1153C27.633 27.2674 27.5726 27.4132 27.4651 27.5207C27.3576 27.6282 27.2118 27.6886 27.0597 27.6886H24.2127C24.0607 27.6886 23.9149 27.6282 23.8074 27.5207C23.6999 27.4132 23.6395 27.2674 23.6395 27.1153V21.8975C23.6395 21.1178 23.8654 18.4967 21.6038 18.4967C19.85 18.4967 19.4929 20.2991 19.4176 21.108V27.1275C19.4144 27.2766 19.3533 27.4186 19.2472 27.5233C19.1411 27.6281 18.9983 27.6874 18.8492 27.6886H16.0945C16.0192 27.6889 15.9445 27.6743 15.8748 27.6456C15.8051 27.6169 15.7417 27.5747 15.6884 27.5214C15.6351 27.4681 15.5929 27.4048 15.5642 27.3351C15.5355 27.2654 15.5209 27.1907 15.5212 27.1153V15.8927C15.5209 15.8172 15.5355 15.7424 15.5642 15.6725C15.5929 15.6027 15.635 15.5392 15.6883 15.4857C15.7416 15.4322 15.8049 15.3898 15.8746 15.3608C15.9443 15.3319 16.019 15.317 16.0945 15.317H18.8492C18.9256 15.3157 19.0015 15.3296 19.0725 15.358C19.1435 15.3863 19.2081 15.4285 19.2626 15.4821C19.3171 15.5357 19.3603 15.5996 19.3899 15.6701C19.4194 15.7406 19.4346 15.8162 19.4346 15.8927V16.8643C20.0856 15.8927 21.0524 15.1348 23.1099 15.1348C27.6597 15.1323 27.633 19.3906 27.633 21.7299Z" fill="white"/>
</svg>
