<svg width="24" height="24" viewBox="0 0 24 24" fill="none" xmlns="http://www.w3.org/2000/svg">
<path d="M12.3328 21.5668C12.0697 21.5668 11.8386 21.4772 11.6393 21.298C11.44 21.1202 11.3404 20.8858 11.3404 20.5948C11.3404 20.4557 11.3708 20.3016 11.4318 20.1325C11.4927 19.9633 11.5837 19.8181 11.7049 19.697L15.3714 16.0305C15.4645 15.9373 15.5111 15.8388 15.5111 15.7348C15.5111 15.6309 15.4645 15.532 15.3714 15.4381C15.2782 15.3442 15.1757 15.3015 15.0638 15.3101C14.952 15.3187 14.8563 15.3632 14.7768 15.4434L11.1178 19.1035C10.996 19.2253 10.8587 19.3164 10.706 19.3766C10.5533 19.4375 10.3981 19.468 10.2404 19.468C9.96375 19.468 9.72899 19.3716 9.53617 19.1787C9.34335 18.9859 9.2473 18.7515 9.24802 18.4756C9.24802 18.31 9.28171 18.1483 9.34909 17.9906C9.41718 17.8329 9.50284 17.7021 9.60606 17.5982L13.2725 13.9317C13.3657 13.8385 13.4123 13.741 13.4123 13.6392C13.4123 13.5375 13.3657 13.4396 13.2725 13.3457C13.1794 13.2518 13.0779 13.2081 12.9683 13.2145C12.8586 13.221 12.764 13.2647 12.6844 13.3457L9.01792 17.0047C8.9104 17.1122 8.77707 17.1996 8.61794 17.267C8.45881 17.3344 8.29824 17.3684 8.13624 17.3692C7.86314 17.3692 7.62946 17.2717 7.43521 17.0767C7.24095 16.8832 7.14382 16.6495 7.14382 16.3757C7.14382 16.2194 7.17393 16.0646 7.23414 15.9112C7.29435 15.7578 7.38539 15.6205 7.50724 15.4994L10.9189 12.0877C11.0121 11.9945 11.0587 11.8956 11.0587 11.7909C11.0587 11.6863 11.0121 11.5874 10.9189 11.4942C10.8257 11.401 10.7243 11.3576 10.6146 11.3641C10.5049 11.3705 10.4107 11.4139 10.3318 11.4942L6.92018 14.9123C6.81696 15.0155 6.68542 15.1012 6.52557 15.1693C6.36501 15.2366 6.20229 15.2703 6.03743 15.2703C5.7464 15.2703 5.50806 15.1775 5.32241 14.9919C5.13747 14.8069 5.04501 14.5689 5.04501 14.2779C5.04501 14.1202 5.07511 13.965 5.13532 13.8123C5.19625 13.6597 5.28729 13.5224 5.40843 13.4005L10.077 8.73196C10.2605 8.54846 10.4759 8.45886 10.7232 8.46316C10.9705 8.46746 11.1859 8.56136 11.3694 8.74487L13.036 10.4114C13.2331 10.6086 13.4557 10.748 13.7037 10.8297C13.9517 10.9121 14.2033 10.9534 14.4585 10.9534C14.9768 10.9534 15.4097 10.7828 15.7574 10.4416C16.105 10.0996 16.2788 9.66346 16.2788 9.13302C16.2788 8.88214 16.2305 8.6291 16.1337 8.37392C16.0369 8.11873 15.886 7.88864 15.681 7.68363L14.2112 6.21381C13.8485 5.85111 13.6428 5.43249 13.594 4.95796C13.5446 4.48415 13.6861 4.08453 14.0187 3.7591C14.2481 3.50392 14.5162 3.31396 14.823 3.18924C15.1291 3.06308 15.4481 3 15.7799 3C16.1154 3 16.4455 3.06559 16.7702 3.19676C17.0956 3.32722 17.392 3.5265 17.6594 3.79458L22.2656 8.40402C22.4914 8.62982 22.6703 8.90579 22.8022 9.23194C22.9341 9.55665 23 9.91685 23 10.3125C23 10.6709 22.933 11.0096 22.7989 11.3286C22.6656 11.6476 22.4878 11.9182 22.2656 12.1404L13.2113 21.2012C13.0951 21.3173 12.9589 21.4069 12.8027 21.47C12.6478 21.5338 12.4916 21.5657 12.3339 21.5657M3.16661 12.6017C2.78455 12.2683 2.49424 11.8856 2.29568 11.4533C2.09856 11.0211 2 10.5803 2 10.1308C2 9.74661 2.07132 9.37458 2.21397 9.01475C2.35661 8.65491 2.57524 8.32733 2.86985 8.032L7.10296 3.79351C7.3388 3.55696 7.599 3.37202 7.88357 3.2387C8.16814 3.10537 8.4753 3.03871 8.80503 3.03871C9.14193 3.03871 9.46951 3.10537 9.78777 3.2387C10.106 3.37202 10.3827 3.55696 10.6178 3.79351L15.095 8.26962C15.2119 8.38718 15.3015 8.51979 15.3638 8.66745C15.4262 8.81511 15.4577 8.96779 15.4585 9.12549C15.4585 9.4029 15.3624 9.64124 15.1703 9.84051C14.9782 10.0398 14.7434 10.1394 14.466 10.1394C14.2954 10.1394 14.1359 10.1079 13.9876 10.0448C13.8392 9.98172 13.7066 9.89212 13.5897 9.776L11.9371 8.12984C11.6074 7.80011 11.2013 7.63525 10.7189 7.63525C10.2365 7.63525 9.83006 7.80011 9.49962 8.12984L4.96221 12.6662C4.71563 12.9128 4.42174 13.0231 4.08054 12.9973C3.74005 12.9722 3.43541 12.8404 3.16661 12.6017Z" fill="#4C2399"/>
</svg>
