<svg width="24" height="24" viewBox="0 0 24 24" fill="none" xmlns="http://www.w3.org/2000/svg">
<path d="M19.93 16.6L19.37 16.39C19.2925 16.3075 19.2434 16.2024 19.23 16.09C19.1386 15.6587 19.1592 15.2111 19.29 14.79C19.8209 14.2135 20.2252 13.532 20.4766 12.7897C20.7281 12.0474 20.8212 11.2606 20.75 10.48C20.7954 9.9655 20.7313 9.44721 20.5621 8.95921C20.3928 8.47122 20.1222 8.02457 19.768 7.64864C19.4138 7.27271 18.984 6.97601 18.5069 6.77804C18.0299 6.58007 17.5163 6.48532 17 6.50002C16.4413 6.5002 15.889 6.61952 15.38 6.85002C15.3387 6.87025 15.3037 6.9015 15.279 6.94032C15.2543 6.97913 15.2408 7.02402 15.24 7.07002C15.2814 8.99083 14.6873 10.8716 13.55 12.42C13.525 12.4502 13.5075 12.4858 13.4988 12.5241C13.4901 12.5623 13.4905 12.602 13.5 12.64C13.5698 12.889 13.6566 13.133 13.76 13.37C13.7907 13.4303 13.8397 13.4793 13.9 13.51C16.34 14.4 19.5 15.9 19.5 20.51V22V22.22C19.495 22.2557 19.4978 22.2921 19.5081 22.3266C19.5185 22.3611 19.5362 22.393 19.56 22.42C19.5822 22.4458 19.6099 22.4664 19.641 22.4803C19.6721 22.4941 19.7059 22.5008 19.74 22.5H23.5C23.6326 22.5 23.7598 22.4473 23.8536 22.3536C23.9473 22.2598 24 22.1326 24 22V21.15C24 18.05 21.84 17.28 19.93 16.6Z" fill="#4C2399"/>
<path d="M18 20.4998C18 16.5498 15.23 15.5698 12.78 14.6898L12 14.4298C11.93 14.4298 11.83 14.2898 11.76 14.0298C11.5925 13.3863 11.6204 12.7075 11.84 12.0798C12.79 11.0798 13.71 9.7498 13.71 6.5498C13.71 3.0598 11.33 1.5498 8.96 1.5498C6.59 1.5498 4.25 3.0598 4.25 6.5498C4.25 9.7498 5.17 11.0398 6.12 12.0698C6.34674 12.7133 6.37462 13.4102 6.2 14.0698C6.13 14.3298 6.03 14.4398 5.96 14.4698L5.2 14.7398C2.76 15.5598 0 16.5398 0 20.4998V21.9998C0 22.1324 0.0526784 22.2596 0.146447 22.3534C0.240215 22.4471 0.367392 22.4998 0.5 22.4998H17.5C17.6326 22.4998 17.7598 22.4471 17.8536 22.3534C17.9473 22.2596 18 22.1324 18 21.9998V20.4998Z" fill="#4C2399"/>
</svg>
