<svg width="24" height="24" viewBox="0 0 24 24" fill="none" xmlns="http://www.w3.org/2000/svg">
<g clip-path="url(#clip0_4020_1471)">
<path d="M11.5 3.5C11.5 4.29565 11.8161 5.05871 12.3787 5.62132C12.9413 6.18393 13.7044 6.5 14.5 6.5C15.2956 6.5 16.0587 6.18393 16.6213 5.62132C17.1839 5.05871 17.5 4.29565 17.5 3.5C17.5 2.70435 17.1839 1.94129 16.6213 1.37868C16.0587 0.81607 15.2956 0.5 14.5 0.5C13.7044 0.5 12.9413 0.81607 12.3787 1.37868C11.8161 1.94129 11.5 2.70435 11.5 3.5Z" fill="#4C2399"/>
<path d="M11 9.69005C11.035 9.73355 11.0836 9.76407 11.1379 9.77675C11.1923 9.78944 11.2493 9.78356 11.3 9.76006C11.6778 9.59158 12.0863 9.50306 12.5 9.50005H17.76C17.8105 9.50223 17.8604 9.48906 17.9033 9.46229C17.9461 9.43551 17.9798 9.39638 18 9.35006C18.0238 9.31089 18.0364 9.26591 18.0364 9.22006C18.0364 9.1742 18.0238 9.12922 18 9.09005C17.5607 8.58619 17.0157 8.18533 16.4039 7.91597C15.792 7.64661 15.1284 7.51538 14.4601 7.53161C13.7918 7.54784 13.1353 7.71114 12.5372 8.00988C11.9392 8.30861 11.4143 8.73546 11 9.26006C10.9667 9.30488 10.9487 9.35923 10.9487 9.41505C10.9487 9.47088 10.9667 9.52523 11 9.57005V9.69005Z" fill="#4C2399"/>
<path d="M9.5 12.5002C9.50245 11.9729 9.64387 11.4555 9.91 11.0002C9.9393 10.9594 9.95506 10.9104 9.95506 10.8602C9.95506 10.81 9.9393 10.761 9.91 10.7202C9.21968 9.79394 8.25523 9.10855 7.15345 8.76126C6.05168 8.41397 4.86852 8.42242 3.77181 8.7854C2.67511 9.14839 1.72054 9.84748 1.04352 10.7835C0.366492 11.7196 0.00139026 12.845 0 14.0002L0 17.5002C0 17.6328 0.0526784 17.76 0.146447 17.8538C0.240215 17.9475 0.367392 18.0002 0.5 18.0002H2.31C2.37298 18 2.43372 18.0236 2.48007 18.0662C2.52641 18.1089 2.55496 18.1674 2.56 18.2302L3 23.5402C3.01008 23.6658 3.06717 23.7829 3.15987 23.8682C3.25257 23.9535 3.37404 24.0006 3.5 24.0002H7.5C7.62596 24.0006 7.74743 23.9535 7.84013 23.8682C7.93283 23.7829 7.98992 23.6658 8 23.5402L8.44 18.2302C8.44504 18.1674 8.47359 18.1089 8.51993 18.0662C8.56628 18.0236 8.62702 18 8.69 18.0002H9.25C9.3163 18.0002 9.37989 17.9739 9.42678 17.927C9.47366 17.8801 9.5 17.8165 9.5 17.7502V12.5002Z" fill="#4C2399"/>
<path d="M2 3.5C2 3.95963 2.09053 4.41475 2.26642 4.83939C2.44231 5.26403 2.70012 5.64987 3.02513 5.97487C3.35013 6.29988 3.73597 6.55769 4.16061 6.73358C4.58525 6.90947 5.04037 7 5.5 7C5.95963 7 6.41475 6.90947 6.83939 6.73358C7.26403 6.55769 7.64987 6.29988 7.97487 5.97487C8.29988 5.64987 8.55769 5.26403 8.73358 4.83939C8.90947 4.41475 9 3.95963 9 3.5C9 3.04037 8.90947 2.58525 8.73358 2.16061C8.55769 1.73597 8.29988 1.35013 7.97487 1.02513C7.64987 0.700121 7.26403 0.442313 6.83939 0.266422C6.41475 0.0905302 5.95963 0 5.5 0C5.04037 0 4.58525 0.0905302 4.16061 0.266422C3.73597 0.442313 3.35013 0.700121 3.02513 1.02513C2.70012 1.35013 2.44231 1.73597 2.26642 2.16061C2.09053 2.58525 2 3.04037 2 3.5Z" fill="#4C2399"/>
<path d="M22 11H13C12.4696 11 11.9609 11.2107 11.5858 11.5858C11.2107 11.9609 11 12.4696 11 13V22C11 22.5304 11.2107 23.0391 11.5858 23.4142C11.9609 23.7893 12.4696 24 13 24H22C22.5304 24 23.0391 23.7893 23.4142 23.4142C23.7893 23.0391 24 22.5304 24 22V13C24 12.4696 23.7893 11.9609 23.4142 11.5858C23.0391 11.2107 22.5304 11 22 11ZM13 13.25C13 13.1837 13.0263 13.1201 13.0732 13.0732C13.1201 13.0263 13.1837 13 13.25 13H21.75C21.8163 13 21.8799 13.0263 21.9268 13.0732C21.9737 13.1201 22 13.1837 22 13.25V21.75C22.0014 21.7832 21.996 21.8164 21.9839 21.8474C21.9719 21.8783 21.9535 21.9065 21.93 21.93C21.8798 21.9732 21.8162 21.9979 21.75 22H13.25C13.1837 22 13.1201 21.9737 13.0732 21.9268C13.0263 21.8799 13 21.8163 13 21.75V13.25Z" fill="#4C2399"/>
<path d="M20 15H15.25C15.0511 15 14.8603 15.079 14.7197 15.2197C14.579 15.3603 14.5 15.5511 14.5 15.75C14.5 15.9489 14.579 16.1397 14.7197 16.2803C14.8603 16.421 15.0511 16.5 15.25 16.5H20C20.1989 16.5 20.3897 16.421 20.5303 16.2803C20.671 16.1397 20.75 15.9489 20.75 15.75C20.75 15.5511 20.671 15.3603 20.5303 15.2197C20.3897 15.079 20.1989 15 20 15Z" fill="#4C2399"/>
<path d="M17.5 19.5C17.6989 19.5 17.8897 19.421 18.0303 19.2803C18.171 19.1397 18.25 18.9489 18.25 18.75C18.25 18.5511 18.171 18.3603 18.0303 18.2197C17.8897 18.079 17.6989 18 17.5 18H15.25C15.0511 18 14.8603 18.079 14.7197 18.2197C14.579 18.3603 14.5 18.5511 14.5 18.75C14.5 18.9489 14.579 19.1397 14.7197 19.2803C14.8603 19.421 15.0511 19.5 15.25 19.5H17.5Z" fill="#4C2399"/>
</g>
<defs>
<clipPath id="clip0_4020_1471">
<rect width="24" height="24" fill="white"/>
</clipPath>
</defs>
</svg>
