<svg width="24" height="24" viewBox="0 0 24 24" fill="none" xmlns="http://www.w3.org/2000/svg">
<g clip-path="url(#clip0_177_5351)">
<path d="M13.8301 4.21019C13.8301 5.04455 14.0781 5.86007 14.5425 6.55324C15.0069 7.24642 15.6667 7.78597 16.4384 8.1034C17.21 8.42084 18.0585 8.50184 18.8762 8.33613C19.694 8.17042 20.444 7.76546 21.0312 7.17268C21.6183 6.57989 22.0161 5.826 22.174 5.00673C22.3319 4.18745 22.2428 3.33973 21.918 2.57118C21.5932 1.80264 21.0474 1.14793 20.3498 0.690176C19.6523 0.232421 18.8344 -0.00773725 18.0001 0.000190109C16.8905 0.0107332 15.8299 0.458936 15.049 1.24732C14.2681 2.03571 13.83 3.10052 13.8301 4.21019ZM18.0001 6.43019C17.5227 6.42054 17.0611 6.25794 16.6831 5.96632C16.305 5.6747 16.0306 5.26945 15.9001 4.81019C15.884 4.74922 15.8916 4.68444 15.9212 4.6288C15.9509 4.57317 16.0005 4.5308 16.0601 4.51019C16.7407 4.28056 17.3575 3.89337 17.8601 3.38019C17.9096 3.33591 17.9737 3.31144 18.0401 3.31144C18.1065 3.31144 18.1706 3.33591 18.2201 3.38019C18.7186 3.88874 19.3277 4.27543 20.0001 4.51019C20.0597 4.5308 20.1093 4.57317 20.1389 4.6288C20.1686 4.68444 20.1762 4.74922 20.1601 4.81019C20.0282 5.28011 19.7451 5.69346 19.3547 5.98631C18.9642 6.27915 18.4881 6.43516 18.0001 6.43019Z" fill="#4C2399"/>
<path d="M23.5096 18.5604C23.5853 18.5574 23.6594 18.538 23.7267 18.5035C23.7941 18.4689 23.8531 18.4201 23.8996 18.3604C23.9447 18.2994 23.9753 18.2291 23.9892 18.1546C24.003 18.0801 23.9998 18.0034 23.9796 17.9304C21.9796 10.7704 22.0996 10.3804 20.9796 9.33036C20.9264 9.28094 20.8631 9.24371 20.794 9.22126C20.7249 9.19881 20.6518 9.19168 20.5796 9.20036C20.5062 9.20903 20.4356 9.23423 20.3733 9.27407C20.3109 9.3139 20.2584 9.36733 20.2196 9.43036L18.4796 12.1604C18.4345 12.2308 18.3723 12.2887 18.299 12.3289C18.2256 12.3691 18.1433 12.3902 18.0596 12.3904C17.9775 12.3895 17.8969 12.3679 17.8253 12.3277C17.7536 12.2876 17.6932 12.23 17.6496 12.1604L15.9196 9.41036C15.8804 9.34986 15.8291 9.29816 15.7688 9.25857C15.7086 9.21897 15.6407 9.19234 15.5696 9.18036C15.4975 9.17098 15.4242 9.17778 15.355 9.20026C15.2858 9.22275 15.2225 9.26036 15.1696 9.31036C14.2396 10.1704 14.1096 10.6004 13.0696 14.5004C13.0497 14.5825 13.0497 14.6682 13.0696 14.7504C13.2696 15.5204 13.5096 16.3904 13.7896 17.4004C13.8674 17.6868 13.8912 17.9852 13.8596 18.2804C13.858 18.3151 13.8634 18.3498 13.8754 18.3825C13.8874 18.4151 13.9059 18.445 13.9296 18.4704C13.9509 18.498 13.9781 18.5205 14.0093 18.5361C14.0405 18.5517 14.0748 18.56 14.1096 18.5604H14.9196C14.9769 18.5596 15.0326 18.5793 15.0766 18.616C15.1207 18.6526 15.1501 18.7039 15.1596 18.7604L16.0796 23.6004C16.1027 23.7133 16.1641 23.8148 16.2533 23.8877C16.3426 23.9606 16.4544 24.0004 16.5696 24.0004H19.5696C19.6842 24.002 19.7956 23.9625 19.8836 23.8892C19.9717 23.8158 20.0306 23.7134 20.0496 23.6004L20.9696 18.7604C20.981 18.7047 21.0109 18.6546 21.0546 18.6183C21.0982 18.5819 21.1529 18.5615 21.2096 18.5604H23.5096Z" fill="#4C2399"/>
<path d="M0.0998405 18.3602C0.14637 18.4199 0.205377 18.4687 0.27274 18.5033C0.340102 18.5378 0.414194 18.5572 0.489841 18.5602H2.78984C2.84833 18.559 2.90538 18.5784 2.95105 18.6149C2.99673 18.6514 3.02815 18.7028 3.03984 18.7602L3.99984 23.6002C4.02283 23.7104 4.08311 23.8094 4.17054 23.8805C4.25796 23.9515 4.36719 23.9902 4.47984 23.9902H7.47984C7.59372 23.9907 7.70436 23.9523 7.79346 23.8814C7.88257 23.8105 7.94479 23.7113 7.96984 23.6002L8.88984 18.7602C8.89939 18.7037 8.92883 18.6524 8.97284 18.6158C9.01686 18.5791 9.07255 18.5594 9.12984 18.5602H11.4498C11.5259 18.5594 11.6008 18.5409 11.6684 18.5062C11.7361 18.4715 11.7948 18.4215 11.8398 18.3602C11.888 18.3008 11.9213 18.2309 11.9369 18.1561C11.9526 18.0813 11.9501 18.0038 11.9298 17.9302C9.92984 10.7702 10.0498 10.3802 8.92984 9.33016C8.877 9.28016 8.81369 9.24255 8.7445 9.22006C8.67531 9.19758 8.60198 9.19078 8.52984 9.20016C8.45769 9.20883 8.38854 9.23412 8.32781 9.27402C8.26708 9.31393 8.21643 9.36738 8.17984 9.43016L6.35984 12.1602C6.31451 12.2303 6.25233 12.288 6.17896 12.328C6.10559 12.3679 6.02338 12.3889 5.93984 12.3889C5.8563 12.3889 5.77409 12.3679 5.70072 12.328C5.62736 12.288 5.56517 12.2303 5.51984 12.1602L3.79984 9.41016C3.76063 9.34966 3.70927 9.29796 3.64902 9.25837C3.58877 9.21877 3.52094 9.19214 3.44984 9.18016C3.3699 9.1643 3.28733 9.16783 3.20903 9.19045C3.13074 9.21306 3.059 9.25412 2.99984 9.31016C1.88984 10.3702 1.99984 10.7802 -0.000159462 17.9302C-0.0175155 18.0047 -0.0175251 18.0822 -0.000187607 18.1568C0.0171499 18.2313 0.0513716 18.3009 0.0998405 18.3602Z" fill="#4C2399"/>
<path d="M1.70996 4.21C1.70996 5.04266 1.95687 5.85662 2.41947 6.54895C2.88207 7.24128 3.53959 7.78089 4.30886 8.09953C5.07814 8.41818 5.92463 8.50155 6.74129 8.33911C7.55795 8.17666 8.3081 7.7757 8.89688 7.18692C9.48566 6.59814 9.88662 5.84799 10.0491 5.03133C10.2115 4.21467 10.1281 3.36818 9.80949 2.5989C9.49085 1.82963 8.95124 1.17211 8.25891 0.709513C7.56658 0.246912 6.75262 0 5.91996 0C4.8034 0 3.73257 0.443552 2.94304 1.23308C2.15351 2.02261 1.70996 3.09344 1.70996 4.21ZM5.91996 6.43C5.43574 6.42893 4.96502 6.27027 4.57895 5.97801C4.19287 5.68574 3.91242 5.27576 3.77996 4.81C3.77071 4.7798 3.76751 4.74807 3.77056 4.71662C3.7736 4.68518 3.78281 4.65465 3.79768 4.62678C3.81254 4.59891 3.83276 4.57425 3.85718 4.55421C3.88159 4.53417 3.90973 4.51915 3.93996 4.51C4.61837 4.27571 5.23411 3.88916 5.73996 3.38C5.76348 3.3565 5.79162 3.33814 5.82261 3.32609C5.85359 3.31404 5.88675 3.30856 5.91996 3.31C5.95167 3.30872 5.98328 3.31431 6.01262 3.32639C6.04197 3.33847 6.06835 3.35676 6.08996 3.38C6.598 3.8913 7.21751 4.27806 7.89996 4.51C7.95919 4.53052 8.00804 4.57339 8.03607 4.62945C8.0641 4.68551 8.06908 4.75031 8.04996 4.81C7.92093 5.27579 7.64275 5.68644 7.25803 5.97904C6.87332 6.27164 6.4033 6.43005 5.91996 6.43Z" fill="#4C2399"/>
</g>
<defs>
<clipPath id="clip0_177_5351">
<rect width="24" height="24" fill="white"/>
</clipPath>
</defs>
</svg>
