<svg width="24" height="24" viewBox="0 0 24 24" fill="none" xmlns="http://www.w3.org/2000/svg">
<g clip-path="url(#clip0_4020_1613)">
<path d="M0 12C0 12.862 0.34241 13.6886 0.951903 14.2981C1.5614 14.9076 2.38805 15.25 3.25 15.25C4.11195 15.25 4.9386 14.9076 5.5481 14.2981C6.15759 13.6886 6.5 12.862 6.5 12C6.5 11.138 6.15759 10.3114 5.5481 9.7019C4.9386 9.09241 4.11195 8.75 3.25 8.75C2.38805 8.75 1.5614 9.09241 0.951903 9.7019C0.34241 10.3114 0 11.138 0 12Z" fill="#4C2399"/>
<path d="M8.75 12C8.75 12.862 9.09241 13.6886 9.7019 14.2981C10.3114 14.9076 11.138 15.25 12 15.25C12.862 15.25 13.6886 14.9076 14.2981 14.2981C14.9076 13.6886 15.25 12.862 15.25 12C15.25 11.138 14.9076 10.3114 14.2981 9.7019C13.6886 9.09241 12.862 8.75 12 8.75C11.138 8.75 10.3114 9.09241 9.7019 9.7019C9.09241 10.3114 8.75 11.138 8.75 12Z" fill="#4C2399"/>
<path d="M17.5 12C17.5 12.862 17.8424 13.6886 18.4519 14.2981C19.0614 14.9076 19.888 15.25 20.75 15.25C21.612 15.25 22.4386 14.9076 23.0481 14.2981C23.6576 13.6886 24 12.862 24 12C24 11.138 23.6576 10.3114 23.0481 9.7019C22.4386 9.09241 21.612 8.75 20.75 8.75C19.888 8.75 19.0614 9.09241 18.4519 9.7019C17.8424 10.3114 17.5 11.138 17.5 12Z" fill="#4C2399"/>
</g>
<defs>
<clipPath id="clip0_4020_1613">
<rect width="24" height="24" fill="white"/>
</clipPath>
</defs>
</svg>
