<svg width="24" height="24" viewBox="0 0 24 24" fill="none" xmlns="http://www.w3.org/2000/svg">
<g clip-path="url(#clip0_177_5577)">
<path d="M1.25 20.75H4.75C4.8163 20.75 4.87989 20.7237 4.92678 20.6768C4.97366 20.6299 5 20.5663 5 20.5V18.25C5 18.1174 4.94732 17.9902 4.85355 17.8964C4.75979 17.8027 4.63261 17.75 4.5 17.75H1.5C1.36739 17.75 1.24021 17.8027 1.14645 17.8964C1.05268 17.9902 1 18.1174 1 18.25V20.5C1 20.5663 1.02634 20.6299 1.07322 20.6768C1.12011 20.7237 1.1837 20.75 1.25 20.75Z" fill="#4C2399"/>
<path d="M7.5 12.75C7.36739 12.75 7.24021 12.8027 7.14645 12.8964C7.05268 12.9902 7 13.1174 7 13.25V20.5C7 20.5663 7.02634 20.6299 7.07322 20.6768C7.12011 20.7237 7.1837 20.75 7.25 20.75H10.75C10.8163 20.75 10.8799 20.7237 10.9268 20.6768C10.9737 20.6299 11 20.5663 11 20.5V13.25C11 13.1174 10.9473 12.9902 10.8536 12.8964C10.7598 12.8027 10.6326 12.75 10.5 12.75H7.5Z" fill="#4C2399"/>
<path d="M13.5 14.75C13.3674 14.75 13.2402 14.8027 13.1464 14.8964C13.0527 14.9902 13 15.1174 13 15.25V20.5C13 20.5663 13.0263 20.6299 13.0732 20.6768C13.1201 20.7237 13.1837 20.75 13.25 20.75H16.75C16.8163 20.75 16.8799 20.7237 16.9268 20.6768C16.9737 20.6299 17 20.5663 17 20.5V15.25C17 15.1174 16.9473 14.9902 16.8536 14.8964C16.7598 14.8027 16.6326 14.75 16.5 14.75H13.5Z" fill="#4C2399"/>
<path d="M19.5 7.75C19.3674 7.75 19.2402 7.80268 19.1464 7.89645C19.0527 7.99021 19 8.11739 19 8.25V20.5C19 20.5663 19.0263 20.6299 19.0732 20.6768C19.1201 20.7237 19.1837 20.75 19.25 20.75H22.75C22.8163 20.75 22.8799 20.7237 22.9268 20.6768C22.9737 20.6299 23 20.5663 23 20.5V8.25C23 8.11739 22.9473 7.99021 22.8536 7.89645C22.7598 7.80268 22.6326 7.75 22.5 7.75H19.5Z" fill="#4C2399"/>
<path d="M1 23.75H23C23.2652 23.75 23.5196 23.6446 23.7071 23.4571C23.8946 23.2696 24 23.0152 24 22.75C24 22.4848 23.8946 22.2304 23.7071 22.0429C23.5196 21.8554 23.2652 21.75 23 21.75H1C0.734784 21.75 0.48043 21.8554 0.292893 22.0429C0.105357 22.2304 0 22.4848 0 22.75C0 23.0152 0.105357 23.2696 0.292893 23.4571C0.48043 23.6446 0.734784 23.75 1 23.75Z" fill="#4C2399"/>
<path d="M20.1101 4.1699C20.144 4.17035 20.1774 4.17768 20.2083 4.19143C20.2393 4.20518 20.2671 4.22507 20.2901 4.2499L21.1501 5.0999C21.1947 5.14794 21.249 5.1861 21.3092 5.21194C21.3695 5.23777 21.4345 5.2507 21.5001 5.2499C21.5626 5.26407 21.6276 5.26407 21.6901 5.2499C21.788 5.21003 21.8707 5.14015 21.9264 5.05032C21.9821 4.96049 22.0079 4.85531 22.0001 4.7499V0.749903C22.0001 0.617294 21.9474 0.490117 21.8537 0.396349C21.7599 0.302581 21.6327 0.249903 21.5001 0.249903H17.5001C17.3947 0.242092 17.2895 0.267887 17.1997 0.323584C17.1099 0.379281 17.04 0.462014 17.0001 0.559903C16.9593 0.650032 16.9479 0.750755 16.9677 0.847716C16.9874 0.944678 17.0373 1.03293 17.1101 1.0999L18.1101 2.0999C18.1559 2.14663 18.1816 2.20946 18.1816 2.2749C18.1816 2.34034 18.1559 2.40317 18.1101 2.4499L15.0001 5.9999C14.9003 6.1038 14.7734 6.17762 14.6337 6.21298C14.4941 6.24833 14.3473 6.2438 14.2101 6.1999L10.4501 4.9199C9.92537 4.74271 9.36396 4.70298 8.8195 4.80452C8.27504 4.90606 7.7657 5.14547 7.3401 5.4999L2.2001 9.7899C2.07113 9.89213 1.96361 10.0188 1.88372 10.1627C1.80383 10.3066 1.75314 10.4648 1.73456 10.6284C1.71597 10.7919 1.72987 10.9575 1.77544 11.1156C1.82101 11.2738 1.89735 11.4213 2.0001 11.5499C2.12113 11.6966 2.27426 11.8134 2.44766 11.8915C2.62105 11.9695 2.81008 12.0066 3.0001 11.9999C3.29293 12.0024 3.57688 11.8994 3.8001 11.7099L9.0001 7.4199C9.09796 7.34026 9.21433 7.2866 9.33844 7.26387C9.46254 7.24115 9.59038 7.2501 9.7101 7.2899L13.4301 8.5299C14.0228 8.72765 14.6601 8.74979 15.2651 8.59366C15.8701 8.43753 16.4171 8.10978 16.8401 7.6499L19.9801 4.2499C20.0174 4.21449 20.0617 4.18724 20.1101 4.1699Z" fill="#4C2399"/>
</g>
<defs>
<clipPath id="clip0_177_5577">
<rect width="24" height="24" fill="white"/>
</clipPath>
</defs>
</svg>
