<svg width="24" height="24" viewBox="0 0 24 24" fill="none" xmlns="http://www.w3.org/2000/svg">
<g clip-path="url(#clip0_4015_1295)">
<path d="M17 4.82495C15.5809 4.82495 14.1937 5.24576 13.0137 6.03416C11.8338 6.82256 10.9142 7.94314 10.3711 9.2542C9.82806 10.5653 9.68597 12.0079 9.96282 13.3997C10.2397 14.7915 10.923 16.07 11.9265 17.0734C12.9299 18.0769 14.2084 18.7602 15.6002 19.0371C16.992 19.3139 18.4346 19.1718 19.7457 18.6288C21.0568 18.0857 22.1774 17.1661 22.9657 15.9862C23.7541 14.8062 24.175 13.419 24.175 12C24.175 10.097 23.419 8.27203 22.0734 6.92646C20.7279 5.58089 18.9029 4.82495 17 4.82495ZM18.6143 10.6367H19.1046C19.2236 10.6367 19.3376 10.6839 19.4217 10.768C19.5058 10.8521 19.5531 10.9662 19.5531 11.0851C19.5531 11.2041 19.5058 11.3181 19.4217 11.4022C19.3376 11.4863 19.2236 11.5336 19.1046 11.5336H18.6143C18.5098 12.04 18.2339 12.4949 17.8331 12.8217C17.4323 13.1484 16.9311 13.327 16.414 13.3273H16.3004L18.5246 15.5516C18.6086 15.6357 18.6558 15.7496 18.6558 15.8685C18.6558 15.9873 18.6086 16.1013 18.5246 16.1854C18.4399 16.2684 18.3264 16.3155 18.2077 16.3169C18.0894 16.3143 17.9763 16.2674 17.8909 16.1854L14.9013 13.1958C14.8392 13.1323 14.797 13.0521 14.78 12.965C14.763 12.8778 14.7719 12.7876 14.8056 12.7055C14.8383 12.6256 14.8936 12.5569 14.9648 12.5081C15.0359 12.4592 15.1199 12.4322 15.2062 12.4305H16.402C16.6801 12.4303 16.9513 12.344 17.1783 12.1834C17.4053 12.0227 17.5769 11.7957 17.6696 11.5336H15.2062C15.0873 11.5336 14.9732 11.4863 14.8891 11.4022C14.805 11.3181 14.7578 11.2041 14.7578 11.0851C14.7578 10.9662 14.805 10.8521 14.8891 10.768C14.9732 10.6839 15.0873 10.6367 15.2062 10.6367H17.6696C17.5777 10.374 17.4062 10.1466 17.1791 9.98582C16.9519 9.82509 16.6803 9.73911 16.402 9.73983H15.2062C15.0873 9.73983 14.9732 9.69258 14.8891 9.60848C14.805 9.52438 14.7578 9.41032 14.7578 9.29139C14.7578 9.17246 14.805 9.05839 14.8891 8.9743C14.9732 8.8902 15.0873 8.84295 15.2062 8.84295H19.0927C19.2116 8.84295 19.3257 8.8902 19.4098 8.9743C19.4939 9.05839 19.5411 9.17246 19.5411 9.29139C19.5411 9.41032 19.4939 9.52438 19.4098 9.60848C19.3257 9.69258 19.2116 9.73983 19.0927 9.73983H18.1958C18.4005 10.0038 18.5436 10.3102 18.6143 10.6367Z" fill="#4C2399"/>
<path d="M7.5 12C7.5 11.7348 7.39464 11.4804 7.20711 11.2929C7.01957 11.1054 6.76522 11 6.5 11H1C0.734784 11 0.48043 11.1054 0.292893 11.2929C0.105357 11.4804 0 11.7348 0 12C0 12.2652 0.105357 12.5196 0.292893 12.7071C0.48043 12.8946 0.734784 13 1 13H6.5C6.76522 13 7.01957 12.8946 7.20711 12.7071C7.39464 12.5196 7.5 12.2652 7.5 12Z" fill="#4C2399"/>
<path d="M8 6H3C2.73478 6 2.48043 6.10536 2.29289 6.29289C2.10536 6.48043 2 6.73478 2 7C2 7.26522 2.10536 7.51957 2.29289 7.70711C2.48043 7.89464 2.73478 8 3 8H8C8.26522 8 8.51957 7.89464 8.70711 7.70711C8.89464 7.51957 9 7.26522 9 7C9 6.73478 8.89464 6.48043 8.70711 6.29289C8.51957 6.10536 8.26522 6 8 6Z" fill="#4C2399"/>
<path d="M8 16H3C2.73478 16 2.48043 16.1054 2.29289 16.2929C2.10536 16.4804 2 16.7348 2 17C2 17.2652 2.10536 17.5196 2.29289 17.7071C2.48043 17.8946 2.73478 18 3 18H8C8.26522 18 8.51957 17.8946 8.70711 17.7071C8.89464 17.5196 9 17.2652 9 17C9 16.7348 8.89464 16.4804 8.70711 16.2929C8.51957 16.1054 8.26522 16 8 16Z" fill="#4C2399"/>
</g>
<defs>
<clipPath id="clip0_4015_1295">
<rect width="24" height="24" fill="white"/>
</clipPath>
</defs>
</svg>
