<svg width="24" height="24" viewBox="0 0 24 24" fill="none" xmlns="http://www.w3.org/2000/svg">
<g clip-path="url(#clip0_177_5150)">
<path d="M24 2C24 1.46957 23.7893 0.960859 23.4142 0.585786C23.0391 0.210714 22.5304 0 22 0L11.5 0C11.2348 0 10.9804 0.105357 10.7929 0.292893C10.6054 0.48043 10.5 0.734784 10.5 1C10.5 1.26522 10.6054 1.51957 10.7929 1.70711C10.9804 1.89464 11.2348 2 11.5 2H21.5C21.6326 2 21.7598 2.05268 21.8536 2.14645C21.9473 2.24021 22 2.36739 22 2.5V13.5C22 13.6326 21.9473 13.7598 21.8536 13.8536C21.7598 13.9473 21.6326 14 21.5 14H13.75C13.4848 14 13.2304 14.1054 13.0429 14.2929C12.8554 14.4804 12.75 14.7348 12.75 15C12.75 15.2652 12.8554 15.5196 13.0429 15.7071C13.2304 15.8946 13.4848 16 13.75 16H22C22.5304 16 23.0391 15.7893 23.4142 15.4142C23.7893 15.0391 24 14.5304 24 14V2Z" fill="#4C2399"/>
<path d="M13.5 7.51001H15C15 7.51001 15.5 7.51001 15.5 8.01001V11.51C15.5 11.51 15.5 12.01 15 12.01H13.5C13.5 12.01 13 12.01 13 11.51V8.01001C13 8.01001 13 7.51001 13.5 7.51001Z" fill="#4C2399"/>
<path d="M17.5 4.01001H19C19 4.01001 19.5 4.01001 19.5 4.51001V11.51C19.5 11.51 19.5 12.01 19 12.01H17.5C17.5 12.01 17 12.01 17 11.51V4.51001C17 4.51001 17 4.01001 17.5 4.01001Z" fill="#4C2399"/>
<path d="M5.5 9C4.04385 9.00263 2.64794 9.58157 1.61735 10.6103C0.58676 11.639 0.00528311 13.0339 0 14.49V17.49C0 17.6226 0.0526784 17.7498 0.146447 17.8436C0.240215 17.9373 0.367392 17.99 0.5 17.99H2.31C2.37298 17.9898 2.43372 18.0134 2.48007 18.056C2.52641 18.0987 2.55496 18.1572 2.56 18.22L3 23.54C3.01244 23.6638 3.07056 23.7784 3.16301 23.8617C3.25547 23.9449 3.37562 23.9906 3.5 23.99H7.5C7.62438 23.9906 7.74453 23.9449 7.83699 23.8617C7.92944 23.7784 7.98756 23.6638 8 23.54L8.44 18.22C8.44737 18.159 8.47693 18.1029 8.52304 18.0623C8.56915 18.0217 8.62858 17.9996 8.69 18H10.5C10.6326 18 10.7598 17.9473 10.8536 17.8536C10.9473 17.7598 11 17.6326 11 17.5V14.5C10.9974 13.0421 10.417 11.6447 9.38617 10.6138C8.35529 9.58295 6.95788 9.00264 5.5 9ZM6.25 14.95C6.25 15.1489 6.17098 15.3397 6.03033 15.4803C5.88968 15.621 5.69891 15.7 5.5 15.7C5.30109 15.7 5.11032 15.621 4.96967 15.4803C4.82902 15.3397 4.75 15.1489 4.75 14.95V11C4.75 10.8011 4.82902 10.6103 4.96967 10.4697C5.11032 10.329 5.30109 10.25 5.5 10.25C5.69891 10.25 5.88968 10.329 6.03033 10.4697C6.17098 10.6103 6.25 10.8011 6.25 11V14.95Z" fill="#4C2399"/>
<path d="M5.50019 8.14C6.30558 8.14 7.09287 7.90104 7.76239 7.45338C8.43192 7.00572 8.95357 6.36948 9.26133 5.62521C9.56908 4.88093 9.64909 4.06207 9.49124 3.2723C9.33338 2.48252 8.94476 1.75734 8.37456 1.18854C7.80436 0.61974 7.07822 0.232901 6.28806 0.0769903C5.4979 -0.0789204 4.67924 0.00310722 3.93572 0.31269C3.19221 0.622272 2.55725 1.14549 2.11124 1.81611C1.66523 2.48674 1.42821 3.27461 1.43019 4.08C1.43284 5.1577 1.86281 6.19035 2.62579 6.95146C3.38878 7.71258 4.42249 8.14001 5.50019 8.14ZM3.57019 3.36C3.58266 3.32553 3.60257 3.29423 3.62849 3.2683C3.65441 3.24238 3.68572 3.22248 3.72019 3.21C3.75327 3.1954 3.78903 3.18786 3.82519 3.18786C3.86135 3.18786 3.89711 3.1954 3.93019 3.21C4.71172 3.70675 5.61437 3.97997 6.54019 4C6.78808 4.00033 7.03558 3.98026 7.28019 3.94C7.31588 3.935 7.35223 3.93777 7.38675 3.94812C7.42127 3.95848 7.45315 3.97618 7.48019 4C7.53373 4.04924 7.56601 4.11738 7.57019 4.19C7.57035 4.45864 7.5164 4.72456 7.41154 4.97189C7.30668 5.21922 7.15307 5.44289 6.95987 5.62955C6.76668 5.81621 6.53786 5.96204 6.28707 6.05833C6.03628 6.15462 5.76866 6.1994 5.50019 6.19C5.22495 6.19005 4.95247 6.13522 4.69868 6.0287C4.4449 5.92218 4.2149 5.76611 4.02215 5.56964C3.8294 5.37317 3.67777 5.14023 3.57613 4.88445C3.47448 4.62867 3.42487 4.35519 3.43019 4.08C3.42939 3.83316 3.47695 3.58856 3.57019 3.36Z" fill="#4C2399"/>
</g>
<defs>
<clipPath id="clip0_177_5150">
<rect width="24" height="24" fill="white"/>
</clipPath>
</defs>
</svg>
