<svg width="24" height="24" viewBox="0 0 24 24" fill="none" xmlns="http://www.w3.org/2000/svg">
<path fill-rule="evenodd" clip-rule="evenodd" d="M12 3C10.4087 3 8.88258 3.63214 7.75736 4.75736C6.63214 5.88258 6 7.4087 6 9V16C6 16.5523 5.55228 17 5 17H2C1.44772 17 1 16.5523 1 16V10C1 9.44771 1.44772 9 2 9H3C3.55228 9 3.99355 8.55054 4.06239 8.00257C4.28276 6.2486 5.0799 4.60639 6.34315 3.34315C7.84344 1.84285 9.87827 1 12 1C14.1217 1 16.1566 1.84285 17.6569 3.34315C18.9201 4.60639 19.7172 6.2486 19.9376 8.00257C20.0065 8.55054 20.4477 9 21 9H22C22.5523 9 23 9.44771 23 10V16C23 16.5523 22.5523 17 22 17H21C20.4477 17 20.0101 17.4521 19.9003 17.9934C19.7065 18.9494 19.2355 19.8355 18.5355 20.5355C17.5979 21.4732 16.3261 22 15 22C15 22.5523 14.5523 23 14 23H10C9.44772 23 9 22.5523 9 22V20C9 19.4477 9.44772 19 10 19H14C14.5523 19 15 19.4477 15 20C15.7956 20 16.5587 19.6839 17.1213 19.1213C17.6839 18.5587 18 17.7956 18 17V9C18 7.4087 17.3679 5.88258 16.2426 4.75736C15.1174 3.63214 13.5913 3 12 3Z" fill="#4C2399"/>
</svg>
