<svg width="12" height="12" viewBox="0 0 12 12" fill="none" xmlns="http://www.w3.org/2000/svg">
<path d="M0 3C0 1.34315 1.34315 0 3 0H9C10.6569 0 12 1.34315 12 3V9C12 10.6569 10.6569 12 9 12H3C1.34315 12 0 10.6569 0 9V3Z" fill="#374151"/>
<path d="M3.18522 6.90761C3.18521 6.83688 3.21306 6.76899 3.26274 6.71864C3.31242 6.66829 3.37993 6.63953 3.45065 6.63859H4.79935C4.87007 6.63953 4.93758 6.66829 4.98726 6.71864C5.03694 6.76899 5.06479 6.83688 5.06478 6.90761V6.99728C5.06478 7.04485 5.08368 7.09047 5.11731 7.1241C5.15095 7.15774 5.19656 7.17663 5.24413 7.17663H8.07065C8.11822 7.17663 8.16384 7.15774 8.19747 7.1241C8.2311 7.09047 8.25 7.04485 8.25 6.99728V5.65217C8.25 5.55704 8.21221 5.46581 8.14494 5.39854C8.07767 5.33127 7.98644 5.29348 7.8913 5.29348H5.91848C5.91848 4.81782 5.72952 4.36164 5.39318 4.0253C5.05684 3.68896 4.60066 3.5 4.125 3.5C3.64934 3.5 3.19316 3.68896 2.85682 4.0253C2.52048 4.36164 2.33152 4.81782 2.33152 5.29348H0.358696C0.263564 5.29348 0.172328 5.33127 0.10506 5.39854C0.037791 5.46581 0 5.55704 0 5.65217V6.99728C0 7.04485 0.0188955 7.09047 0.0525298 7.1241C0.086164 7.15774 0.131782 7.17663 0.179348 7.17663H3.00587C3.05344 7.17663 3.09905 7.15774 3.13269 7.1241C3.16632 7.09047 3.18522 7.04485 3.18522 6.99728V6.90761ZM4.125 4.39674C4.38188 4.39315 4.63157 4.48158 4.82893 4.64605C5.02629 4.81051 5.15829 5.04016 5.20109 5.29348H3.04891C3.09171 5.04016 3.22371 4.81051 3.42107 4.64605C3.61843 4.48158 3.86812 4.39315 4.125 4.39674Z" fill="#374151"/>
<path d="M5.06478 8.03008C5.0649 8.16938 5.03404 8.30696 4.97445 8.43287C4.91486 8.55878 4.82803 8.66987 4.72023 8.75809C4.61244 8.84632 4.48638 8.90948 4.35117 8.94301C4.21597 8.97653 4.075 8.97958 3.93848 8.95193C3.72097 8.90326 3.52691 8.78105 3.38903 8.60593C3.25116 8.4308 3.1779 8.21348 3.18163 7.99063V7.89378C3.18163 7.84621 3.16273 7.8006 3.1291 7.76696C3.09547 7.73333 3.04985 7.71443 3.00228 7.71443H0.179348C0.131782 7.71443 0.086164 7.73333 0.0525298 7.76696C0.0188955 7.8006 0 7.84621 0 7.89378V10.315C0 10.4101 0.037791 10.5013 0.10506 10.5686C0.172328 10.6359 0.263564 10.6737 0.358696 10.6737H7.8913C7.98644 10.6737 8.07767 10.6359 8.14494 10.5686C8.21221 10.5013 8.25 10.4101 8.25 10.315V7.89378C8.25 7.84621 8.2311 7.8006 8.19747 7.76696C8.16384 7.73333 8.11822 7.71443 8.07065 7.71443H5.26207C5.23716 7.71247 5.21212 7.71563 5.18849 7.72371C5.16485 7.7318 5.14312 7.74464 5.12464 7.76144C5.10615 7.77824 5.09131 7.79866 5.08101 7.82142C5.07072 7.84418 5.0652 7.8688 5.06478 7.89378V8.03008Z" fill="#374151"/>
<path d="M4.34776 7.17676H3.90298C3.85541 7.17676 3.8098 7.19565 3.77616 7.22929C3.74253 7.26292 3.72363 7.30854 3.72363 7.35611V8.03045C3.72363 8.137 3.76596 8.23918 3.8413 8.31453C3.91664 8.38987 4.01882 8.43219 4.12537 8.43219C4.23192 8.43219 4.3341 8.38987 4.40944 8.31453C4.48479 8.23918 4.52711 8.137 4.52711 8.03045V7.35611C4.52711 7.30854 4.50822 7.26292 4.47458 7.22929C4.44095 7.19565 4.39533 7.17676 4.34776 7.17676Z" fill="#374151"/>
<path d="M9.5 0.5C9.00555 0.5 8.5222 0.646622 8.11108 0.921326C7.69995 1.19603 7.37952 1.58648 7.1903 2.04329C7.00108 2.50011 6.95157 3.00277 7.04804 3.48773C7.1445 3.97268 7.3826 4.41814 7.73223 4.76777C8.08187 5.1174 8.52732 5.3555 9.01227 5.45196C9.49723 5.54843 9.99989 5.49892 10.4567 5.3097C10.9135 5.12048 11.304 4.80005 11.5787 4.38893C11.8534 3.9778 12 3.49445 12 3C12 2.33696 11.7366 1.70107 11.2678 1.23223C10.7989 0.763392 10.163 0.5 9.5 0.5ZM10.0625 2.525H10.2333C10.2748 2.525 10.3145 2.54146 10.3438 2.57076C10.3731 2.60007 10.3896 2.63981 10.3896 2.68125C10.3896 2.72269 10.3731 2.76243 10.3438 2.79173C10.3145 2.82104 10.2748 2.8375 10.2333 2.8375H10.0625C10.0261 3.01396 9.92995 3.17247 9.79029 3.28631C9.65064 3.40016 9.47601 3.46238 9.29583 3.4625H9.25625L10.0313 4.2375C10.0605 4.2668 10.0769 4.30651 10.0769 4.34792C10.0769 4.38932 10.0605 4.42904 10.0313 4.45833C10.0017 4.48727 9.96217 4.50369 9.92083 4.50417C9.87958 4.50327 9.84018 4.48691 9.81042 4.45833L8.76875 3.41667C8.74712 3.39456 8.73243 3.3666 8.7265 3.33624C8.72058 3.30588 8.72368 3.27445 8.73542 3.24583C8.74679 3.21798 8.76607 3.19407 8.79088 3.17704C8.81568 3.16001 8.84492 3.15061 8.875 3.15H9.29167C9.38856 3.14994 9.48305 3.11986 9.56214 3.0639C9.64123 3.00794 9.70104 2.92885 9.73333 2.8375H8.875C8.83356 2.8375 8.79382 2.82104 8.76452 2.79173C8.73521 2.76243 8.71875 2.72269 8.71875 2.68125C8.71875 2.63981 8.73521 2.60007 8.76452 2.57076C8.79382 2.54146 8.83356 2.525 8.875 2.525H9.73333C9.7013 2.43348 9.64156 2.35422 9.56241 2.29821C9.48326 2.24221 9.38863 2.21225 9.29167 2.2125H8.875C8.83356 2.2125 8.79382 2.19604 8.76452 2.16674C8.73521 2.13743 8.71875 2.09769 8.71875 2.05625C8.71875 2.01481 8.73521 1.97507 8.76452 1.94576C8.79382 1.91646 8.83356 1.9 8.875 1.9H10.2292C10.2706 1.9 10.3104 1.91646 10.3397 1.94576C10.369 1.97507 10.3854 2.01481 10.3854 2.05625C10.3854 2.09769 10.369 2.13743 10.3397 2.16674C10.3104 2.19604 10.2706 2.2125 10.2292 2.2125H9.91667C9.98801 2.30447 10.0378 2.41125 10.0625 2.525Z" fill="#374151"/>
</svg>
