<svg width="24" height="24" viewBox="0 0 24 24" fill="none" xmlns="http://www.w3.org/2000/svg">
<path d="M6.37043 13.8152C6.37042 13.6738 6.42612 13.538 6.52548 13.4373C6.62484 13.3366 6.75985 13.2791 6.9013 13.2772H9.5987C9.74015 13.2791 9.87516 13.3366 9.97452 13.4373C10.0739 13.538 10.1296 13.6738 10.1296 13.8152V13.9946C10.1296 14.0897 10.1674 14.1809 10.2346 14.2482C10.3019 14.3155 10.3931 14.3533 10.4883 14.3533H16.1413C16.2364 14.3533 16.3277 14.3155 16.3949 14.2482C16.4622 14.1809 16.5 14.0897 16.5 13.9946V11.3043C16.5 11.1141 16.4244 10.9316 16.2899 10.7971C16.1553 10.6625 15.9729 10.587 15.7826 10.587H11.837C11.837 9.63564 11.459 8.72328 10.7864 8.0506C10.1137 7.37791 9.20132 7 8.25 7C7.29868 7 6.38632 7.37791 5.71364 8.0506C5.04095 8.72328 4.66304 9.63564 4.66304 10.587H0.717391C0.527127 10.587 0.344656 10.6625 0.210119 10.7971C0.0755821 10.9316 0 11.1141 0 11.3043V13.9946C0 14.0897 0.037791 14.1809 0.10506 14.2482C0.172328 14.3155 0.263564 14.3533 0.358696 14.3533H6.01174C6.10687 14.3533 6.19811 14.3155 6.26538 14.2482C6.33264 14.1809 6.37043 14.0897 6.37043 13.9946V13.8152ZM8.25 8.79348C8.76376 8.7863 9.26313 8.96316 9.65785 9.2921C10.0526 9.62103 10.3166 10.0803 10.4022 10.587H6.09783C6.18341 10.0803 6.44743 9.62103 6.84215 9.2921C7.23687 8.96316 7.73624 8.7863 8.25 8.79348Z" fill="#4C2399"/>
<path d="M10.1296 16.0607C10.1298 16.3393 10.0681 16.6144 9.9489 16.8662C9.82972 17.118 9.65605 17.3402 9.44046 17.5167C9.22487 17.6931 8.97275 17.8195 8.70235 17.8865C8.43194 17.9536 8.15001 17.9596 7.87696 17.9044C7.44194 17.807 7.05382 17.5626 6.77807 17.2123C6.50231 16.8621 6.3558 16.4275 6.36326 15.9817V15.788C6.36326 15.6929 6.32547 15.6017 6.2582 15.5344C6.19093 15.4671 6.0997 15.4294 6.00457 15.4294H0.358696C0.263564 15.4294 0.172328 15.4671 0.10506 15.5344C0.037791 15.6017 0 15.6929 0 15.788V20.6304C0 20.8207 0.0755821 21.0032 0.210119 21.1377C0.344656 21.2723 0.527127 21.3478 0.717391 21.3478H15.7826C15.9729 21.3478 16.1553 21.2723 16.2899 21.1377C16.4244 21.0032 16.5 20.8207 16.5 20.6304V15.788C16.5 15.6929 16.4622 15.6017 16.3949 15.5344C16.3277 15.4671 16.2364 15.4294 16.1413 15.4294H10.5241C10.4743 15.4254 10.4242 15.4317 10.377 15.4479C10.3297 15.4641 10.2862 15.4898 10.2493 15.5234C10.2123 15.557 10.1826 15.5978 10.162 15.6433C10.1414 15.6888 10.1304 15.7381 10.1296 15.788V16.0607Z" fill="#4C2399"/>
<path d="M8.69504 14.353H7.80547C7.71034 14.353 7.61911 14.3908 7.55184 14.4581C7.48457 14.5254 7.44678 14.6166 7.44678 14.7117V16.0604C7.44678 16.2735 7.53143 16.4779 7.68211 16.6286C7.83279 16.7792 8.03716 16.8639 8.25026 16.8639C8.46335 16.8639 8.66772 16.7792 8.8184 16.6286C8.96908 16.4779 9.05373 16.2735 9.05373 16.0604V14.7117C9.05373 14.6166 9.01594 14.5254 8.94867 14.4581C8.88141 14.3908 8.79017 14.353 8.69504 14.353Z" fill="#4C2399"/>
<path d="M19 1C18.0111 1 17.0444 1.29324 16.2222 1.84265C15.3999 2.39206 14.759 3.17295 14.3806 4.08658C14.0022 5.00021 13.9031 6.00555 14.0961 6.97545C14.289 7.94536 14.7652 8.83627 15.4645 9.53553C16.1637 10.2348 17.0546 10.711 18.0245 10.9039C18.9945 11.0969 19.9998 10.9978 20.9134 10.6194C21.827 10.241 22.6079 9.6001 23.1573 8.77785C23.7068 7.9556 24 6.98891 24 6C24 4.67392 23.4732 3.40215 22.5355 2.46447C21.5979 1.52678 20.3261 1 19 1ZM20.125 5.05H20.4667C20.5495 5.05 20.629 5.08292 20.6876 5.14153C20.7462 5.20013 20.7792 5.27962 20.7792 5.3625C20.7792 5.44538 20.7462 5.52486 20.6876 5.58347C20.629 5.64208 20.5495 5.675 20.4667 5.675H20.125C20.0522 6.02792 19.8599 6.34493 19.5806 6.57263C19.3013 6.80032 18.952 6.92477 18.5917 6.925H18.5125L20.0625 8.475C20.121 8.53359 20.1539 8.61302 20.1539 8.69583C20.1539 8.77864 20.121 8.85807 20.0625 8.91667C20.0035 8.97453 19.9243 9.00737 19.8417 9.00833C19.7592 9.00654 19.6804 8.97382 19.6208 8.91667L17.5375 6.83333C17.4942 6.78912 17.4649 6.7332 17.453 6.67248C17.4412 6.61176 17.4474 6.5489 17.4708 6.49167C17.4936 6.43596 17.5321 6.38814 17.5818 6.35408C17.6314 6.32002 17.6898 6.30122 17.75 6.3H18.5833C18.7771 6.29989 18.9661 6.23973 19.1243 6.12781C19.2825 6.01588 19.4021 5.85769 19.4667 5.675H17.75C17.6671 5.675 17.5876 5.64208 17.529 5.58347C17.4704 5.52486 17.4375 5.44538 17.4375 5.3625C17.4375 5.27962 17.4704 5.20013 17.529 5.14153C17.5876 5.08292 17.6671 5.05 17.75 5.05H19.4667C19.4026 4.86697 19.2831 4.70843 19.1248 4.59642C18.9665 4.48442 18.7773 4.4245 18.5833 4.425H17.75C17.6671 4.425 17.5876 4.39208 17.529 4.33347C17.4704 4.27487 17.4375 4.19538 17.4375 4.1125C17.4375 4.02962 17.4704 3.95013 17.529 3.89153C17.5876 3.83292 17.6671 3.8 17.75 3.8H20.4583C20.5412 3.8 20.6207 3.83292 20.6793 3.89153C20.7379 3.95013 20.7708 4.02962 20.7708 4.1125C20.7708 4.19538 20.7379 4.27487 20.6793 4.33347C20.6207 4.39208 20.5412 4.425 20.4583 4.425H19.8333C19.976 4.60893 20.0757 4.8225 20.125 5.05Z" fill="#4C2399"/>
</svg>
