<svg width="24" height="24" viewBox="0 0 24 24" fill="none" xmlns="http://www.w3.org/2000/svg">
<g clip-path="url(#clip0_4015_1353)">
<path fill-rule="evenodd" clip-rule="evenodd" d="M5.06885 9.47147V5.61924H0.86377C0.725698 5.61924 0.61377 5.50731 0.61377 5.36924V0.914551C0.61377 0.77648 0.725699 0.664551 0.86377 0.664551H5.31846C5.45653 0.664551 5.56846 0.77648 5.56846 0.914551V5.11923H9.52197V0.914551C9.52197 0.77648 9.6339 0.664551 9.77197 0.664551H14.2267C14.3647 0.664551 14.4767 0.77648 14.4767 0.914551V5.11923H18.4321V0.914551C18.4321 0.77648 18.5441 0.664551 18.6821 0.664551H23.1368C23.2749 0.664551 23.3868 0.77648 23.3868 0.914551V5.36924C23.3868 5.50731 23.2749 5.61924 23.1368 5.61924H18.9317V9.47147H23.1368C23.2749 9.47147 23.3868 9.5834 23.3868 9.72147V14.1762C23.3868 14.3142 23.2749 14.4262 23.1368 14.4262H18.9317V18.3808H23.1368C23.2749 18.3808 23.3868 18.4928 23.3868 18.6308V23.0855C23.3868 23.2236 23.2749 23.3355 23.1368 23.3355H18.6821C18.5441 23.3355 18.4321 23.2236 18.4321 23.0855V18.8808H14.4767V23.0855C14.4767 23.2236 14.3647 23.3355 14.2267 23.3355H9.77197C9.6339 23.3355 9.52197 23.2236 9.52197 23.0855V18.8808H5.56846V23.0855C5.56846 23.2236 5.45653 23.3355 5.31846 23.3355H0.86377C0.725698 23.3355 0.61377 23.2236 0.61377 23.0855V18.6308C0.61377 18.4928 0.725699 18.3808 0.86377 18.3808H5.06885V14.4262H0.86377C0.725698 14.4262 0.61377 14.3142 0.61377 14.1762V9.72147C0.61377 9.5834 0.725699 9.47147 0.86377 9.47147H5.06885ZM18.4321 10.0739V13.9261H14.4767V10.0739H18.4321ZM13.9771 14.4262V18.3808H10.0235V14.4262H13.9771ZM13.9771 5.61924V9.47147H10.0235V5.61924H13.9771ZM9.52197 10.0739V13.9261H5.56846V10.0739H9.52197Z" fill="#4C2399"/>
</g>
<defs>
<clipPath id="clip0_4015_1353">
<rect width="24" height="24" fill="white"/>
</clipPath>
</defs>
</svg>
