<svg width="56" height="46" viewBox="0 0 56 46" fill="none" xmlns="http://www.w3.org/2000/svg">
<path fill-rule="evenodd" clip-rule="evenodd" d="M17.1251 14.5C17.1251 8.4939 21.994 3.625 28.0001 3.625C34.0062 3.625 38.8751 8.4939 38.8751 14.5C38.8751 20.5061 34.0062 25.375 28.0001 25.375C21.994 25.375 17.1251 20.5061 17.1251 14.5Z" fill="#4C2399"/>
<path fill-rule="evenodd" clip-rule="evenodd" d="M8.06558 48.5879C8.25248 37.7376 17.1057 29 28.0001 29C38.8947 29 47.7481 37.738 47.9346 48.5887C47.9469 49.3083 47.5324 49.967 46.8782 50.2672C41.1291 52.9052 34.7342 54.375 28.0008 54.375C21.2669 54.375 14.8714 52.9049 9.12184 50.2664C8.46773 49.9662 8.05318 49.3075 8.06558 48.5879Z" fill="#4C2399"/>
</svg>
