<svg width="24" height="24" viewBox="0 0 24 24" fill="none" xmlns="http://www.w3.org/2000/svg">
<g clip-path="url(#clip0_4020_1683)">
<path d="M12 15.3999C12.5223 15.6416 12.9641 16.0285 13.2726 16.5143C13.5811 17.0001 13.7434 17.5644 13.74 18.1399V19.2799C13.74 19.4788 13.661 19.6696 13.5204 19.8103C13.3797 19.9509 13.189 20.0299 12.99 20.0299C12.7911 20.0299 12.6004 19.9509 12.4597 19.8103C12.3191 19.6696 12.24 19.4788 12.24 19.2799V18.1399C12.2401 17.7359 12.0802 17.3482 11.7955 17.0616C11.5107 16.7749 11.1241 16.6126 10.72 16.6099C10.5211 16.6099 10.3304 16.5309 10.1897 16.3903C10.0491 16.2496 9.97005 16.0588 9.97005 15.8599V14.1499C9.90947 13.9422 9.78314 13.7598 9.61005 13.6299C9.43695 13.5001 9.22642 13.4299 9.01005 13.4299C8.79368 13.4299 8.58314 13.5001 8.41005 13.6299C8.23695 13.7598 8.11063 13.9422 8.05005 14.1499V19.2799C8.05001 19.6796 8.20741 20.0632 8.48815 20.3477C8.7689 20.6322 9.1504 20.7947 9.55005 20.7999V23.9999H16.33V21.2799C16.693 21.0872 16.9965 20.7991 17.208 20.4467C17.4194 20.0943 17.5308 19.6909 17.53 19.2799V15.3999H12Z" fill="#4C2399"/>
<path d="M23.0001 0H1.00006C0.715314 0.0254992 0.451683 0.160852 0.26502 0.377382C0.0783557 0.593912 -0.0166767 0.874608 5.63785e-05 1.16V12.73C-0.0166767 13.0154 0.0783557 13.2961 0.26502 13.5126C0.451683 13.7291 0.715314 13.8645 1.00006 13.89H6.60006C6.66682 13.2882 6.95316 12.7322 7.40427 12.3284C7.85539 11.9245 8.43959 11.7012 9.04506 11.7012C9.65052 11.7012 10.2347 11.9245 10.6858 12.3284C11.137 12.7322 11.4233 13.2882 11.4901 13.89H23.0001C23.2848 13.8645 23.5484 13.7291 23.7351 13.5126C23.9218 13.2961 24.0168 13.0154 24.0001 12.73V1.16C24.0168 0.874608 23.9218 0.593912 23.7351 0.377382C23.5484 0.160852 23.2848 0.0254992 23.0001 0ZM6.42006 10.61C5.61664 10.612 4.8307 10.3755 4.16172 9.93063C3.49275 9.48572 2.97081 8.85233 2.66198 8.11064C2.35316 7.36895 2.27133 6.5523 2.42685 5.76408C2.58238 4.97586 2.96826 4.2515 3.53567 3.6827C4.10307 3.1139 4.82647 2.72623 5.6143 2.56876C6.40214 2.41129 7.21898 2.49111 7.96143 2.7981C8.70388 3.1051 9.33856 3.62547 9.78512 4.29335C10.2317 4.96123 10.4701 5.74658 10.4701 6.55C10.4701 7.62505 10.0437 8.65621 9.28445 9.41732C8.52521 10.1784 7.4951 10.6074 6.42006 10.61ZM18.0001 9H14.0001C13.8011 9 13.6104 8.92098 13.4697 8.78033C13.3291 8.63968 13.2501 8.44891 13.2501 8.25C13.2501 8.05109 13.3291 7.86032 13.4697 7.71967C13.6104 7.57902 13.8011 7.5 14.0001 7.5H18.0001C18.199 7.5 18.3897 7.57902 18.5304 7.71967C18.671 7.86032 18.7501 8.05109 18.7501 8.25C18.7501 8.44891 18.671 8.63968 18.5304 8.78033C18.3897 8.92098 18.199 9 18.0001 9ZM21.2401 5.06H14.0001C13.8011 5.06 13.6104 4.98098 13.4697 4.84033C13.3291 4.69968 13.2501 4.50891 13.2501 4.31C13.2501 4.11109 13.3291 3.92032 13.4697 3.77967C13.6104 3.63902 13.8011 3.56 14.0001 3.56H21.2101C21.409 3.56 21.5997 3.63902 21.7404 3.77967C21.881 3.92032 21.9601 4.11109 21.9601 4.31C21.9601 4.50891 21.881 4.69968 21.7404 4.84033C21.5997 4.98098 21.409 5.06 21.2101 5.06H21.2401Z" fill="#4C2399"/>
<path d="M8.58003 4.37009C8.42467 4.26586 8.23596 4.22347 8.05095 4.25122C7.86593 4.27897 7.69797 4.37487 7.58003 4.52009L5.65003 7.00009L5.23003 6.58009C5.16421 6.49826 5.08194 6.43117 4.98855 6.38316C4.89516 6.33514 4.79272 6.30728 4.68788 6.30136C4.58304 6.29545 4.47812 6.31161 4.37992 6.34882C4.28172 6.38602 4.19242 6.44343 4.11782 6.51733C4.04321 6.59124 3.98496 6.67998 3.94683 6.77782C3.90869 6.87567 3.89153 6.98043 3.89645 7.08532C3.90138 7.19022 3.92827 7.29291 3.9754 7.38675C4.02252 7.4806 4.08883 7.5635 4.17003 7.63009L5.17003 8.63009C5.2453 8.70659 5.33612 8.76604 5.43634 8.80442C5.53657 8.84281 5.64386 8.85924 5.75098 8.85261C5.8581 8.84597 5.96255 8.81642 6.05727 8.76596C6.15198 8.7155 6.23477 8.64529 6.30003 8.56009L8.70003 5.39009C8.81353 5.23671 8.8643 5.04583 8.84201 4.85633C8.81971 4.66682 8.72603 4.49294 8.58003 4.37009Z" fill="#4C2399"/>
</g>
<defs>
<clipPath id="clip0_4020_1683">
<rect width="24" height="24" fill="white"/>
</clipPath>
</defs>
</svg>
