<svg width="223" height="40" viewBox="0 0 223 40" fill="none" xmlns="http://www.w3.org/2000/svg">
<g clip-path="url(#clip0_1799_18865)">
<path d="M20.7293 17.1851C20.4561 16.8245 20.2061 16.4704 19.9313 16.1362C19.3559 15.4378 18.6656 14.878 17.8749 14.426C17.2306 14.0579 16.5605 13.7691 15.8412 13.5938C14.8921 13.3628 13.9309 13.3311 12.9605 13.4203C12.1545 13.4944 11.3721 13.6641 10.6476 14.022C10.1479 14.2688 9.66689 14.5568 9.19806 14.8576C8.98153 14.9967 8.83197 15.2348 8.62153 15.3868C8.14281 15.7326 7.787 16.1861 7.46429 16.662C6.77361 17.6809 6.31962 18.7974 6.11869 20.0159C5.99996 20.7348 5.96076 21.4567 6.00757 22.1782C6.09243 23.4772 6.43721 24.712 7.08489 25.8481C7.45973 26.5054 7.90991 27.1169 8.48073 27.6222C8.71438 27.8289 8.99599 27.9873 9.2696 28.1434C10.2297 28.6914 11.2663 29.0384 12.357 29.2017C13.0541 29.306 13.7612 29.3649 14.4678 29.2584C15.0158 29.1756 15.5722 29.1234 16.1076 28.9896C16.9749 28.7738 17.7873 28.4121 18.5503 27.9427C19.2452 27.5149 19.859 26.9922 20.4294 26.4139C21.2073 25.6255 21.8961 24.7672 22.4741 23.8253C22.876 23.1707 23.2793 22.5146 23.6306 21.8327C23.9685 21.1766 24.2459 20.4891 24.5389 19.8107C24.7433 19.3383 24.9282 18.8579 25.1235 18.3817C25.219 18.1492 25.1874 18.0982 24.9389 18.0838C24.1847 18.0407 23.4304 17.9988 22.6766 17.9508C22.2336 17.9224 21.791 17.8839 21.3005 17.8461C25.2403 14.9321 29.1561 12.0351 33.0917 9.12373C33.0959 9.17249 33.1004 9.20385 33.1004 9.2356C33.1164 10.7293 33.1309 12.2229 33.1472 13.7166C33.1606 14.9211 33.1762 16.1257 33.1906 17.3302C33.2051 18.5347 33.2184 19.7393 33.2336 20.9438C33.2458 21.8736 33.2599 22.8029 33.2724 23.7323C33.2736 23.7992 33.2728 23.8661 33.2728 23.9961C33.0281 23.6564 32.8215 23.3699 32.6152 23.0826C32.1605 22.4488 31.7073 21.8138 31.2498 21.1819C31.2 21.1135 31.1258 21.0621 31.0626 21.0031C31.0154 21.0689 30.9591 21.1297 30.9226 21.2008C30.4294 22.1559 29.948 23.117 29.4438 24.0664C29.2109 24.5045 28.9514 24.9312 28.6747 25.3439C28.0852 26.2219 27.4859 27.0934 26.8717 27.9544C26.638 28.2817 26.3602 28.5788 26.09 28.8789C25.6227 29.3982 25.1535 29.9167 24.6691 30.4206C24.4286 30.6708 24.1527 30.887 23.8924 31.1183C23.6051 31.3734 23.3345 31.6508 23.027 31.8787C22.4623 32.2975 21.8949 32.7181 21.294 33.0813C20.4055 33.618 19.4671 34.0735 18.4773 34.3894C17.7451 34.623 16.9832 34.7715 16.2279 34.9242C15.2776 35.1162 14.3099 35.0762 13.3498 35.0452C12.2945 35.0112 11.2477 34.8755 10.2221 34.6139C9.31032 34.3815 8.43392 34.0557 7.58264 33.6528C6.63623 33.2049 5.7488 32.6633 4.93329 32.0166C4.00705 31.2827 3.19116 30.4372 2.49819 29.4757C1.7234 28.3996 1.11453 27.2397 0.692506 25.9879C0.409761 25.1478 0.190188 24.2875 0.117884 23.4001C0.0634665 22.7292 -0.00769629 22.0561 0.000675691 21.3852C0.0170391 20.1236 0.177629 18.8753 0.582528 17.6722C0.791447 17.0516 0.991234 16.4201 1.28387 15.8373C1.91329 14.5829 2.65383 13.3942 3.67559 12.4036C4.06794 12.023 4.43326 11.6103 4.85566 11.266C5.5551 10.696 6.31048 10.2009 7.11191 9.77607C8.00771 9.30099 8.94005 8.91208 9.91957 8.65431C10.5688 8.48386 11.237 8.38143 11.8995 8.26275C12.8806 8.08663 13.8746 8.10213 14.8621 8.14635C15.8945 8.19246 16.922 8.32965 17.9144 8.63693C18.5111 8.82137 19.1017 9.03037 19.6836 9.25752C20.5935 9.61204 21.4489 10.0792 22.2328 10.6559C22.8569 11.1155 23.4624 11.6054 24.0321 12.1284C24.4328 12.4962 24.7669 12.9369 25.1178 13.356C25.4393 13.7404 25.4222 13.734 25.0028 14.0284C24.5736 14.3296 24.1687 14.6653 23.7467 14.9771C23.3208 15.2915 22.884 15.5916 22.4566 15.9046C21.8786 16.3282 21.3055 16.7576 20.7293 17.1851Z" fill="#F3F4F6"/>
<path d="M21.7503 23.3145C21.9611 21.7694 21.9112 20.2462 21.3998 18.7102C22.2769 18.7719 23.121 18.8308 23.9943 18.8917C23.3839 20.4469 22.6776 21.9308 21.7503 23.3145Z" fill="#F3F4F6"/>
<path d="M52.9269 33.4876C52.071 34.0005 51.1714 34.3777 50.2273 34.6196C49.2831 34.8615 48.25 34.9824 47.1293 34.9824C43.7066 34.9824 40.918 33.9019 38.7641 31.7404C36.6103 29.5792 35.5337 26.7699 35.5337 23.3116C35.5337 19.9271 36.6179 17.1688 38.7866 15.0368C40.9549 12.9051 43.7656 11.8389 47.2176 11.8389C48.3683 11.8389 49.4007 11.9489 50.3159 12.1689C51.2304 12.3885 52.1007 12.7328 52.9269 13.2018L52.8827 19.4875C52.219 18.8136 51.4515 18.2936 50.5812 17.927C49.7109 17.5611 48.7888 17.3774 47.815 17.3774C46.0447 17.3774 44.6283 17.916 43.5662 18.9928C42.5041 20.07 41.9733 21.4952 41.9733 23.2678C41.9733 25.085 42.5155 26.5314 43.5993 27.6086C44.6839 28.6854 46.1478 29.2239 47.992 29.2239C49.0099 29.2239 49.9137 29.0406 50.703 28.6744C51.4918 28.3082 52.219 27.7371 52.8827 26.96L52.9269 33.4876Z" fill="#F3F4F6"/>
<path d="M58.4597 34.126V17.4662H55.4279V12.5653H58.4597V5.40051H64.7664V12.5653H67.7982V17.4662H64.7664V34.126H58.4597Z" fill="#F3F4F6"/>
<path d="M71.9356 12.5624H78.2203V34.123H71.9356V12.5624ZM71.3823 3.70511C71.3823 2.70883 71.7438 1.85163 72.4669 1.13391C73.1895 0.416176 74.0526 0.0567398 75.0561 0.0567398C76.0737 0.0567398 76.9478 0.412018 77.678 1.12257C78.4083 1.8335 78.7736 2.69409 78.7736 3.70511C78.7736 4.71614 78.4083 5.58089 77.678 6.29862C76.9478 7.01673 76.0737 7.3754 75.0561 7.3754C74.0526 7.3754 73.1895 7.00954 72.4669 6.27669C71.7438 5.54422 71.3823 4.68703 71.3823 3.70511Z" fill="#F3F4F6"/>
<path d="M89.9705 34.126L81.1411 12.5653H88.4217L92.0951 23.7743C92.3896 24.6829 92.6263 25.5253 92.8029 26.3016C92.9802 27.0787 93.1051 27.8403 93.1796 28.5875C93.3562 27.4593 93.5332 26.4997 93.7105 25.7082C93.8875 24.9172 94.0941 24.1995 94.33 23.5543L98.0255 12.5653H105.195L96.2773 34.126H89.9705Z" fill="#F3F4F6"/>
<path d="M117.798 23.2524C117.798 25.2011 118.281 26.7178 119.248 27.8018C120.214 28.8865 121.56 29.4281 123.286 29.4281C125.012 29.4281 126.358 28.8865 127.325 27.8018C128.291 26.7178 128.774 25.2011 128.774 23.2524C128.774 21.3041 128.284 19.7688 127.303 18.6478C126.321 17.5272 124.968 16.9667 123.242 16.9667C121.575 16.9667 120.251 17.531 119.27 18.6592C118.288 19.7873 117.798 21.3184 117.798 23.2524ZM112.045 43.8682V12.505H118.086V16.0653C118.912 14.6298 119.926 13.5564 121.129 12.8455C122.331 12.135 123.729 11.7797 125.322 11.7797C128.405 11.7797 130.817 12.7945 132.558 14.8237C134.299 16.8533 135.169 19.6849 135.169 23.3182C135.169 26.8203 134.292 29.63 132.536 31.7472C130.78 33.8645 128.472 34.9228 125.61 34.9228C123.883 34.9228 122.419 34.6042 121.217 33.967C120.014 33.3294 118.985 32.3297 118.13 30.9668C118.204 31.5091 118.259 32.0987 118.296 32.736C118.333 33.3736 118.351 34.1023 118.351 34.9228V43.8682H112.045Z" fill="#F3F4F6"/>
<path d="M155.971 23.2515C155.971 21.3175 155.481 19.7864 154.5 18.6582C153.519 17.53 152.195 16.9658 150.528 16.9658C148.816 16.9658 147.47 17.5263 146.489 18.6469C145.508 19.7679 145.018 21.3031 145.018 23.2515C145.018 25.2002 145.5 26.7169 146.467 27.8009C147.433 28.8856 148.772 29.4272 150.484 29.4272C152.224 29.4272 153.574 28.8856 154.533 27.8009C155.492 26.7169 155.971 25.2002 155.971 23.2515ZM161.725 34.0647H155.618L155.706 30.9659C154.85 32.3287 153.821 33.3284 152.619 33.966C151.416 34.6033 149.953 34.9219 148.226 34.9219C145.35 34.9219 143.03 33.8598 141.266 31.735C139.504 29.6109 138.622 26.8046 138.622 23.3172C138.622 19.684 139.489 16.8524 141.222 14.8228C142.956 12.7936 145.364 11.7788 148.448 11.7788C150.056 11.7788 151.468 12.1382 152.685 12.8559C153.902 13.574 154.924 14.6436 155.75 16.0644V12.504H161.725V34.0647Z" fill="#F3F4F6"/>
<path d="M167.899 12.5067H174.183V34.0674H167.899V12.5067ZM167.345 3.64944C167.345 2.65316 167.707 1.79634 168.43 1.07823C169.153 0.3605 170.016 0.00107574 171.019 0.00107574C172.037 0.00107574 172.911 0.356724 173.641 1.06689C174.371 1.77782 174.737 2.63842 174.737 3.64944C174.737 4.66046 174.371 5.52522 173.641 6.24295C172.911 6.96105 172.037 7.31973 171.019 7.31973C170.016 7.31973 169.153 6.95388 168.43 6.22103C167.707 5.48856 167.345 4.63136 167.345 3.64944Z" fill="#F3F4F6"/>
<path d="M178.455 30.2844L183.301 27.8009C183.463 28.6362 183.899 29.2953 184.607 29.7791C185.315 30.2625 186.192 30.5044 187.24 30.5044C188.273 30.5044 189.084 30.3173 189.674 29.9439C190.264 29.5701 190.56 29.0538 190.56 28.3943C190.56 27.3541 189.512 26.4822 187.417 25.7788C186.768 25.5593 186.251 25.3759 185.868 25.2293C183.315 24.2769 181.549 23.3172 180.568 22.3501C179.587 21.3833 179.097 20.1893 179.097 18.7678C179.097 16.6577 179.93 14.9513 181.597 13.6466C183.264 12.343 185.462 11.6907 188.192 11.6907C190.139 11.6907 191.824 12.0792 193.248 12.8555C194.672 13.6322 195.708 14.7313 196.357 16.1524L191.733 18.4383C191.481 17.6325 191.047 17.0206 190.427 16.6029C189.807 16.1853 189.033 15.9767 188.103 15.9767C187.174 15.9767 186.421 16.1672 185.846 16.5481C185.271 16.9291 184.983 17.4269 184.983 18.0425C184.983 19.1122 186.414 20.1084 189.276 21.0318C189.615 21.1342 189.874 21.2147 190.051 21.2733C192.426 22.05 194.114 22.9544 195.118 23.9877C196.121 25.0207 196.623 26.3359 196.623 27.9328C196.623 30.072 195.789 31.7716 194.122 33.0317C192.455 34.2918 190.206 34.9219 187.373 34.9219C185.13 34.9219 183.216 34.5076 181.63 33.6799C180.045 32.8522 178.986 31.7206 178.455 30.2844Z" fill="#F3F4F6"/>
<path d="M217.247 23.2515C217.247 21.3175 216.756 19.7864 215.775 18.6582C214.794 17.53 213.47 16.9658 211.803 16.9658C210.091 16.9658 208.745 17.5263 207.764 18.6469C206.783 19.7679 206.293 21.3031 206.293 23.2515C206.293 25.2002 206.776 26.7169 207.742 27.8009C208.708 28.8856 210.047 29.4272 211.759 29.4272C213.499 29.4272 214.849 28.8856 215.809 27.8009C216.767 26.7169 217.247 25.2002 217.247 23.2515ZM223 34.0647H216.893L216.981 30.9659C216.126 32.3287 215.097 33.3284 213.894 33.966C212.692 34.6033 211.228 34.9219 209.502 34.9219C206.625 34.9219 204.305 33.8598 202.542 31.735C200.779 29.6109 199.898 26.8046 199.898 23.3172C199.898 19.684 200.764 16.8524 202.498 14.8228C204.231 12.7936 206.639 11.7788 209.723 11.7788C211.331 11.7788 212.744 12.1382 213.961 12.8559C215.178 13.574 216.199 14.6436 217.026 16.0644V12.504H223V34.0647Z" fill="#F3F4F6"/>
</g>
<defs>
<clipPath id="clip0_1799_18865">
<rect width="223" height="43.8689" fill="white"/>
</clipPath>
</defs>
</svg>
