<svg width="24" height="24" viewBox="0 0 24 24" fill="none" xmlns="http://www.w3.org/2000/svg">
<g clip-path="url(#clip0_177_4506)">
<path d="M8.22005 19.4799C8.2846 19.4773 8.34565 19.4499 8.3904 19.4033C8.43514 19.3566 8.4601 19.2945 8.46005 19.2299V16.8899C8.45956 16.8185 8.4308 16.7502 8.38005 16.6999C8.35604 16.6777 8.32756 16.6608 8.29652 16.6505C8.26548 16.6401 8.23259 16.6365 8.20005 16.6399H7.00005C4.89737 16.6924 2.80101 16.3881 0.800049 15.7399C0.764777 15.7207 0.725234 15.7106 0.685049 15.7106C0.644863 15.7106 0.60532 15.7207 0.570049 15.7399C0.527652 15.7671 0.494465 15.8065 0.474836 15.8529C0.455208 15.8993 0.450053 15.9505 0.460049 15.9999V18.1499C0.460049 18.8999 3.39005 19.4999 7.00005 19.4999L8.22005 19.4799Z" fill="#4C2399"/>
<path d="M7.00001 7.65997C9.18972 7.76927 11.377 7.40074 13.41 6.57997C13.4502 6.55674 13.4835 6.52316 13.5064 6.48271C13.5293 6.44226 13.5409 6.39642 13.54 6.34997V3.99997C13.5405 3.95859 13.5307 3.91775 13.5115 3.8811C13.4923 3.84445 13.4643 3.81313 13.43 3.78997C13.3947 3.77071 13.3552 3.76062 13.315 3.76062C13.2748 3.76062 13.2353 3.77071 13.2 3.78997C11.199 4.43818 9.10268 4.74249 7.00001 4.68997C4.89733 4.74249 2.80096 4.43818 0.800005 3.78997C0.764733 3.77071 0.725191 3.76062 0.685005 3.76062C0.64482 3.76062 0.605277 3.77071 0.570005 3.78997C0.535724 3.81313 0.507729 3.84445 0.488531 3.8811C0.469333 3.91775 0.459531 3.95859 0.460005 3.99997V6.34997C0.459146 6.39642 0.470752 6.44226 0.493615 6.48271C0.516477 6.52316 0.549762 6.55674 0.590005 6.57997C2.62301 7.40074 4.81029 7.76927 7.00001 7.65997Z" fill="#4C2399"/>
<path d="M7.00001 3.65996C9.18972 3.76926 11.377 3.40073 13.41 2.57996C13.4502 2.55673 13.4835 2.52315 13.5064 2.4827C13.5293 2.44225 13.5409 2.39641 13.54 2.34996V1.92996C13.54 1.18996 10.61 0.579956 7.00001 0.579956C3.39001 0.579956 0.460005 1.18996 0.460005 1.92996V2.34996C0.459146 2.39641 0.470752 2.44225 0.493615 2.4827C0.516477 2.52315 0.549762 2.55673 0.590005 2.57996C2.62301 3.40073 4.81029 3.76926 7.00001 3.65996Z" fill="#4C2399"/>
<path d="M6.99994 15.6599H8.21994C8.25232 15.66 8.28436 15.6534 8.31415 15.6408C8.34394 15.6281 8.37086 15.6095 8.39328 15.5861C8.4157 15.5628 8.43317 15.5351 8.44462 15.5049C8.45608 15.4746 8.46129 15.4423 8.45994 15.4099V13.8499C8.45585 13.5597 8.50675 13.2713 8.60994 12.9999C8.62922 12.9629 8.63929 12.9217 8.63929 12.8799C8.63929 12.8382 8.62922 12.797 8.60994 12.7599C8.58539 12.7253 8.55209 12.6978 8.51344 12.6802C8.4748 12.6627 8.43218 12.6557 8.38994 12.6599H7.02994C4.92726 12.7125 2.8309 12.4081 0.82994 11.7599C0.794668 11.7407 0.755125 11.7306 0.71494 11.7306C0.674754 11.7306 0.635212 11.7407 0.59994 11.7599C0.555481 11.7816 0.518449 11.816 0.493528 11.8587C0.468607 11.9014 0.456918 11.9506 0.45994 11.9999V14.3499C0.459081 14.3964 0.470686 14.4422 0.493549 14.4827C0.516412 14.5231 0.549696 14.5567 0.58994 14.5799C2.62295 15.4007 4.81022 15.7692 6.99994 15.6599Z" fill="#4C2399"/>
<path d="M7.00001 11.66C9.17953 11.6321 11.3417 11.2678 13.41 10.58C13.4502 10.5567 13.4835 10.5232 13.5064 10.4827C13.5293 10.4423 13.5409 10.3964 13.54 10.35V7.99997C13.5405 7.95859 13.5307 7.91775 13.5115 7.8811C13.4923 7.84445 13.4643 7.81313 13.43 7.78997C13.3947 7.77071 13.3552 7.76062 13.315 7.76062C13.2748 7.76062 13.2353 7.77071 13.2 7.78997C11.199 8.43818 9.10268 8.74249 7.00001 8.68997C4.89733 8.74249 2.80096 8.43818 0.800005 7.78997C0.764733 7.77071 0.725191 7.76062 0.685005 7.76062C0.64482 7.76062 0.605277 7.77071 0.570005 7.78997C0.535724 7.81313 0.507729 7.84445 0.488531 7.8811C0.469333 7.91775 0.459531 7.95859 0.460005 7.99997V10.35C0.459146 10.3964 0.470752 10.4423 0.493615 10.4827C0.516477 10.5232 0.549762 10.5567 0.590005 10.58C2.62301 11.4007 4.81029 11.7693 7.00001 11.66Z" fill="#4C2399"/>
<path d="M10.8 15.68C10.7647 15.6607 10.7252 15.6506 10.685 15.6506C10.6448 15.6506 10.6053 15.6607 10.57 15.68C10.5358 15.7009 10.5077 15.7303 10.4884 15.7654C10.4691 15.8004 10.4593 15.84 10.46 15.88V18.24C10.4599 18.285 10.4719 18.3291 10.4948 18.3678C10.5176 18.4066 10.5505 18.4384 10.59 18.46C12.6181 19.3007 14.8069 19.6831 17 19.58C19.1908 19.6926 21.3795 19.3204 23.41 18.49C23.4494 18.4684 23.4823 18.4366 23.5052 18.3978C23.5281 18.3591 23.5401 18.315 23.54 18.27V15.91C23.5406 15.87 23.5308 15.8304 23.5116 15.7954C23.4923 15.7603 23.4641 15.7309 23.43 15.71C23.3947 15.6907 23.3552 15.6806 23.315 15.6806C23.2748 15.6806 23.2353 15.6907 23.2 15.71C21.199 16.3582 19.1027 16.6625 17 16.61C14.8956 16.6528 12.7992 16.3384 10.8 15.68Z" fill="#4C2399"/>
<path d="M17 20.58C14.8973 20.6325 12.8009 20.3282 10.8 19.68C10.7647 19.6607 10.7252 19.6506 10.685 19.6506C10.6448 19.6506 10.6053 19.6607 10.57 19.68C10.5358 19.7009 10.5077 19.7303 10.4884 19.7654C10.4691 19.8005 10.4593 19.84 10.46 19.88V22.04C10.46 22.78 13.39 23.39 17 23.39C20.61 23.39 23.54 22.78 23.54 22.04V19.91C23.5406 19.87 23.5308 19.8304 23.5116 19.7954C23.4923 19.7603 23.4641 19.7309 23.43 19.71C23.3947 19.6907 23.3552 19.6806 23.315 19.6806C23.2748 19.6806 23.2353 19.6907 23.2 19.71C21.1973 20.348 19.101 20.6422 17 20.58Z" fill="#4C2399"/>
<path d="M10.46 13.85V14.27C10.4598 14.315 10.4718 14.3591 10.4947 14.3979C10.5176 14.4366 10.5505 14.4684 10.59 14.49C12.6204 15.3205 14.8091 15.6926 17 15.58C19.1908 15.6926 21.3795 15.3205 23.41 14.49C23.4494 14.4684 23.4823 14.4366 23.5052 14.3979C23.5281 14.3591 23.5401 14.315 23.54 14.27V13.85C23.54 13.11 20.61 12.5 17 12.5C13.39 12.5 10.46 13.11 10.46 13.85Z" fill="#4C2399"/>
<path d="M18 4C17.2089 4 16.4355 4.2346 15.7777 4.67412C15.1199 5.11365 14.6072 5.73836 14.3045 6.46927C14.0017 7.20017 13.9225 8.00444 14.0769 8.78036C14.2312 9.55628 14.6122 10.269 15.1716 10.8284C15.731 11.3878 16.4437 11.7688 17.2196 11.9231C17.9956 12.0775 18.7998 11.9983 19.5307 11.6955C20.2616 11.3928 20.8864 10.8801 21.3259 10.2223C21.7654 9.56448 22 8.79112 22 8C22 6.93913 21.5786 5.92172 20.8284 5.17157C20.0783 4.42143 19.0609 4 18 4ZM18.9 7.24H19.1733C19.2396 7.24 19.3032 7.26634 19.3501 7.31322C19.397 7.36011 19.4233 7.4237 19.4233 7.49C19.4233 7.5563 19.397 7.61989 19.3501 7.66678C19.3032 7.71366 19.2396 7.74 19.1733 7.74H18.9C18.8417 8.02233 18.6879 8.27595 18.4645 8.4581C18.241 8.64026 17.9616 8.73982 17.6733 8.74H17.61L18.85 9.98C18.8968 10.0269 18.9231 10.0904 18.9231 10.1567C18.9231 10.2229 18.8968 10.2865 18.85 10.3333C18.8028 10.3796 18.7395 10.4059 18.6733 10.4067C18.6073 10.4052 18.5443 10.3791 18.4967 10.3333L16.83 8.66667C16.7954 8.6313 16.7719 8.58656 16.7624 8.53798C16.7529 8.48941 16.7579 8.43912 16.7767 8.39333C16.7949 8.34877 16.8257 8.31051 16.8654 8.28326C16.9051 8.25602 16.9519 8.24098 17 8.24H17.6667C17.8217 8.23991 17.9729 8.19178 18.0994 8.10224C18.226 8.01271 18.3217 7.88615 18.3733 7.74H17C16.9337 7.74 16.8701 7.71366 16.8232 7.66678C16.7763 7.61989 16.75 7.5563 16.75 7.49C16.75 7.4237 16.7763 7.36011 16.8232 7.31322C16.8701 7.26634 16.9337 7.24 17 7.24H18.3733C18.3221 7.09357 18.2265 6.96675 18.0999 6.87714C17.9732 6.78753 17.8218 6.7396 17.6667 6.74H17C16.9337 6.74 16.8701 6.71366 16.8232 6.66678C16.7763 6.61989 16.75 6.5563 16.75 6.49C16.75 6.4237 16.7763 6.36011 16.8232 6.31322C16.8701 6.26634 16.9337 6.24 17 6.24H19.1667C19.233 6.24 19.2966 6.26634 19.3434 6.31322C19.3903 6.36011 19.4167 6.4237 19.4167 6.49C19.4167 6.5563 19.3903 6.61989 19.3434 6.66678C19.2966 6.71366 19.233 6.74 19.1667 6.74H18.6667C18.7808 6.88715 18.8605 7.058 18.9 7.24Z" fill="#4C2399"/>
</g>
<defs>
<clipPath id="clip0_177_4506">
<rect width="24" height="24" fill="white"/>
</clipPath>
</defs>
</svg>
