<svg width="24" height="24" viewBox="0 0 24 24" fill="none" xmlns="http://www.w3.org/2000/svg">
<g clip-path="url(#clip0_175_4419)">
<path d="M12 1C10.8133 1 9.65328 1.35189 8.66658 2.01118C7.67989 2.67047 6.91085 3.60754 6.45673 4.7039C6.0026 5.80026 5.88378 7.00665 6.11529 8.17054C6.3468 9.33443 6.91825 10.4035 7.75736 11.2426C8.59648 12.0818 9.66557 12.6532 10.8295 12.8847C11.9933 13.1162 13.1997 12.9974 14.2961 12.5433C15.3925 12.0891 16.3295 11.3201 16.9888 10.3334C17.6481 9.34673 18 8.18669 18 7C18 5.4087 17.3679 3.88258 16.2426 2.75736C15.1174 1.63214 13.5913 1 12 1ZM13.35 5.86H13.76C13.8595 5.86 13.9548 5.89951 14.0252 5.96983C14.0955 6.04016 14.135 6.13554 14.135 6.235C14.135 6.33446 14.0955 6.42984 14.0252 6.50016C13.9548 6.57049 13.8595 6.61 13.76 6.61H13.35C13.2626 7.0335 13.0319 7.41392 12.6967 7.68715C12.3615 7.96039 11.9424 8.10972 11.51 8.11H11.415L13.275 9.97C13.3452 10.0403 13.3847 10.1356 13.3847 10.235C13.3847 10.3344 13.3452 10.4297 13.275 10.5C13.2041 10.5694 13.1092 10.6088 13.01 10.61C12.911 10.6078 12.8164 10.5686 12.745 10.5L10.245 8C10.1931 7.94694 10.1578 7.87984 10.1436 7.80698C10.1294 7.73411 10.1368 7.65868 10.165 7.59C10.1923 7.52316 10.2386 7.46576 10.2981 7.42489C10.3576 7.38403 10.4278 7.36147 10.5 7.36H11.5C11.7325 7.35986 11.9593 7.28767 12.1491 7.15337C12.339 7.01906 12.4825 6.82923 12.56 6.61H10.5C10.4005 6.61 10.3052 6.57049 10.2348 6.50016C10.1645 6.42984 10.125 6.33446 10.125 6.235C10.125 6.13554 10.1645 6.04016 10.2348 5.96983C10.3052 5.89951 10.4005 5.86 10.5 5.86H12.56C12.4831 5.64036 12.3397 5.45012 12.1498 5.31571C11.9598 5.1813 11.7327 5.1094 11.5 5.11H10.5C10.4005 5.11 10.3052 5.07049 10.2348 5.00016C10.1645 4.92984 10.125 4.83446 10.125 4.735C10.125 4.63554 10.1645 4.54016 10.2348 4.46983C10.3052 4.39951 10.4005 4.36 10.5 4.36H13.75C13.8495 4.36 13.9448 4.39951 14.0152 4.46983C14.0855 4.54016 14.125 4.63554 14.125 4.735C14.125 4.83446 14.0855 4.92984 14.0152 5.00016C13.9448 5.07049 13.8495 5.11 13.75 5.11H13C13.1712 5.33072 13.2908 5.587 13.35 5.86Z" fill="#4C2399"/>
<path d="M18 10C18 10.663 18.2634 11.2989 18.7322 11.7678C19.2011 12.2366 19.837 12.5 20.5 12.5C21.163 12.5 21.7989 12.2366 22.2678 11.7678C22.7366 11.2989 23 10.663 23 10C23 9.33696 22.7366 8.70107 22.2678 8.23223C21.7989 7.76339 21.163 7.5 20.5 7.5C19.837 7.5 19.2011 7.76339 18.7322 8.23223C18.2634 8.70107 18 9.33696 18 10Z" fill="#4C2399"/>
<path d="M20.5 13C19.5717 13 18.6815 13.3687 18.0251 14.0251C17.3687 14.6815 17 15.5717 17 16.5V18.5C17.0026 18.6318 17.0561 18.7575 17.1493 18.8507C17.2425 18.9439 17.3682 18.9974 17.5 19H18.32C18.383 18.9998 18.4437 19.0234 18.4901 19.066C18.5364 19.1087 18.565 19.1672 18.57 19.23L19 23.55C19.0124 23.6738 19.0706 23.7884 19.163 23.8717C19.2555 23.9549 19.3756 24.0006 19.5 24H21.5C21.6244 24.0006 21.7445 23.9549 21.837 23.8717C21.9294 23.7884 21.9876 23.6738 22 23.55L22.43 19.23C22.435 19.1672 22.4636 19.1087 22.5099 19.066C22.5563 19.0234 22.617 18.9998 22.68 19H23.5C23.6318 18.9974 23.7575 18.9439 23.8507 18.8507C23.9439 18.7575 23.9974 18.6318 24 18.5V16.5C24 15.5717 23.6313 14.6815 22.9749 14.0251C22.3185 13.3687 21.4283 13 20.5 13Z" fill="#4C2399"/>
<path d="M1 10C1 10.663 1.26339 11.2989 1.73223 11.7678C2.20107 12.2366 2.83696 12.5 3.5 12.5C4.16304 12.5 4.79893 12.2366 5.26777 11.7678C5.73661 11.2989 6 10.663 6 10C6 9.33696 5.73661 8.70107 5.26777 8.23223C4.79893 7.76339 4.16304 7.5 3.5 7.5C2.83696 7.5 2.20107 7.76339 1.73223 8.23223C1.26339 8.70107 1 9.33696 1 10Z" fill="#4C2399"/>
<path d="M0.500035 19H1.32003C1.38302 18.9998 1.44375 19.0234 1.4901 19.066C1.53645 19.1087 1.565 19.1672 1.57003 19.23L2.00003 23.55C2.01247 23.6738 2.07059 23.7884 2.16305 23.8717C2.2555 23.9549 2.37565 24.0006 2.50003 24H4.50003C4.62442 24.0006 4.74457 23.9549 4.83702 23.8717C4.92948 23.7884 4.9876 23.6738 5.00003 23.55L5.43003 19.23C5.43507 19.1672 5.46362 19.1087 5.50997 19.066C5.55632 19.0234 5.61705 18.9998 5.68003 19H6.50003C6.63184 18.9974 6.75754 18.9439 6.85076 18.8507C6.94397 18.7575 6.99747 18.6318 7.00003 18.5V16.5C7.00003 15.5717 6.63129 14.6815 5.97491 14.0251C5.31853 13.3687 4.42829 13 3.50003 13C2.57178 13 1.68154 13.3687 1.02516 14.0251C0.368784 14.6815 3.49242e-05 15.5717 3.49242e-05 16.5V18.5C-0.000764498 18.5656 0.0121683 18.6306 0.0380018 18.6909C0.0638353 18.7512 0.101998 18.8054 0.150035 18.85C0.194681 18.898 0.248885 18.9362 0.309164 18.962C0.369442 18.9879 0.434459 19.0008 0.500035 19Z" fill="#4C2399"/>
</g>
<defs>
<clipPath id="clip0_175_4419">
<rect width="24" height="24" fill="white"/>
</clipPath>
</defs>
</svg>
