<svg width="24" height="24" viewBox="0 0 24 24" fill="none" xmlns="http://www.w3.org/2000/svg">
<g clip-path="url(#clip0_177_4671)">
<path d="M16.3752 0.964844C14.9561 0.964844 13.5689 1.38565 12.389 2.17405C11.2091 2.96245 10.2894 4.08303 9.74636 5.39409C9.2033 6.70515 9.06122 8.1478 9.33806 9.53962C9.61491 10.9314 10.2983 12.2099 11.3017 13.2133C12.3051 14.2168 13.5836 14.9001 14.9754 15.177C16.3672 15.4538 17.8099 15.3117 19.121 14.7687C20.432 14.2256 21.5526 13.306 22.341 12.1261C23.1294 10.9461 23.5502 9.55892 23.5502 8.13984C23.5502 6.23692 22.7943 4.41193 21.4487 3.06635C20.1031 1.72078 18.2781 0.964844 16.3752 0.964844ZM17.9896 6.77659H18.4799C18.5988 6.77659 18.7129 6.82384 18.797 6.90794C18.8811 6.99204 18.9283 7.1061 18.9283 7.22503C18.9283 7.34396 18.8811 7.45803 18.797 7.54212C18.7129 7.62622 18.5988 7.67347 18.4799 7.67347H17.9896C17.8851 8.1799 17.6091 8.63483 17.2083 8.96157C16.8075 9.28831 16.3063 9.46689 15.7892 9.46722H15.6756L17.8999 11.6915C17.9839 11.7756 18.031 11.8895 18.031 12.0084C18.031 12.1272 17.9839 12.2412 17.8999 12.3253C17.8151 12.4083 17.7016 12.4554 17.583 12.4568C17.4646 12.4542 17.3515 12.4073 17.2661 12.3253L14.2765 9.33568C14.2144 9.27223 14.1723 9.19199 14.1553 9.10486C14.1383 9.01772 14.1472 8.92752 14.1808 8.84539C14.2135 8.76545 14.2688 8.69682 14.34 8.64795C14.4112 8.59908 14.4951 8.5721 14.5814 8.57034H15.7773C16.0554 8.57018 16.3265 8.48386 16.5535 8.32325C16.7805 8.16264 16.9522 7.93563 17.0449 7.67347H14.5814C14.4625 7.67347 14.3485 7.62622 14.2644 7.54212C14.1803 7.45803 14.133 7.34396 14.133 7.22503C14.133 7.1061 14.1803 6.99204 14.2644 6.90794C14.3485 6.82384 14.4625 6.77659 14.5814 6.77659H17.0449C16.9529 6.51394 16.7815 6.28644 16.5543 6.12571C16.3271 5.96498 16.0556 5.879 15.7773 5.87972H14.5814C14.4625 5.87972 14.3485 5.83247 14.2644 5.74837C14.1803 5.66428 14.133 5.55021 14.133 5.43128C14.133 5.31235 14.1803 5.19829 14.2644 5.11419C14.3485 5.03009 14.4625 4.98284 14.5814 4.98284H18.4679C18.5868 4.98284 18.7009 5.03009 18.785 5.11419C18.8691 5.19829 18.9163 5.31235 18.9163 5.43128C18.9163 5.55021 18.8691 5.66428 18.785 5.74837C18.7009 5.83247 18.5868 5.87972 18.4679 5.87972H17.571C17.7758 6.14366 17.9188 6.45013 17.9896 6.77659Z" fill="#4C2399"/>
<path d="M20.4402 18.0003L16.9202 19.2003C16.8861 19.2104 16.8547 19.2283 16.8287 19.2526C16.8027 19.2769 16.7827 19.3069 16.7702 19.3403C16.6175 19.6854 16.3703 19.9803 16.0571 20.1909C15.7439 20.4015 15.3774 20.5191 15.0002 20.5303H11.0002C10.8676 20.5303 10.7404 20.4776 10.6466 20.3838C10.5529 20.2901 10.5002 20.1629 10.5002 20.0303C10.5002 19.8977 10.5529 19.7705 10.6466 19.6767C10.7404 19.583 10.8676 19.5303 11.0002 19.5303H15.0002C15.2654 19.5303 15.5198 19.4249 15.7073 19.2374C15.8948 19.0498 16.0002 18.7955 16.0002 18.5303C16.0002 18.2651 15.8948 18.0107 15.7073 17.8232C15.5198 17.6356 15.2654 17.5303 15.0002 17.5303H11.5002C11.1902 17.5303 9.9902 16.0303 7.5002 16.0303H5.3902C4.76901 16.0294 4.15616 16.1732 3.6002 16.4503L0.580196 18.0003C0.540743 18.0219 0.507843 18.0537 0.484964 18.0924C0.462085 18.1311 0.450073 18.1753 0.450196 18.2203V23.6203C0.450928 23.6639 0.462227 23.7067 0.483127 23.745C0.504026 23.7834 0.533902 23.816 0.570196 23.8403C0.610031 23.8622 0.654746 23.8736 0.700196 23.8736C0.745646 23.8736 0.790361 23.8622 0.830196 23.8403L4.0502 21.8403C4.17565 21.7617 4.31697 21.712 4.46396 21.6947C4.61095 21.6775 4.75994 21.693 4.9002 21.7403C14.9002 25.1003 11.5302 25.1103 22.7702 19.4303C22.8465 19.3927 22.9122 19.3366 22.9612 19.2671C23.0103 19.1976 23.0412 19.1169 23.0512 19.0324C23.0611 18.948 23.0497 18.8623 23.0181 18.7834C22.9865 18.7044 22.9357 18.6346 22.8702 18.5803C22.5522 18.2781 22.1599 18.0653 21.7332 17.9635C21.3065 17.8616 20.8604 17.8743 20.4402 18.0003Z" fill="#4C2399"/>
</g>
<defs>
<clipPath id="clip0_177_4671">
<rect width="24" height="24" fill="white"/>
</clipPath>
</defs>
</svg>
