<svg width="40" height="40" viewBox="0 0 40 40" fill="none" xmlns="http://www.w3.org/2000/svg">
<rect width="40" height="40" rx="6" fill="#F2EFFC"/>
<path fill-rule="evenodd" clip-rule="evenodd" d="M16.7711 15.4843C16.7711 16.0279 16.3891 16.4685 15.9178 16.4685H10.8533C10.382 16.4685 10 16.0279 10 15.4843C10 14.9407 10.382 14.5 10.8533 14.5H15.9178C16.3891 14.5 16.7711 14.9407 16.7711 15.4843ZM30 20C30 16.9624 27.8653 14.5 25.232 14.5H19.0642C18.593 14.5 18.211 14.9407 18.211 15.4843C18.211 16.0279 18.593 16.4685 19.0642 16.4685H21.5767C21.0558 17.1852 20.6904 18.0572 20.5403 19.0157H16.5545C16.0832 19.0157 15.7012 19.4564 15.7012 20C15.7012 20.5436 16.0832 20.9843 16.5545 20.9843H20.5403C20.6904 21.9427 21.0558 22.8148 21.5767 23.5315H14.9696C14.4983 23.5315 14.1163 23.9721 14.1163 24.5157C14.1163 25.0593 14.4983 25.5 14.9696 25.5H25.232C27.8653 25.5 30 23.0376 30 20ZM13.3847 20.9843C13.856 20.9843 14.238 20.5436 14.238 20C14.238 19.4564 13.856 19.0157 13.3847 19.0157H10.8533C10.382 19.0157 10 19.4564 10 20C10 20.5436 10.382 20.9843 10.8533 20.9843H13.3847ZM12.7214 24.5157C12.7214 25.0593 12.3394 25.5 11.8682 25.5H10.8533C10.382 25.5 10 25.0593 10 24.5157C10 23.9721 10.382 23.5315 10.8533 23.5315H11.8682C12.3394 23.5315 12.7214 23.9721 12.7214 24.5157Z" fill="#4C2399"/>
</svg>
