<svg width="24" height="24" viewBox="0 0 24 24" fill="none" xmlns="http://www.w3.org/2000/svg">
<path d="M6.00019 10.23C6.17198 10.2295 6.34074 10.1848 6.49019 10.1001C6.64466 10.0132 6.77328 9.88691 6.86289 9.73405C6.95251 9.58118 6.99989 9.40725 7.00019 9.23005V8.00005C7.00019 7.93375 7.02653 7.87016 7.07342 7.82327C7.1203 7.77639 7.18389 7.75005 7.25019 7.75005H17.3602C17.758 7.75005 18.1395 7.59201 18.4209 7.31071C18.7022 7.02941 18.8602 6.64787 18.8602 6.25005C18.8602 5.85223 18.7022 5.47069 18.4209 5.18939C18.1395 4.90809 17.758 4.75005 17.3602 4.75005H7.25019C7.21561 4.75016 7.18138 4.7431 7.14967 4.7293C7.11795 4.7155 7.08945 4.69528 7.06595 4.6699C7.04246 4.64453 7.02448 4.61455 7.01316 4.58187C7.00184 4.54919 6.99743 4.51452 7.00019 4.48005V3.23005C7.00016 3.05355 6.95342 2.88019 6.8647 2.72761C6.77599 2.57502 6.64847 2.44863 6.49509 2.36127C6.34172 2.27392 6.16796 2.22872 5.99146 2.23026C5.81496 2.2318 5.64202 2.28003 5.49019 2.37005L0.490194 5.37005C0.340972 5.45859 0.217356 5.58444 0.131496 5.73522C0.0456367 5.88601 0.000488281 6.05654 0.000488281 6.23005C0.000488281 6.40356 0.0456367 6.57409 0.131496 6.72488C0.217356 6.87566 0.340972 7.00151 0.490194 7.09005L5.49019 10.0901C5.64455 10.1816 5.82071 10.23 6.00019 10.23Z" fill="#4C2399"/>
<path d="M23.5101 16.9101L18.5101 13.9101C18.3583 13.8201 18.1854 13.7718 18.0089 13.7703C17.8324 13.7688 17.6586 13.814 17.5052 13.9013C17.3519 13.9887 17.2243 14.1151 17.1356 14.2676C17.0469 14.4202 17.0002 14.5936 17.0001 14.7701V16.0001C17.0001 16.0664 16.9738 16.13 16.9269 16.1769C16.88 16.2238 16.8164 16.2501 16.7501 16.2501H6.64014C6.24231 16.2501 5.86078 16.4081 5.57948 16.6894C5.29817 16.9707 5.14014 17.3523 5.14014 17.7501C5.14014 18.1479 5.29817 18.5294 5.57948 18.8107C5.86078 19.0921 6.24231 19.2501 6.64014 19.2501H16.7501C16.8164 19.2501 16.88 19.2764 16.9269 19.3233C16.9738 19.3702 17.0001 19.4338 17.0001 19.5001V20.7501C17.0004 20.9273 17.0478 21.1012 17.1374 21.2541C17.227 21.407 17.3557 21.5333 17.5101 21.6201C17.6596 21.7048 17.8283 21.7496 18.0001 21.7501C18.1796 21.75 18.3558 21.7017 18.5101 21.6101L23.5101 18.6101C23.6594 18.5215 23.783 18.3957 23.8688 18.2449C23.9547 18.0941 23.9998 17.9236 23.9998 17.7501C23.9998 17.5766 23.9547 17.406 23.8688 17.2553C23.783 17.1045 23.6594 16.9786 23.5101 16.8901V16.9101Z" fill="#4C2399"/>
<path d="M12 8C11.2089 8 10.4355 8.2346 9.77772 8.67412C9.11992 9.11365 8.60723 9.73836 8.30448 10.4693C8.00173 11.2002 7.92252 12.0044 8.07686 12.7804C8.2312 13.5563 8.61216 14.269 9.17157 14.8284C9.73098 15.3878 10.4437 15.7688 11.2196 15.9231C11.9956 16.0775 12.7998 15.9983 13.5307 15.6955C14.2616 15.3928 14.8864 14.8801 15.3259 14.2223C15.7654 13.5645 16 12.7911 16 12C16 10.9391 15.5786 9.92172 14.8284 9.17157C14.0783 8.42143 13.0609 8 12 8ZM12.9 11.24H13.1733C13.2396 11.24 13.3032 11.2663 13.3501 11.3132C13.397 11.3601 13.4233 11.4237 13.4233 11.49C13.4233 11.5563 13.397 11.6199 13.3501 11.6668C13.3032 11.7137 13.2396 11.74 13.1733 11.74H12.9C12.8417 12.0223 12.6879 12.2759 12.4645 12.4581C12.241 12.6403 11.9616 12.7398 11.6733 12.74H11.61L12.85 13.98C12.8968 14.0269 12.9231 14.0904 12.9231 14.1567C12.9231 14.2229 12.8968 14.2865 12.85 14.3333C12.8028 14.3796 12.7395 14.4059 12.6733 14.4067C12.6073 14.4052 12.5443 14.3791 12.4967 14.3333L10.83 12.6667C10.7954 12.6313 10.7719 12.5866 10.7624 12.538C10.7529 12.4894 10.7579 12.4391 10.7767 12.3933C10.7949 12.3488 10.8257 12.3105 10.8654 12.2833C10.9051 12.256 10.9519 12.241 11 12.24H11.6667C11.8217 12.2399 11.9729 12.1918 12.0994 12.1022C12.226 12.0127 12.3217 11.8862 12.3733 11.74H11C10.9337 11.74 10.8701 11.7137 10.8232 11.6668C10.7763 11.6199 10.75 11.5563 10.75 11.49C10.75 11.4237 10.7763 11.3601 10.8232 11.3132C10.8701 11.2663 10.9337 11.24 11 11.24H12.3733C12.3221 11.0936 12.2265 10.9667 12.0999 10.8771C11.9732 10.7875 11.8218 10.7396 11.6667 10.74H11C10.9337 10.74 10.8701 10.7137 10.8232 10.6668C10.7763 10.6199 10.75 10.5563 10.75 10.49C10.75 10.4237 10.7763 10.3601 10.8232 10.3132C10.8701 10.2663 10.9337 10.24 11 10.24H13.1667C13.233 10.24 13.2966 10.2663 13.3434 10.3132C13.3903 10.3601 13.4167 10.4237 13.4167 10.49C13.4167 10.5563 13.3903 10.6199 13.3434 10.6668C13.2966 10.7137 13.233 10.74 13.1667 10.74H12.6667C12.7808 10.8871 12.8605 11.058 12.9 11.24Z" fill="#4C2399"/>
</svg>
