<svg width="24" height="24" viewBox="0 0 24 24" fill="none" xmlns="http://www.w3.org/2000/svg">
<path d="M22.2478 11.9403L12.6213 3.23412C12.54 3.15993 12.4432 3.10105 12.3366 3.06087C12.2299 3.02069 12.1155 3 12 3C11.8845 3 11.7701 3.02069 11.6634 3.06087C11.5568 3.10105 11.46 3.15993 11.3787 3.23412L1.7522 11.9403C1.63077 12.0516 1.54851 12.193 1.5158 12.3465C1.4831 12.5001 1.50141 12.6589 1.56842 12.8031C1.63408 12.9476 1.74557 13.0713 1.88884 13.1586C2.03212 13.246 2.20077 13.293 2.37355 13.2938H3.46746C3.52549 13.2938 3.58113 13.3146 3.62216 13.3517C3.66319 13.3888 3.68624 13.4392 3.68624 13.4916V21.2085C3.68624 21.4184 3.77844 21.6198 3.94256 21.7682C4.10668 21.9166 4.32928 22 4.56138 22H9.59339C9.65141 22 9.70706 21.9792 9.74809 21.942C9.78912 21.9049 9.81217 21.8546 9.81217 21.8021V18.0426C9.81217 17.5178 10.0427 17.0146 10.453 16.6435C10.8633 16.2724 11.4198 16.0639 12 16.0639C12.5802 16.0639 13.1367 16.2724 13.547 16.6435C13.9573 17.0146 14.1878 17.5178 14.1878 18.0426V21.8021C14.1878 21.8546 14.2109 21.9049 14.2519 21.942C14.2929 21.9792 14.3486 22 14.4066 22H19.4386C19.6707 22 19.8933 21.9166 20.0574 21.7682C20.2216 21.6198 20.3138 21.4184 20.3138 21.2085V13.4916C20.3138 13.4392 20.3368 13.3888 20.3778 13.3517C20.4189 13.3146 20.4745 13.2938 20.5325 13.2938H21.6265C21.7992 13.293 21.9679 13.246 22.1112 13.1586C22.2544 13.0713 22.3659 12.9476 22.4316 12.8031C22.4986 12.6589 22.5169 12.5001 22.4842 12.3465C22.4515 12.193 22.3692 12.0516 22.2478 11.9403ZM12 12.5023C11.5673 12.5023 11.1443 12.3862 10.7845 12.1688C10.4247 11.9514 10.1443 11.6424 9.97871 11.2808C9.81312 10.9193 9.76979 10.5214 9.85421 10.1376C9.93863 9.75376 10.147 9.40119 10.453 9.12446C10.7589 8.84774 11.1488 8.65929 11.5732 8.58294C11.9976 8.50659 12.4375 8.54577 12.8372 8.69554C13.237 8.8453 13.5787 9.09891 13.8191 9.42431C14.0595 9.7497 14.1878 10.1323 14.1878 10.5236C14.1878 10.7835 14.1312 11.0408 14.0213 11.2808C13.9113 11.5209 13.7502 11.739 13.547 11.9228C13.3439 12.1065 13.1027 12.2522 12.8372 12.3517C12.5718 12.4511 12.2873 12.5023 12 12.5023Z" fill="#4C2399"/>
</svg>
