<svg width="24" height="24" viewBox="0 0 24 24" fill="none" xmlns="http://www.w3.org/2000/svg">
<g clip-path="url(#clip0_175_4488)">
<path d="M9.4999 17.5C9.50185 15.9783 9.93777 14.4887 10.7565 13.2061C11.5752 11.9234 12.7428 10.9008 14.1222 10.2583C15.5017 9.61585 17.0357 9.38012 18.5444 9.5788C20.0531 9.77749 21.4738 10.4023 22.6399 11.38C22.7277 11.4588 22.842 11.5016 22.9599 11.5H23.4999C23.599 11.4987 23.6954 11.4679 23.777 11.4116C23.8585 11.3553 23.9215 11.2761 23.9579 11.1839C23.9944 11.0918 24.0026 10.9909 23.9816 10.894C23.9606 10.7972 23.9113 10.7088 23.8399 10.64L12.9999 0.410042C12.7249 0.164065 12.3689 0.0280762 11.9999 0.0280762C11.6309 0.0280762 11.2749 0.164065 10.9999 0.410042L0.159899 10.64C0.0885451 10.7088 0.0392294 10.7972 0.0182123 10.894C-0.00280473 10.9909 0.00542463 11.0918 0.0418557 11.1839C0.0782869 11.2761 0.141277 11.3553 0.222829 11.4116C0.304382 11.4679 0.400819 11.4987 0.499899 11.5H2.4999C2.63251 11.5 2.75968 11.5527 2.85345 11.6465C2.94722 11.7403 2.9999 11.8674 2.9999 12V22C2.9999 22.2653 3.10526 22.5196 3.29279 22.7071C3.48033 22.8947 3.73468 23 3.9999 23H10.6399C10.7328 23 10.8238 22.9742 10.9028 22.9254C10.9818 22.8766 11.0456 22.8067 11.0871 22.7236C11.1286 22.6406 11.1462 22.5476 11.1379 22.4551C11.1295 22.3627 11.0956 22.2743 11.0399 22.2C10.0367 20.8386 9.49695 19.1912 9.4999 17.5Z" fill="#4C2399"/>
<path d="M17.5 11C16.2144 11 14.9577 11.3812 13.8888 12.0954C12.8199 12.8097 11.9868 13.8248 11.4948 15.0126C11.0028 16.2003 10.8741 17.5072 11.1249 18.7681C11.3757 20.029 11.9948 21.1872 12.9038 22.0962C13.8128 23.0052 14.971 23.6243 16.2319 23.8751C17.4928 24.1259 18.7997 23.9972 19.9874 23.5052C21.1752 23.0132 22.1903 22.1801 22.9046 21.1112C23.6188 20.0423 24 18.7856 24 17.5C24 15.7761 23.3152 14.1228 22.0962 12.9038C20.8772 11.6848 19.2239 11 17.5 11ZM18.9625 16.265H19.4067C19.5144 16.265 19.6177 16.3078 19.6939 16.384C19.7701 16.4602 19.8129 16.5635 19.8129 16.6712C19.8129 16.779 19.7701 16.8823 19.6939 16.9585C19.6177 17.0347 19.5144 17.0775 19.4067 17.0775H18.9625C18.8678 17.5363 18.6179 17.9484 18.2548 18.2444C17.8917 18.5404 17.4376 18.7022 16.9692 18.7025H16.8663L18.8813 20.7175C18.9573 20.7937 19.0001 20.8969 19.0001 21.0046C19.0001 21.1122 18.9573 21.2155 18.8813 21.2917C18.8045 21.3669 18.7016 21.4096 18.5942 21.4108C18.4869 21.4085 18.3845 21.366 18.3071 21.2917L15.5988 18.5833C15.5425 18.5259 15.5043 18.4532 15.4889 18.3742C15.4735 18.2953 15.4816 18.2136 15.5121 18.1392C15.5417 18.0668 15.5918 18.0046 15.6563 17.9603C15.7208 17.916 15.7968 17.8916 15.875 17.89H16.9583C17.2102 17.8899 17.4559 17.8116 17.6616 17.6661C17.8672 17.5206 18.0227 17.315 18.1067 17.0775H15.875C15.7673 17.0775 15.6639 17.0347 15.5877 16.9585C15.5116 16.8823 15.4688 16.779 15.4688 16.6712C15.4688 16.5635 15.5116 16.4602 15.5877 16.384C15.6639 16.3078 15.7673 16.265 15.875 16.265H18.1067C18.0234 16.0271 17.8681 15.821 17.6623 15.6754C17.4565 15.5297 17.2104 15.4519 16.9583 15.4525H15.875C15.7673 15.4525 15.6639 15.4097 15.5877 15.3335C15.5116 15.2573 15.4688 15.154 15.4688 15.0462C15.4688 14.9385 15.5116 14.8352 15.5877 14.759C15.6639 14.6828 15.7673 14.64 15.875 14.64H19.3958C19.5036 14.64 19.6069 14.6828 19.6831 14.759C19.7593 14.8352 19.8021 14.9385 19.8021 15.0462C19.8021 15.154 19.7593 15.2573 19.6831 15.3335C19.6069 15.4097 19.5036 15.4525 19.3958 15.4525H18.5833C18.7688 15.6916 18.8984 15.9692 18.9625 16.265Z" fill="#4C2399"/>
</g>
<defs>
<clipPath id="clip0_175_4488">
<rect width="24" height="24" fill="white"/>
</clipPath>
</defs>
</svg>
