<svg width="24" height="24" viewBox="0 0 24 24" fill="none" xmlns="http://www.w3.org/2000/svg">
<g clip-path="url(#clip0_175_4470)">
<path d="M9.5 15.4999C9.50177 15.0468 9.60615 14.6 9.80533 14.193C10.0045 13.786 10.2933 13.4294 10.65 13.1499C10.7248 13.0884 10.7805 13.0068 10.8106 12.9147C10.8407 12.8226 10.844 12.7238 10.82 12.6299C10.4814 11.3389 9.6849 10.2151 8.57897 9.46792C7.47305 8.72074 6.13316 8.40119 4.80906 8.56885C3.48496 8.7365 2.267 9.37991 1.3822 10.3792C0.497407 11.3784 0.00614964 12.6653 0 13.9999V17.4999C0 17.6325 0.0526784 17.7597 0.146447 17.8535C0.240215 17.9473 0.367392 17.9999 0.5 17.9999H2.31C2.37298 17.9997 2.43372 18.0233 2.48007 18.066C2.52641 18.1086 2.55496 18.1672 2.56 18.2299L3 23.5399C3.01008 23.6655 3.06717 23.7826 3.15987 23.8679C3.25257 23.9532 3.37404 24.0003 3.5 23.9999H7.5C7.62596 24.0003 7.74743 23.9532 7.84013 23.8679C7.93283 23.7826 7.98992 23.6655 8 23.5399L8.44 18.2299C8.44504 18.1672 8.47359 18.1086 8.51993 18.066C8.56628 18.0233 8.62702 17.9997 8.69 17.9999H9C9.13261 17.9999 9.25979 17.9473 9.35355 17.8535C9.44732 17.7597 9.5 17.6325 9.5 17.4999V15.4999Z" fill="#4C2399"/>
<path d="M2 4C2 4.45963 2.09053 4.91475 2.26642 5.33939C2.44231 5.76403 2.70012 6.14987 3.02513 6.47487C3.35013 6.79988 3.73597 7.05769 4.16061 7.23358C4.58525 7.40947 5.04037 7.5 5.5 7.5C5.95963 7.5 6.41475 7.40947 6.83939 7.23358C7.26403 7.05769 7.64987 6.79988 7.97487 6.47487C8.29988 6.14987 8.55769 5.76403 8.73358 5.33939C8.90947 4.91475 9 4.45963 9 4C9 3.54037 8.90947 3.08525 8.73358 2.66061C8.55769 2.23597 8.29988 1.85013 7.97487 1.52513C7.64987 1.20012 7.26403 0.942313 6.83939 0.766422C6.41475 0.59053 5.95963 0.5 5.5 0.5C5.04037 0.5 4.58525 0.59053 4.16061 0.766422C3.73597 0.942313 3.35013 1.20012 3.02513 1.52513C2.70012 1.85013 2.44231 2.23597 2.26642 2.66061C2.09053 3.08525 2 3.54037 2 4Z" fill="#4C2399"/>
<path d="M11 17.5V17.75C11 17.8163 11.0263 17.8799 11.0732 17.9268C11.1201 17.9736 11.1837 18 11.25 18H23.75C23.8163 18 23.8799 17.9736 23.9268 17.9268C23.9737 17.8799 24 17.8163 24 17.75V15.5C24 15.1022 23.842 14.7206 23.5607 14.4393C23.2794 14.158 22.8978 14 22.5 14H21.1C21.0501 13.9993 21.0015 13.9837 20.9605 13.9552C20.9195 13.9267 20.888 13.8866 20.87 13.84L20.3 12.42C20.1405 12.0948 19.8928 11.8211 19.5851 11.6302C19.2774 11.4392 18.9221 11.3386 18.56 11.34H16.44C16.0692 11.3457 15.7073 11.4544 15.3948 11.654C15.0822 11.8535 14.8313 12.1361 14.67 12.47L14.13 13.84C14.112 13.8866 14.0805 13.9267 14.0395 13.9552C13.9985 13.9837 13.9499 13.9993 13.9 14H12.5C12.1022 14 11.7206 14.158 11.4393 14.4393C11.158 14.7206 11 15.1022 11 15.5V17.5ZM16 13.08C16.0375 13.0065 16.0949 12.945 16.1656 12.9026C16.2363 12.8602 16.3175 12.8385 16.4 12.84H18.52C18.5929 12.8368 18.6653 12.8526 18.7302 12.886C18.795 12.9193 18.8501 12.9689 18.89 13.03L19.14 13.66C19.1576 13.6957 19.1668 13.7351 19.1668 13.775C19.1668 13.8149 19.1576 13.8542 19.14 13.89C19.1077 13.942 19.0582 13.9809 19 14H16.1C16.0586 14.0005 16.0178 13.9907 15.9811 13.9715C15.9445 13.9523 15.9132 13.9243 15.89 13.89C15.8707 13.8547 15.8607 13.8152 15.8607 13.775C15.8607 13.7348 15.8707 13.6953 15.89 13.66L16 13.08Z" fill="#4C2399"/>
<path d="M24 19.25C24 19.1837 23.9737 19.1201 23.9268 19.0732C23.8799 19.0263 23.8163 19 23.75 19H18.75C18.6837 19 18.6201 19.0263 18.5732 19.0732C18.5263 19.1201 18.5 19.1837 18.5 19.25V20C18.5 20.2652 18.3946 20.5196 18.2071 20.7071C18.0196 20.8946 17.7652 21 17.5 21C17.2348 21 16.9804 20.8946 16.7929 20.7071C16.6054 20.5196 16.5 20.2652 16.5 20V19.25C16.5 19.1837 16.4737 19.1201 16.4268 19.0732C16.3799 19.0263 16.3163 19 16.25 19H11.25C11.1837 19 11.1201 19.0263 11.0732 19.0732C11.0263 19.1201 11 19.1837 11 19.25V22.5C11 22.8978 11.158 23.2794 11.4393 23.5607C11.7206 23.842 12.1022 24 12.5 24H22.5C22.8978 24 23.2794 23.842 23.5607 23.5607C23.842 23.2794 24 22.8978 24 22.5V19.25Z" fill="#4C2399"/>
</g>
<defs>
<clipPath id="clip0_175_4470">
<rect width="24" height="24" fill="white"/>
</clipPath>
</defs>
</svg>
