<svg width="24" height="24" viewBox="0 0 24 24" fill="none" xmlns="http://www.w3.org/2000/svg">
<g clip-path="url(#clip0_177_4693)">
<path d="M17.0002 4.8252C15.5811 4.8252 14.1939 5.246 13.014 6.0344C11.8341 6.8228 10.9144 7.94338 10.3714 9.25444C9.8283 10.5655 9.68622 12.0082 9.96306 13.4C10.2399 14.7918 10.9233 16.0702 11.9267 17.0737C12.9301 18.0771 14.2086 18.7605 15.6004 19.0373C16.9922 19.3142 18.4349 19.1721 19.746 18.629C21.057 18.086 22.1776 17.1663 22.966 15.9864C23.7544 14.8065 24.1752 13.4193 24.1752 12.0002C24.1752 10.0973 23.4193 8.27228 22.0737 6.9267C20.7281 5.58113 18.9031 4.8252 17.0002 4.8252ZM18.6146 10.6369H19.1049C19.2238 10.6369 19.3379 10.6842 19.422 10.7683C19.5061 10.8524 19.5533 10.9664 19.5533 11.0854C19.5533 11.2043 19.5061 11.3184 19.422 11.4025C19.3379 11.4866 19.2238 11.5338 19.1049 11.5338H18.6146C18.5101 12.0403 18.2341 12.4952 17.8333 12.8219C17.4325 13.1487 16.9313 13.3272 16.4142 13.3276H16.3006L18.5249 15.5518C18.6089 15.6359 18.656 15.7499 18.656 15.8687C18.656 15.9876 18.6089 16.1015 18.5249 16.1856C18.4401 16.2687 18.3266 16.3158 18.208 16.3172C18.0896 16.3146 17.9765 16.2676 17.8911 16.1856L14.9015 13.196C14.8394 13.1326 14.7973 13.0523 14.7803 12.9652C14.7633 12.8781 14.7722 12.7879 14.8058 12.7057C14.8385 12.6258 14.8938 12.5572 14.965 12.5083C15.0362 12.4594 15.1201 12.4325 15.2064 12.4307H16.4023C16.6804 12.4305 16.9515 12.3442 17.1785 12.1836C17.4055 12.023 17.5772 11.796 17.6699 11.5338H15.2064C15.0875 11.5338 14.9735 11.4866 14.8894 11.4025C14.8053 11.3184 14.758 11.2043 14.758 11.0854C14.758 10.9664 14.8053 10.8524 14.8894 10.7683C14.9735 10.6842 15.0875 10.6369 15.2064 10.6369H17.6699C17.5779 10.3743 17.4065 10.1468 17.1793 9.98607C16.9521 9.82534 16.6806 9.73935 16.4023 9.74007H15.2064C15.0875 9.74007 14.9735 9.69282 14.8894 9.60873C14.8053 9.52463 14.758 9.41057 14.758 9.29163C14.758 9.1727 14.8053 9.05864 14.8894 8.97454C14.9735 8.89044 15.0875 8.84319 15.2064 8.84319H19.0929C19.2118 8.84319 19.3259 8.89044 19.41 8.97454C19.4941 9.05864 19.5413 9.1727 19.5413 9.29163C19.5413 9.41057 19.4941 9.52463 19.41 9.60873C19.3259 9.69282 19.2118 9.74007 19.0929 9.74007H18.196C18.4008 10.004 18.5438 10.3105 18.6146 10.6369Z" fill="#4C2399"/>
<path d="M7.5 12C7.5 11.7348 7.39464 11.4804 7.20711 11.2929C7.01957 11.1054 6.76522 11 6.5 11H1C0.734784 11 0.48043 11.1054 0.292893 11.2929C0.105357 11.4804 0 11.7348 0 12C0 12.2652 0.105357 12.5196 0.292893 12.7071C0.48043 12.8946 0.734784 13 1 13H6.5C6.76522 13 7.01957 12.8946 7.20711 12.7071C7.39464 12.5196 7.5 12.2652 7.5 12Z" fill="#4C2399"/>
<path d="M8 6H3C2.73478 6 2.48043 6.10536 2.29289 6.29289C2.10536 6.48043 2 6.73478 2 7C2 7.26522 2.10536 7.51957 2.29289 7.70711C2.48043 7.89464 2.73478 8 3 8H8C8.26522 8 8.51957 7.89464 8.70711 7.70711C8.89464 7.51957 9 7.26522 9 7C9 6.73478 8.89464 6.48043 8.70711 6.29289C8.51957 6.10536 8.26522 6 8 6Z" fill="#4C2399"/>
<path d="M8 16H3C2.73478 16 2.48043 16.1054 2.29289 16.2929C2.10536 16.4804 2 16.7348 2 17C2 17.2652 2.10536 17.5196 2.29289 17.7071C2.48043 17.8946 2.73478 18 3 18H8C8.26522 18 8.51957 17.8946 8.70711 17.7071C8.89464 17.5196 9 17.2652 9 17C9 16.7348 8.89464 16.4804 8.70711 16.2929C8.51957 16.1054 8.26522 16 8 16Z" fill="#4C2399"/>
</g>
<defs>
<clipPath id="clip0_177_4693">
<rect width="24" height="24" fill="white"/>
</clipPath>
</defs>
</svg>
